<svg xmlns="http://www.w3.org/2000/svg" width="28.563" height="28.563" viewBox="0 0 28.563 28.563"><defs><style>.a{fill:#039be5;}.b{fill:#fff;}</style></defs><path class="a" d="M147.782,10a14.282,14.282,0,1,0,14.282,14.282A14.282,14.282,0,0,0,147.782,10Z" transform="translate(-133.5 -10)"/><path class="b" d="M164.017,37.805h3.7l.58-3.755h-4.277V32c0-1.56.51-2.943,1.969-2.943h2.344V25.779A19.915,19.915,0,0,0,165.4,25.6c-3.437,0-5.453,1.815-5.453,5.951v2.5h-3.534v3.755h3.534v10.32a12.95,12.95,0,0,0,4.07.031Z" transform="translate(-147.802 -19.738)"/></svg>