<svg xmlns="http://www.w3.org/2000/svg" width="105.527" height="105.527" viewBox="0 0 105.527 105.527"><defs><style>.a{fill:#c2c4d0;}</style></defs><path class="a" d="M25.828,5A20.889,20.889,0,0,0,5,25.828V75.814A20.889,20.889,0,0,0,25.828,96.642H75.814A20.889,20.889,0,0,0,96.642,75.814V25.828A20.889,20.889,0,0,0,75.814,5Zm0,8.331H75.814a12.434,12.434,0,0,1,12.5,12.5V75.814a12.524,12.524,0,0,1-1.236,5.371L58.522,52.637a10.956,10.956,0,0,0-15.407,0L14.567,81.185a12.524,12.524,0,0,1-1.236-5.371V25.828A12.434,12.434,0,0,1,25.828,13.331ZM102.2,23.09v55.5a23.631,23.631,0,0,1-23.6,23.6H23.09a20.781,20.781,0,0,0,16.623,8.331H78.592a31.973,31.973,0,0,0,31.936-31.936V39.713A20.785,20.785,0,0,0,102.2,23.09ZM67.483,27.216a6.943,6.943,0,1,0,6.943,6.943A6.942,6.942,0,0,0,67.483,27.216ZM50.821,57.753a2.549,2.549,0,0,1,1.811.775L81.185,87.075a12.524,12.524,0,0,1-5.371,1.236H25.828a12.524,12.524,0,0,1-5.371-1.236L49,58.527A2.561,2.561,0,0,1,50.821,57.753Z" transform="translate(-5 -5)"/></svg>