<svg xmlns="http://www.w3.org/2000/svg" width="24.145" height="24.145" viewBox="0 0 24.145 24.145"><defs><style>.a{fill:#ffc107;}.b{fill:#ff3d00;}.c{fill:#4caf50;}.d{fill:#1976d2;}</style></defs><path class="a" d="M31.91,17.708h-.972v-.05H20.072v4.829H26.9a7.249,7.249,0,1,1-2.017-7.824l3.415-3.415a12.06,12.06,0,1,0,3.852,8.824A12.155,12.155,0,0,0,31.91,17.708Z" transform="translate(-8 -8)"/><path class="b" d="M12.612,14.453l3.966,2.909a7.229,7.229,0,0,1,11.52-2.7l3.415-3.415a12.049,12.049,0,0,0-18.9,3.2Z" transform="translate(-11.22 -8)"/><path class="c" d="M23.137,65.733A12.016,12.016,0,0,0,31.231,62.6L27.5,59.438a7.225,7.225,0,0,1-11.168-3.33L12.39,59.141A12.063,12.063,0,0,0,23.137,65.733Z" transform="translate(-11.065 -41.589)"/><path class="d" d="M59.838,40.05h-.972V40H48v4.829h6.823a7.268,7.268,0,0,1-2.467,3.363h0l3.736,3.162a11.678,11.678,0,0,0,3.978-8.938A12.155,12.155,0,0,0,59.838,40.05Z" transform="translate(-35.928 -30.342)"/></svg>