<svg xmlns="http://www.w3.org/2000/svg" width="199" height="148" viewBox="0 0 199 148"><defs><style>.a,.b{fill:#5337f7;}.a{font-size:75px;font-family:AllRoundGothic-Bold, All Round Gothic;font-weight:700;letter-spacing:-0.035em;isolation:isolate;}</style></defs><g transform="translate(-829.437 -472.638)"><text class="a" transform="translate(1028.437 541.638)"><tspan x="-198.225" y="0">social</tspan><tspan x="-86.925" y="58">up</tspan></text><g transform="translate(854.616 585.018)"><g transform="translate(0 0)"><path class="b" d="M869.394,661.694a7.145,7.145,0,1,1,7.145,7.144A6.964,6.964,0,0,1,869.394,661.694Z" transform="translate(-869.394 -654.549)"/></g></g><g transform="translate(877.447 585.018)"><g transform="translate(0 0)"><path class="b" d="M869.394,661.694a7.145,7.145,0,1,1,7.145,7.144A6.964,6.964,0,0,1,869.394,661.694Z" transform="translate(-869.394 -654.549)"/></g></g><g transform="translate(900.278 585.018)"><g transform="translate(0 0)"><path class="b" d="M869.394,661.694a7.145,7.145,0,1,1,7.145,7.144A6.964,6.964,0,0,1,869.394,661.694Z" transform="translate(-869.394 -654.549)"/></g></g><g transform="translate(831.785 585.018)"><g transform="translate(0 0)"><path class="b" d="M832.492,661.694a7.145,7.145,0,1,1,7.144,7.144A6.964,6.964,0,0,1,832.492,661.694Z" transform="translate(-832.492 -654.549)"/></g></g><g transform="translate(877.447 561.768)"><path class="b" d="M906.3,624.114a7.145,7.145,0,1,1,7.145,7.144A6.964,6.964,0,0,1,906.3,624.114Z" transform="translate(-906.297 -616.969)"/></g><g transform="translate(900.278 561.768)"><path class="b" d="M906.3,624.114a7.145,7.145,0,1,1,7.145,7.144A6.964,6.964,0,0,1,906.3,624.114Z" transform="translate(-906.297 -616.969)"/></g><g transform="translate(923.11 561.768)"><path class="b" d="M906.3,624.114a7.145,7.145,0,1,1,7.145,7.144A6.964,6.964,0,0,1,906.3,624.114Z" transform="translate(-906.297 -616.969)"/></g><g transform="translate(854.616 561.768)"><path class="b" d="M869.394,624.114a7.145,7.145,0,1,1,7.145,7.144A6.964,6.964,0,0,1,869.394,624.114Z" transform="translate(-869.394 -616.969)"/></g><g transform="translate(831.785 561.768)"><path class="b" d="M832.492,624.114a7.145,7.145,0,1,1,7.144,7.144A6.964,6.964,0,0,1,832.492,624.114Z" transform="translate(-832.492 -616.969)"/></g></g></svg>