<svg xmlns="http://www.w3.org/2000/svg" xmlns:xlink="http://www.w3.org/1999/xlink" width="44.099" height="48.969" viewBox="0 0 44.099 48.969"><defs><style>.a{fill:url(#a);}.b{fill:url(#b);}.c{fill:url(#c);}</style><linearGradient id="a" x1="0.694" y1="1.071" x2="0.282" y2="0.089" gradientUnits="objectBoundingBox"><stop offset="0" stop-color="#6051f2"/><stop offset="0.385" stop-color="#5e50ef"/><stop offset="0.59" stop-color="#5b4ce7"/><stop offset="0.752" stop-color="#5446da"/><stop offset="0.891" stop-color="#4b3ec7"/><stop offset="1" stop-color="#4236b2"/></linearGradient><linearGradient id="b" y1="0.5" x2="1" y2="0.5" gradientUnits="objectBoundingBox"><stop offset="0" stop-color="#6051f2"/><stop offset="0.238" stop-color="#5b4de8"/><stop offset="0.633" stop-color="#4f42cf"/><stop offset="1" stop-color="#4236b2"/></linearGradient><linearGradient id="c" x1="0.888" y1="0.113" x2="0.408" y2="0.928" gradientUnits="objectBoundingBox"><stop offset="0" stop-color="#6051f2"/><stop offset="0.449" stop-color="#5f50f0"/><stop offset="0.616" stop-color="#5b4de9"/><stop offset="0.737" stop-color="#5648dd"/><stop offset="0.834" stop-color="#4e41cc"/><stop offset="0.918" stop-color="#4437b6"/><stop offset="0.932" stop-color="#4236b2"/></linearGradient></defs><g transform="translate(-1826.512 -990.536)"><path class="a" d="M1867.46,1022.67l-9.006,5.2-6.745,3.889a6.3,6.3,0,0,1-6.3,0l-9.207-5.31-6.538-3.781a6.3,6.3,0,0,1-3.151-5.459,13.055,13.055,0,0,1,3.454-8.79c2.159-2.307,5.121-3.875,8.307-5.76.021-.013.214-.127.537-.315l-.008,11.46,9.736,5.592.456.261c3.352,1.912,6.283,3.781,9.508,4.453a12.325,12.325,0,0,0,6.658-.456c.214-.074.429-.154.643-.234.255-.108.51-.208.765-.322C1866.856,1022.965,1867.157,1022.824,1867.46,1022.67Z" transform="translate(0 6.899)"/><path class="b" d="M1858.676,1009.018v.3l-.168-.094-10.124-5.592s-7.483,4.378-9.574,5.611c-.323.189-.516.3-.537.315-3.186,1.885-6.148,3.453-8.307,5.76a13.055,13.055,0,0,0-3.454,8.79v-18.184a6.308,6.308,0,0,1,3.151-5.457l9.643-5.565,6.1-3.528a6.33,6.33,0,0,1,6.3,0,13.159,13.159,0,0,1,5.727,7.042,1.47,1.47,0,0,1,.048.16A35.364,35.364,0,0,1,1858.676,1009.018Z" transform="translate(0)"/><path class="c" d="M1866.076,1005.616V1023.8a6.276,6.276,0,0,1-2.138,4.727,5.9,5.9,0,0,1-.658.51c-.114.074-.234.154-.355.222-.3.154-.6.295-.892.429-.255.114-.51.214-.765.322-.214.081-.429.16-.643.234a12.322,12.322,0,0,1-6.658.456c-3.225-.672-6.156-2.541-9.508-4.453l-.456-.261-9.728-5.6,9.944-5.646,9.943,5.719v-11.439l-.021-.013v-.3a35.364,35.364,0,0,0-1.193-10.441,1.47,1.47,0,0,0-.048-.16,13.159,13.159,0,0,0-5.727-7.042l9.193,5.312,6.558,3.788a7.073,7.073,0,0,1,.7.463A6.3,6.3,0,0,1,1866.076,1005.616Z" transform="translate(4.535 0.31)"/></g></svg>