<svg xmlns="http://www.w3.org/2000/svg" xmlns:xlink="http://www.w3.org/1999/xlink" width="121.979" height="48.969" viewBox="0 0 121.979 48.969"><defs><style>.a{isolation:isolate;}.b{fill:#5337f7;}.c{fill:url(#a);}.d{fill:url(#b);}.e{fill:url(#c);}</style><linearGradient id="a" x1="0.694" y1="1.071" x2="0.282" y2="0.089" gradientUnits="objectBoundingBox"><stop offset="0" stop-color="#6051f2"/><stop offset="0.385" stop-color="#5e50ef"/><stop offset="0.59" stop-color="#5b4ce7"/><stop offset="0.752" stop-color="#5446da"/><stop offset="0.891" stop-color="#4b3ec7"/><stop offset="1" stop-color="#4236b2"/></linearGradient><linearGradient id="b" y1="0.5" x2="1" y2="0.5" gradientUnits="objectBoundingBox"><stop offset="0" stop-color="#6051f2"/><stop offset="0.238" stop-color="#5b4de8"/><stop offset="0.633" stop-color="#4f42cf"/><stop offset="1" stop-color="#4236b2"/></linearGradient><linearGradient id="c" x1="0.888" y1="0.113" x2="0.408" y2="0.928" gradientUnits="objectBoundingBox"><stop offset="0" stop-color="#6051f2"/><stop offset="0.449" stop-color="#5f50f0"/><stop offset="0.616" stop-color="#5b4de9"/><stop offset="0.737" stop-color="#5648dd"/><stop offset="0.834" stop-color="#4e41cc"/><stop offset="0.918" stop-color="#4437b6"/><stop offset="0.932" stop-color="#4236b2"/></linearGradient></defs><g transform="translate(-1721.121 -854.52)"><g class="a" transform="translate(1775.908 859.81)"><path class="b" d="M1806.14,881.3h3.9c.026.686.527,1.028,1.608,1.028,1.213,0,1.608-.421,1.608-.976,0-.869-.949-.948-2.161-1.133-1.793-.264-4.745-.712-4.745-3.849,0-2.636,2.083-4.482,5.326-4.482s5.245,1.872,5.325,4.218h-3.849c-.1-.607-.632-.949-1.423-.949-.975,0-1.371.5-1.371,1.028,0,.79.949.9,2.162,1.081,1.871.263,4.745.764,4.745,3.848,0,2.689-2.214,4.482-5.562,4.482S1806.192,883.809,1806.14,881.3Z" transform="translate(-1806.14 -865.988)"/><path class="b" d="M1824.344,878.748a7.014,7.014,0,1,1,7.012,6.854A6.689,6.689,0,0,1,1824.344,878.748Zm10.017,0a3.009,3.009,0,1,0-3.005,3.163A2.937,2.937,0,0,0,1834.361,878.748Z" transform="translate(-1812.613 -865.988)"/><path class="b" d="M1847.047,878.748a6.689,6.689,0,0,1,7.012-6.855,6.557,6.557,0,0,1,6.8,5.458h-4.007a2.9,2.9,0,0,0-2.794-1.767,3.168,3.168,0,0,0,0,6.327,2.9,2.9,0,0,0,2.794-1.766h4.007a6.557,6.557,0,0,1-6.8,5.457A6.689,6.689,0,0,1,1847.047,878.748Z" transform="translate(-1820.686 -865.988)"/><path class="b" d="M1869.954,865.26a2.531,2.531,0,1,1,2.531,2.531A2.466,2.466,0,0,1,1869.954,865.26Zm.554,3.717h3.954V882h-3.954Z" transform="translate(-1828.832 -862.73)"/><path class="b" d="M1879.363,878.905a6.691,6.691,0,0,1,7.038-7.012,6.573,6.573,0,0,1,6.933,6.986v6.379H1889.7V883.1a4.145,4.145,0,0,1-4.034,2.5A6.334,6.334,0,0,1,1879.363,878.905Zm10.017-.158a3.009,3.009,0,1,0-3.005,3.163A2.936,2.936,0,0,0,1889.38,878.748Z" transform="translate(-1832.178 -865.988)"/><path class="b" d="M1904.274,863.589h3.954v18.717h-3.954Z" transform="translate(-1841.036 -863.035)"/><path class="b" d="M1806.958,903.518V896.77h3.954v6.748c0,2.057,1,2.926,2.478,2.926s2.478-.869,2.478-2.926V896.77h3.955v6.748c0,4.376-2.584,6.617-6.432,6.617S1806.958,907.921,1806.958,903.518Z" transform="translate(-1806.431 -874.834)"/><path class="b" d="M1829.5,903.223a6.572,6.572,0,0,1,6.934-6.985,6.691,6.691,0,0,1,7.038,7.012,6.325,6.325,0,0,1-6.327,6.7,4.341,4.341,0,0,1-3.69-1.766v6.986H1829.5Zm9.965-.132a3.009,3.009,0,1,0-3,3.163A2.936,2.936,0,0,0,1839.462,903.092Z" transform="translate(-1814.445 -874.645)"/></g><path class="c" d="M1762.069,903.875l-9,5.2-6.745,3.888a6.3,6.3,0,0,1-6.3,0l-9.206-5.31-6.538-3.782a6.3,6.3,0,0,1-3.152-5.458,13.064,13.064,0,0,1,3.453-8.79c2.159-2.306,5.122-3.875,8.308-5.76.02-.013.214-.127.536-.315l-.006,11.459,9.736,5.592.456.262c3.352,1.911,6.283,3.782,9.508,4.452a12.329,12.329,0,0,0,6.658-.456c.214-.074.429-.155.644-.235.255-.108.51-.208.764-.322C1761.466,904.17,1761.768,904.03,1762.069,903.875Z" transform="translate(0 -10.324)"/><path class="d" d="M1753.286,873v.3l-.168-.094-10.124-5.592s-7.483,4.379-9.575,5.612c-.322.188-.516.3-.536.315-3.185,1.884-6.149,3.453-8.308,5.76a13.065,13.065,0,0,0-3.453,8.79V869.91a6.308,6.308,0,0,1,3.152-5.458l9.642-5.565,6.1-3.527a6.332,6.332,0,0,1,6.3,0,13.161,13.161,0,0,1,5.726,7.04,1.384,1.384,0,0,1,.047.161A35.343,35.343,0,0,1,1753.286,873Z" transform="translate(0 0)"/><path class="e" d="M1772.007,870.373v18.184a6.278,6.278,0,0,1-2.14,4.727,6.15,6.15,0,0,1-.657.51c-.114.073-.235.154-.356.221-.3.155-.6.3-.892.429-.254.114-.509.215-.764.322-.215.08-.429.16-.644.235a12.33,12.33,0,0,1-6.658.456c-3.225-.67-6.155-2.541-9.508-4.452l-.456-.262-9.729-5.6,9.944-5.646,9.944,5.72V873.779l-.02-.013v-.3a35.346,35.346,0,0,0-1.194-10.44,1.367,1.367,0,0,0-.047-.161,13.162,13.162,0,0,0-5.726-7.04l9.192,5.311,6.557,3.788a6.865,6.865,0,0,1,.7.462A6.3,6.3,0,0,1,1772.007,870.373Z" transform="translate(-6.786 -0.464)"/></g></svg>