<svg xmlns="http://www.w3.org/2000/svg" width="123.129" height="123.129" viewBox="0 0 123.129 123.129"><defs><style>.a{fill:#c2c4d0;}</style></defs><path class="a" d="M33.714,0A33.714,33.714,0,1,0,67.428,33.714,33.779,33.779,0,0,0,33.714,0Zm0,8.795A24.919,24.919,0,1,1,8.795,33.714,24.853,24.853,0,0,1,33.714,8.795Zm-.067,5.8a4.395,4.395,0,0,0-4.33,4.459V33.714a4.405,4.405,0,0,0,1.287,3.11l5.863,5.863A4.4,4.4,0,0,0,42.814,36.6c-.041-.044-.085-.085-.126-.129l-4.576-4.573V19.056a4.4,4.4,0,0,0-4.333-4.462C33.734,14.594,33.69,14.594,33.646,14.6ZM69.832,17.59a39.164,39.164,0,0,1,2.756,8.795h31.486a10.272,10.272,0,0,1,10.261,10.261v4.4H72.587a39.465,39.465,0,0,1-2.756,8.795h44.5v54.235a10.272,10.272,0,0,1-10.261,10.261H36.645a10.272,10.272,0,0,1-10.261-10.261V72.587a39.465,39.465,0,0,1-8.795-2.756v34.242a19.078,19.078,0,0,0,19.056,19.056h67.428a19.078,19.078,0,0,0,19.056-19.056V36.645A19.078,19.078,0,0,0,104.073,17.59Zm.528,43.975a7.329,7.329,0,1,0,7.329,7.329A7.328,7.328,0,0,0,70.359,61.564Zm24.919,0a7.329,7.329,0,1,0,7.329,7.329A7.328,7.328,0,0,0,95.278,61.564ZM45.44,87.949a7.329,7.329,0,1,0,7.329,7.329A7.328,7.328,0,0,0,45.44,87.949Zm24.919,0a7.329,7.329,0,1,0,7.329,7.329A7.328,7.328,0,0,0,70.359,87.949Z"/></svg>