<svg xmlns="http://www.w3.org/2000/svg" xmlns:xlink="http://www.w3.org/1999/xlink" width="335.185" height="261.431" viewBox="0 0 335.185 261.431"><defs><style>.a{opacity:0.12;fill:url(#a);}.b{fill:url(#b);}.c{fill:url(#c);}.d{fill:url(#d);}.e{fill:#b55428;opacity:0.16;}.f{fill:#c4855b;opacity:0.44;}.g{opacity:0.57;fill:url(#f);}.h{fill:url(#g);}.i{fill:#fff;}.j{opacity:0.17;}.k{fill:#e59c5a;}.l{fill:#a65e26;}.m{fill:url(#i);}.n{fill:#e3e5ff;}.o{fill:#d8dbfa;}.p{fill:#f5f6ff;}.q{fill:#c4c9ff;}.r{isolation:isolate;}.s{fill:#2f2f8e;}.t{fill:#7070cf;}.u{fill:#4343b0;}.v{fill:#70c5ff;}.w{fill:#43b3ff;}.x{fill:#ffe291;}.y{fill:#ffd461;}.z{fill:#ff94b3;}.aa{fill:#ff6e98;}.ab{opacity:0.2;}.ac{fill:#e5e5ed;}.ac,.ad,.ae,.af,.ag,.ah,.ai,.aj,.ak,.al,.am,.an,.ao,.ap,.aq,.ar,.as,.at,.au,.av,.aw,.ax,.ay,.az,.ba,.bb,.bc,.bd,.bf,.bg,.bh,.bi,.bj,.bk,.bl,.bm,.bn,.bo,.bp,.br,.bs,.bt,.bv,.bw,.bx,.bz,.ca,.cb,.cd,.ce,.cf,.cg,.ch,.cj,.cl,.cm,.cn,.co,.cp{fill-rule:evenodd;}.ad{fill:#d6dbe7;}.ae{fill:#eff0f8;}.af{fill:#b0b4c7;}.ag{fill:#4b4339;}.ah{fill:#04020d;opacity:0.13;}.ai{fill:url(#j);}.aj,.be{fill:#464239;}.ak{fill:url(#k);}.al{fill:#2f2f27;}.am{fill:#6d6358;}.an{fill:url(#l);}.ao{fill:url(#m);}.ap{fill:#81786e;}.aq{fill:url(#n);}.ar{fill:url(#o);}.as{fill:url(#p);}.at{fill:#f4efe8;}.au{fill:url(#q);}.av{fill:url(#r);}.aw{fill:#786e62;}.ax{fill:url(#s);}.ay{fill:url(#t);}.az{fill:url(#u);}.ba{fill:url(#v);}.bb{fill:url(#w);}.bc{fill:url(#x);}.bd{fill:url(#y);}.bf{fill:url(#z);}.bg{fill:url(#aa);}.bh{fill:url(#ab);}.bi{fill:url(#ac);}.bj{fill:url(#ad);}.bk{fill:url(#ae);}.bl{fill:url(#af);}.bm{fill:url(#ag);}.bn{fill:url(#ah);}.bo{fill:url(#ai);}.bp{fill:url(#aj);}.bq{fill:url(#ak);}.br{fill:url(#al);}.bs{fill:url(#am);}.bt{fill:url(#an);}.bu{fill:url(#ao);}.bv{fill:url(#ap);}.bw{fill:url(#aq);}.bx{fill:url(#ar);}.by{fill:url(#as);}.bz{fill:url(#at);}.ca{fill:url(#au);}.cb{fill:url(#av);}.cc{fill:url(#aw);}.cd{fill:url(#ax);}.ce{fill:url(#ay);}.cf{fill:url(#az);}.cg{fill:#e7e0d6;}.ch{fill:url(#ba);}.ci{fill:url(#bb);}.cj{fill:url(#bc);}.ck{fill:url(#bd);}.cl{fill:url(#be);}.cm{fill:url(#bf);}.cn{fill:url(#bg);}.co{fill:url(#bh);}.cp{fill:url(#bi);}</style><linearGradient id="a" x1="0.211" y1="0.803" x2="1.173" y2="-0.126" gradientUnits="objectBoundingBox"><stop offset="0.001" stop-color="#1b1464" stop-opacity="0.969"/><stop offset="0.793" stop-color="#c2d0ec" stop-opacity="0"/></linearGradient><linearGradient id="b" x1="-1.034" y1="-3.949" x2="-0.034" y2="-3.949" gradientUnits="objectBoundingBox"><stop offset="0" stop-color="#fdc67a"/><stop offset="0.994" stop-color="#fdc87b"/></linearGradient><linearGradient id="c" x1="0" y1="0.5" x2="1" y2="0.5" xlink:href="#b"/><linearGradient id="d" x1="0.5" y1="1" x2="0.5" gradientUnits="objectBoundingBox"><stop offset="0" stop-color="#f18555"/><stop offset="0.229" stop-color="#f28e5a"/><stop offset="0.609" stop-color="#f7a768"/><stop offset="0.994" stop-color="#fdc87b"/></linearGradient><linearGradient id="f" x1="0.806" y1="-0.025" x2="0.007" y2="1.247" gradientUnits="objectBoundingBox"><stop offset="0" stop-color="#d58e54"/><stop offset="1" stop-color="#b26d39" stop-opacity="0"/></linearGradient><linearGradient id="g" x1="0.5" y1="1" x2="0.5" y2="-0.018" gradientUnits="objectBoundingBox"><stop offset="0.001" stop-color="#faceb3"/><stop offset="1" stop-color="#fdd2b7"/></linearGradient><linearGradient id="i" x1="0.5" y1="1" x2="0.5" gradientUnits="objectBoundingBox"><stop offset="0" stop-color="#f0008e"/><stop offset="0.162" stop-color="#f1098e"/><stop offset="0.431" stop-color="#f3228f"/><stop offset="0.773" stop-color="#f84b91"/><stop offset="0.998" stop-color="#fc6b93"/></linearGradient><linearGradient id="j" x1="-6.531" y1="0.302" x2="2.604" y2="0.561" gradientUnits="objectBoundingBox"><stop offset="0" stop-color="#464239"/><stop offset="1" stop-color="#2f2f27"/></linearGradient><linearGradient id="k" x1="1.619" y1="0.5" x2="0.661" y2="0.5" xlink:href="#j"/><linearGradient id="l" x1="0.496" y1="0.501" x2="0.696" y2="0.974" gradientUnits="objectBoundingBox"><stop offset="0" stop-color="#2f2f27"/><stop offset="1" stop-color="#3c3b32"/></linearGradient><linearGradient id="m" x1="0.581" y1="0.864" x2="0.76" y2="1.559" xlink:href="#l"/><linearGradient id="n" x1="1.052" y1="1.333" x2="0.445" y2="0.417" xlink:href="#j"/><linearGradient id="o" x1="1.018" y1="1.459" x2="0.413" y2="0.34" xlink:href="#l"/><linearGradient id="p" x1="0.821" y1="1.569" x2="0.089" y2="-0.869" xlink:href="#l"/><linearGradient id="q" x1="0.61" y1="0.246" x2="0.306" y2="0.951" gradientUnits="objectBoundingBox"><stop offset="0" stop-color="#e7e0d6"/><stop offset="1" stop-color="#6d6358"/></linearGradient><linearGradient id="r" x1="0.634" y1="0.843" x2="0.467" y2="0.415" gradientUnits="objectBoundingBox"><stop offset="0" stop-color="#3d3a32"/><stop offset="1" stop-color="#af9f99"/></linearGradient><linearGradient id="s" x1="0.892" y1="1.356" x2="-0.007" y2="-0.505" xlink:href="#l"/><linearGradient id="t" x1="-2.392" y1="0.5" x2="1.523" y2="0.5" xlink:href="#j"/><linearGradient id="u" x1="-3.857" y1="0.5" x2="0.075" y2="0.5" xlink:href="#j"/><linearGradient id="v" x1="-2.398" y1="0.5" x2="3.485" y2="0.5" xlink:href="#j"/><linearGradient id="w" x1="-2.572" y1="0.424" x2="-8.056" y2="0.289" gradientUnits="objectBoundingBox"><stop offset="0" stop-color="#2d2d25"/><stop offset="1" stop-color="#323229"/></linearGradient><linearGradient id="x" x1="0.604" y1="0.523" x2="1.886" y2="0.883" xlink:href="#w"/><linearGradient id="y" x1="0.534" y1="0.19" x2="0.297" y2="2.37" xlink:href="#w"/><linearGradient id="z" x1="0.547" y1="0.343" x2="0.205" y2="1.492" xlink:href="#w"/><linearGradient id="aa" x1="0.714" y1="0.157" x2="-0.6" y2="2.264" xlink:href="#l"/><linearGradient id="ab" x1="0.163" y1="-0.275" x2="0.927" y2="1.484" xlink:href="#j"/><linearGradient id="ac" x1="0.582" y1="0.822" x2="0.341" y2="-0.122" xlink:href="#w"/><linearGradient id="ad" x1="-0.032" y1="2.212" x2="1.14" y2="-1.119" gradientUnits="objectBoundingBox"><stop offset="0" stop-color="#464239"/><stop offset="1" stop-color="#5d564c"/></linearGradient><linearGradient id="ae" x1="1.404" y1="0.458" x2="-3.653" y2="0.694" xlink:href="#l"/><linearGradient id="af" x1="1.312" y1="2.639" x2="0.505" y2="0.513" xlink:href="#w"/><linearGradient id="ag" x1="1.035" y1="1.758" x2="-0.168" y2="-0.901" xlink:href="#ad"/><linearGradient id="ah" x1="2.239" y1="4.192" x2="0.992" y2="1.545" xlink:href="#ad"/><linearGradient id="ai" x1="2.636" y1="2.346" x2="0.557" y2="0.549" xlink:href="#w"/><linearGradient id="aj" x1="1.948" y1="0.389" x2="8.789" y2="-0.137" gradientUnits="objectBoundingBox"><stop offset="0" stop-color="#302f28"/><stop offset="1" stop-color="#35332c"/></linearGradient><linearGradient id="ak" x1="0.063" y1="0.296" x2="3.37" y2="1.836" xlink:href="#j"/><linearGradient id="al" x1="2.239" y1="4.193" x2="0.992" y2="1.544" xlink:href="#ad"/><linearGradient id="am" x1="2.637" y1="2.345" x2="0.558" y2="0.549" xlink:href="#w"/><linearGradient id="an" x1="1.946" y1="0.389" x2="8.784" y2="-0.137" xlink:href="#aj"/><linearGradient id="ao" x1="0.063" y1="0.296" x2="3.37" y2="1.836" xlink:href="#j"/><linearGradient id="ap" x1="2.239" y1="4.192" x2="0.992" y2="1.545" xlink:href="#ad"/><linearGradient id="aq" x1="2.637" y1="2.345" x2="0.558" y2="0.549" xlink:href="#w"/><linearGradient id="ar" x1="1.948" y1="0.389" x2="8.792" y2="-0.137" xlink:href="#aj"/><linearGradient id="as" x1="0.063" y1="0.295" x2="3.366" y2="1.836" xlink:href="#j"/><linearGradient id="at" x1="2.239" y1="4.192" x2="0.992" y2="1.544" xlink:href="#ad"/><linearGradient id="au" x1="2.636" y1="2.345" x2="0.557" y2="0.549" xlink:href="#w"/><linearGradient id="av" x1="1.946" y1="0.389" x2="8.786" y2="-0.137" xlink:href="#aj"/><linearGradient id="aw" x1="0.063" y1="0.296" x2="3.371" y2="1.837" xlink:href="#j"/><linearGradient id="ax" x1="1.018" y1="1.516" x2="-0.133" y2="-0.544" xlink:href="#l"/><linearGradient id="ay" x1="0.332" y1="0.409" x2="2.541" y2="1.609" xlink:href="#w"/><linearGradient id="az" x1="0.935" y1="1.058" x2="0.072" y2="-0.05" xlink:href="#r"/><linearGradient id="ba" x1="0.5" y1="0.409" x2="0.5" y2="1.298" gradientUnits="objectBoundingBox"><stop offset="0" stop-color="#c2b2ac"/><stop offset="1" stop-color="#6d6358"/></linearGradient><linearGradient id="bb" x1="-9.217" y1="0.383" x2="2.677" y2="0.526" xlink:href="#j"/><linearGradient id="bc" x1="0.675" y1="0.258" x2="-0.264" y2="1.556" xlink:href="#q"/><linearGradient id="bd" x1="-2.209" y1="-3.688" x2="3.234" y2="4.726" xlink:href="#j"/><linearGradient id="be" x1="1.254" y1="1.211" x2="-0.319" y2="-0.271" xlink:href="#l"/><linearGradient id="bf" x1="0.933" y1="1.099" x2="0.085" y2="-0.074" xlink:href="#r"/><linearGradient id="bg" x1="-1.071" y1="-0.215" x2="1.891" y2="1.197" xlink:href="#ad"/><linearGradient id="bh" x1="4.04" y1="0.887" x2="14.567" y2="2.037" xlink:href="#q"/><linearGradient id="bi" x1="-6.742" y1="2.155" x2="2.028" y2="0.151" xlink:href="#r"/></defs><g transform="translate(-35.349 -86.55)"><path class="a" d="M3929.947,4573.439h0a20.828,20.828,0,0,1,1.671-37.155l88.633-39.82a43.378,43.378,0,0,1,39.033,1.756l38.6,21.7a14.893,14.893,0,0,1-1.2,26.567l-69.711,31.319A107.829,107.829,0,0,1,3929.947,4573.439Z" transform="translate(-3734.942 -4283.847)"/><g transform="translate(2.311 11.396)"><g transform="translate(-3532.664 -82.626)"><rect class="b" width="5.679" height="21.742" rx="2.839" transform="matrix(0.993, 0.121, -0.121, 0.993, 3775.326, 193.717)"/><rect class="c" width="5.679" height="21.742" rx="2.839" transform="translate(3749.447 192.552)"/><path class="d" d="M3827.781,608.184c-4.019,7.771-26.188,12.508-26.522,10.944-10.44-56.475,19.552-89.521,26.468-70.15a69.774,69.774,0,0,1,3.345,16.613C3832.756,583.556,3830.06,603.779,3827.781,608.184Z" transform="translate(-104.03 -300.408)"/><path class="e" d="M3834.268,650.614c-4.019,7.771-26.188,12.508-26.522,10.944-2.71-38.762,14.437-60.456,14.437-60.456,5.409-6.182,10.818-1.691,15.377,6.919C3839.243,625.986,3836.547,646.208,3834.268,650.614Z" transform="translate(-110.517 -342.838)"/><path class="d" d="M3968.138,441.324a249.854,249.854,0,0,1-2.692,26.635q-.349,2.187-.741,4.36a151.211,151.211,0,0,1-6.369,24.373c-4.584,12.642-11.019,23.333-19.882,29.842a34.529,34.529,0,0,1-20.959,6.79c-39.835,0-48.594-50.468-50.642-92-2.227-45.185,20.365-65.652,50.642-65.652a56.855,56.855,0,0,1,17.151,2.5c18.835,5.956,32.053,22.675,33.509,51.686Q3968.428,435.3,3968.138,441.324Z" transform="translate(-156.371 -170.583)"/><path class="f" d="M4201.78,450.322a242.739,242.739,0,0,1-3.433,31c-6.363.83-10.052-5.269-6.788-22.673,8.919-47.536-10.037-65.9-22.984-71.347C4189.765,394,4203.559,414.2,4201.78,450.322Z" transform="translate(-390.013 -179.58)"/><path class="g" d="M4236.785,603.336a249.919,249.919,0,0,1-2.692,26.635q-.349,2.187-.741,4.36a151.21,151.21,0,0,1-6.369,24.373c-4.527,2.077-9.8,3.058-11.668-1.27-.065-.151-.129-.312-.185-.477-2.319-6.72-2.375-44.184,6.311-64.427,4.231-9.862,11.164-10,15.361-.658Q4237.076,597.313,4236.785,603.336Z" transform="translate(-425.018 -332.594)"/><path class="e" d="M4211.143,703.55q-.349,2.187-.741,4.36a151.21,151.21,0,0,1-6.37,24.373c-4.583,12.642-11.019,23.333-19.881,29.842,2.244-7.843,5.244-19.364,8.213-31.113,5.678-22.472,11.25-45.775,11.25-45.775,1.817-6.666,3.434-6.383,4.747-2.032C4209.579,687.246,4210.535,694.8,4211.143,703.55Z" transform="translate(-402.068 -406.173)"/><g transform="translate(3721.954 281.431)"><path class="h" d="M3969.409,744.96c-1.895,16.88-7.983,37.168-23.727,35.979-17.028-1.286-23.538-23.818-26.836-42.254-3.74-20.12,7.505-27.294,24.172-24.776S3971.621,726.657,3969.409,744.96Z" transform="translate(-3918.126 -713.425)"/></g><path class="d" d="M4287.18,665.593c-.449,1.526-20.61-5.308-23.65-13.429-2.3-6.145-2.775-40.412,5.328-58.928C4277.008,574.614,4301.908,610.375,4287.18,665.593Z" transform="translate(-462.374 -335.121)"/><g transform="translate(3721.208 213.313)"><g transform="translate(7.052)"><path class="i" d="M3947.494,423.309a1.469,1.469,0,0,1-1.1-2.439,37.524,37.524,0,0,1,11.018-8.651,1.469,1.469,0,0,1,1.346,2.612,34.6,34.6,0,0,0-10.157,7.978A1.466,1.466,0,0,1,3947.494,423.309Z" transform="translate(-3946.026 -412.056)"/></g><g transform="translate(0 11.715)"><path class="i" d="M3916.3,471.853a1.47,1.47,0,0,1-1.29-2.17,45.955,45.955,0,0,1,3.277-5.194,1.469,1.469,0,0,1,2.372,1.735,43,43,0,0,0-3.066,4.861A1.469,1.469,0,0,1,3916.3,471.853Z" transform="translate(-3914.828 -463.887)"/></g></g><g class="j" transform="translate(3742.6 205.519)"><path class="k" d="M4027.017,534.376a.327.327,0,0,1-.179-.053c-7.53-4.855-12.674-15.52-15.29-31.7-2.2-13.581-2.193-28.47-2-38.488.36-18.691,1.95-34.863,4.725-48.068,2.223-10.58,5.209-19.294,8.874-25.9,6.29-11.335,12.35-12.543,12.6-12.589a.331.331,0,0,1,.118.652c-.1.021-6.095,1.288-12.212,12.382-3.617,6.56-6.565,15.214-8.764,25.721-2.75,13.139-4.325,29.227-4.684,47.814-.193,9.992-.2,24.84,1.991,38.369,2.584,15.986,7.629,26.5,14.995,31.248a.331.331,0,0,1-.18.61Z" transform="translate(-4009.47 -377.574)"/></g><g transform="translate(3740.376 244.466)"><path class="l" d="M4001.283,549.923c2.3.553,6.529,1.511,10.094,1.994a1.338,1.338,0,0,1,1.054,1.852c-.877,2.041-2.843,5.194-6.534,4.853-4.171-.386-5.842-4.464-6.251-7.185A1.342,1.342,0,0,1,4001.283,549.923Z" transform="translate(-3999.631 -549.885)"/></g><g transform="translate(3733.173 225.68)"><rect class="l" width="9.471" height="3.608" rx="1.804" transform="translate(5.42 0.718) rotate(101.475)"/><rect class="l" width="9.471" height="3.608" rx="1.804" transform="translate(34.884 4.927) rotate(101.475)"/></g></g></g><g transform="translate(143.811 86.55)"><path class="m" d="M3703.678,155.273h-26.34a12.712,12.712,0,0,0-12.675,12.675V193.71a12.712,12.712,0,0,0,12.675,12.674h11.39l7.915,8.406a1.193,1.193,0,0,0,2.062-.79l.178-7.615h4.794a12.712,12.712,0,0,0,12.675-12.674V167.948A12.712,12.712,0,0,0,3703.678,155.273Z" transform="translate(-3664.664 -155.273)"/><path class="i" d="M412.758,369.928v2.241h15.688v11.206h2.241V372.169a2.24,2.24,0,0,0-2.241-2.241Zm-2.243,4.482a2.238,2.238,0,0,0-2.23,2.241l-.011,16.808,4.484-4.482h11.2a2.247,2.247,0,0,0,2.241-2.241V376.65a2.247,2.247,0,0,0-2.241-2.241Zm0,2.241h13.447v10.086H411.829l-.656.656-.658.656Z" transform="translate(-392.635 -355.848)"/></g><g transform="translate(-30.702 208.418)"><g transform="translate(71.347 67.696)"><path class="n" d="M114.371,879.857a.322.322,0,0,0,0,.609l4.1,2.38a1.159,1.159,0,0,0,1.051,0l4.122-2.38a.322.322,0,0,0,0-.609l-4.1-2.38a1.157,1.157,0,0,0-1.051,0Z" transform="translate(-114.151 -877.351)"/></g><g transform="translate(66.051 74.102)"><path class="n" d="M79.173,921.2a.178.178,0,0,0,0,.337l2.263,1.315a.64.64,0,0,0,.581,0l2.278-1.315a.178.178,0,0,0,0-.337l-2.263-1.315a.641.641,0,0,0-.581,0Z" transform="translate(-79.051 -919.81)"/></g><g transform="translate(118.746 79.464)"><path class="n" d="M428.449,956.734a.178.178,0,0,0,0,.336l2.263,1.315a.639.639,0,0,0,.581,0l2.278-1.315a.178.178,0,0,0,0-.336l-2.263-1.315a.639.639,0,0,0-.581,0Z" transform="translate(-428.328 -955.349)"/></g><g transform="translate(87.498 76.364)"><path class="n" d="M221.327,936.188a.178.178,0,0,0,0,.336l2.263,1.315a.64.64,0,0,0,.581,0l2.278-1.315a.178.178,0,0,0,0-.336l-2.263-1.315a.64.64,0,0,0-.581,0Z" transform="translate(-221.205 -934.803)"/></g><g transform="translate(137.552 1)"><g transform="translate(0 2.366)"><path class="i" d="M365.719,16.684l-.2,83.548,91.19,52.649.2-83.548Z" transform="translate(-365.514 -16.684)"/></g><g transform="translate(91.19 53.737)"><path class="o" d="M969.951,442.012l2.2-1.278.2-83.548-2.2,1.278Z" transform="translate(-969.951 -357.186)"/></g><g transform="translate(0.204 1.088)"><path class="p" d="M458.059,62.141l2.2-1.278L369.068,8.214l-2.2,1.278Z" transform="translate(-366.869 -8.214)"/></g><g transform="translate(64.823 35.568)"><g transform="translate(18.178 18.401)"><path class="q" d="M917.614,358.986c-1.07-.618-1.94-.122-1.943,1.108a4.253,4.253,0,0,0,1.931,3.343c1.07.618,1.939.122,1.942-1.107A4.254,4.254,0,0,0,917.614,358.986Z" transform="translate(-915.671 -358.72)"/></g><g transform="translate(15.612 8.892)"><g class="r"><path class="s" d="M949.825,313.86l-1.1-.638a1.671,1.671,0,0,1,.485.43,2.782,2.782,0,0,1,.484,1.7,5.679,5.679,0,0,1-.27,1.674l1.1.637a5.657,5.657,0,0,0,.269-1.671c0-.05,0-.1,0-.148,0-.026,0-.051,0-.078,0-.051-.006-.1-.011-.151s-.011-.1-.017-.151v0l-.01-.061c-.006-.044-.014-.084-.022-.125a.088.088,0,0,0,0-.009c-.011-.055-.021-.108-.036-.159s-.028-.1-.044-.151c0,0,0,0,0-.006-.013-.041-.027-.079-.041-.118a2.722,2.722,0,0,0-.112-.253c-.014-.026-.028-.052-.042-.075-.033-.056-.067-.111-.1-.162l-.006-.009c-.019-.025-.038-.05-.058-.073a1.42,1.42,0,0,0-.12-.133.17.17,0,0,0-.028-.028.62.62,0,0,0-.045-.044l-.049-.041a1.142,1.142,0,0,0-.1-.076h0a1.025,1.025,0,0,0-.106-.069Z" transform="translate(-941.174 -310.578)"/><path class="s" d="M917.561,365.193l1.028.6.072.041c.031.019.064.036.1.053s.067.031.1.045l.006,0a1.578,1.578,0,0,0,.2.064,1.078,1.078,0,0,0,.122.026c.036.008.07.013.106.017.019,0,.039,0,.058.006s.062,0,.1.006a2.686,2.686,0,0,0,1.211-.26c.122-.055.116-.059,0-.006a4.463,4.463,0,0,0-.624-.886c-.034.022-.068.042-.1.062a2.773,2.773,0,0,1-1.75.435A1.652,1.652,0,0,1,917.561,365.193Z" transform="translate(-914.71 -354.46)"/><path class="t" d="M903.847,296.405a3.666,3.666,0,0,1,3.7-.359l1.1.639a3.667,3.667,0,0,0-3.7.359,11.444,11.444,0,0,0-5.184,8.98,3.637,3.637,0,0,0,1.519,3.333l-1.1-.639a3.638,3.638,0,0,1-1.519-3.333A11.443,11.443,0,0,1,903.847,296.405Z" transform="translate(-898.663 -295.694)"/><g transform="translate(1.099 0.64)"><path class="u" d="M911.134,300.644c.059-.034.117-.065.174-.1s.092-.048.138-.072l.153-.076.153-.069c.052-.023.1-.044.151-.064s.1-.041.15-.059a4.429,4.429,0,0,1,.441-.14c.1-.027.192-.048.286-.065q.07-.014.14-.023a1.294,1.294,0,0,1,.131-.017.031.031,0,0,1,.015,0l.092-.009c.034,0,.069-.006.1-.006.07-.006.137-.008.2-.008a2.883,2.883,0,0,1,.351.02l.016,0a.019.019,0,0,1,.009,0l.02,0c.048.006.1.013.142.022h.011c.051.009.1.02.15.033l.022.006s0,0,0,0c.058.015.112.031.168.05s.1.033.144.051c.026.011.052.02.075.033s.061.027.091.041l.026.014h0c.022.009.042.02.063.031l.044.025.028.015a3.641,3.641,0,0,1,1.518,3.334,9.544,9.544,0,0,1-.757,3.56l-1.392-.8a5.661,5.661,0,0,0,.268-1.671c0-.05,0-.1,0-.148,0-.026,0-.051,0-.078,0-.051-.006-.1-.011-.151s-.011-.1-.017-.151v0l-.01-.061c-.006-.044-.014-.084-.022-.125,0,0,0-.006,0-.009-.011-.055-.022-.108-.036-.159s-.028-.1-.044-.151c0,0,0,0,0-.006-.013-.041-.027-.08-.041-.119q-.052-.133-.112-.253c-.014-.027-.028-.051-.042-.075-.033-.056-.067-.111-.1-.162l-.006-.009c-.019-.025-.037-.05-.058-.073a1.411,1.411,0,0,0-.12-.133.164.164,0,0,0-.028-.028c-.014-.016-.03-.03-.045-.044a.6.6,0,0,0-.048-.041,1.128,1.128,0,0,0-.1-.077h0a1.07,1.07,0,0,0-.106-.069h0a1.659,1.659,0,0,0-.613-.208,2.8,2.8,0,0,0-1.749.437,7.306,7.306,0,0,0-3.309,5.731,2.8,2.8,0,0,0,.48,1.7,1.66,1.66,0,0,0,.418.393,1.262,1.262,0,0,0,.169.094c.033.017.067.031.1.045l.006,0a1.619,1.619,0,0,0,.195.064,1.142,1.142,0,0,0,.122.026c.036.008.07.013.106.017.019,0,.039,0,.058.006s.062,0,.095.006a2.672,2.672,0,0,0,1.208-.267c.119-.053.125-.048,0,.006a3.861,3.861,0,0,1,.5,1.785c0,.039,0,.078,0,.116l-.119.07a3.664,3.664,0,0,1-3.7.359l-.055-.033-.061-.039c-.036-.023-.072-.047-.106-.073s-.053-.039-.079-.061a2.3,2.3,0,0,1-.273-.253c-.021-.02-.039-.041-.057-.061-.036-.039-.068-.08-.1-.122a.922.922,0,0,1-.058-.075c-.034-.047-.069-.1-.1-.145-.012-.019-.025-.039-.036-.058-.025-.038-.048-.078-.07-.117s-.055-.1-.079-.153c-.013-.022-.022-.044-.033-.067-.022-.047-.042-.094-.062-.142-.011-.025-.02-.05-.031-.075-.03-.073-.056-.15-.081-.229-.011-.034-.022-.069-.033-.1,0-.017-.011-.034-.015-.053-.014-.05-.028-.1-.039-.153s-.019-.075-.027-.114-.017-.079-.025-.12c-.012-.07-.025-.142-.036-.214,0-.027-.007-.055-.01-.083-.008-.051-.014-.106-.019-.159,0-.036-.008-.073-.009-.111-.006-.059-.011-.12-.014-.182,0-.041,0-.08,0-.122,0-.07,0-.142,0-.215A11.447,11.447,0,0,1,911.134,300.644Z" transform="translate(-905.95 -299.934)"/></g></g></g><g transform="translate(2.566 9.509)"><path class="q" d="M814.13,300.047c-1.069-.618-1.94-.122-1.944,1.108a4.255,4.255,0,0,0,1.931,3.343c1.07.617,1.939.122,1.942-1.107A4.254,4.254,0,0,0,814.13,300.047Z" transform="translate(-812.187 -299.781)"/></g><g class="r"><path class="s" d="M846.341,254.921l-1.1-.638a1.67,1.67,0,0,1,.485.431,2.782,2.782,0,0,1,.484,1.7,5.677,5.677,0,0,1-.27,1.674l1.1.637a5.656,5.656,0,0,0,.268-1.671c0-.05,0-.1,0-.148,0-.027,0-.052,0-.078,0-.052-.006-.1-.011-.151s-.011-.1-.017-.151v0l-.009-.061c-.006-.044-.014-.084-.022-.125,0,0,0-.006,0-.009-.011-.055-.022-.108-.036-.159s-.028-.1-.044-.151c0,0,0,0,0-.006-.012-.041-.027-.079-.04-.119a2.63,2.63,0,0,0-.112-.253c-.014-.026-.028-.051-.042-.075-.033-.056-.068-.111-.1-.162a.077.077,0,0,1-.006-.009c-.019-.025-.038-.05-.058-.073a1.345,1.345,0,0,0-.12-.133.153.153,0,0,0-.028-.028c-.014-.016-.03-.03-.045-.044l-.049-.041a1.18,1.18,0,0,0-.1-.076l0,0a1.1,1.1,0,0,0-.106-.069Z" transform="translate(-837.69 -251.639)"/><path class="s" d="M814.077,306.255l1.028.6.072.041c.031.019.064.036.1.053s.067.031.1.045a.01.01,0,0,0,.006,0,1.59,1.59,0,0,0,.195.064,1.139,1.139,0,0,0,.122.026c.036.008.07.012.106.017.018,0,.039,0,.058.006l.1.006a2.683,2.683,0,0,0,1.21-.261c.122-.055.116-.059,0-.006a4.485,4.485,0,0,0-.624-.886l-.1.062a2.775,2.775,0,0,1-1.75.435A1.65,1.65,0,0,1,814.077,306.255Z" transform="translate(-811.226 -295.522)"/><path class="t" d="M800.363,237.467a3.667,3.667,0,0,1,3.7-.36l1.1.639a3.667,3.667,0,0,0-3.7.359,11.444,11.444,0,0,0-5.184,8.98,3.637,3.637,0,0,0,1.519,3.333l-1.1-.639a3.638,3.638,0,0,1-1.519-3.333A11.443,11.443,0,0,1,800.363,237.467Z" transform="translate(-795.179 -236.755)"/><g transform="translate(1.099 0.64)"><path class="u" d="M807.649,241.706c.059-.034.117-.065.175-.1s.092-.048.137-.072l.153-.076.153-.069c.052-.023.1-.044.151-.064s.1-.041.15-.059a4.366,4.366,0,0,1,.442-.14q.145-.04.286-.066c.047-.009.093-.017.14-.023a1.215,1.215,0,0,1,.131-.017.03.03,0,0,1,.016,0l.092-.009c.034,0,.068-.006.1-.006.07-.006.137-.008.2-.008a2.875,2.875,0,0,1,.351.02h.016a.017.017,0,0,1,.009,0l.021,0c.048.006.095.012.142.022l.009,0h0q.077.014.15.033l.022.006s0,0,0,0c.058.016.112.031.168.05s.1.033.144.051c.026.011.051.02.075.033s.061.027.09.041l.027.014h0c.022.01.042.02.062.031l.044.025.028.016a3.641,3.641,0,0,1,1.518,3.334,9.548,9.548,0,0,1-.756,3.56l-1.392-.8a5.651,5.651,0,0,0,.268-1.671c0-.05,0-.1,0-.148,0-.027,0-.052,0-.078,0-.052-.006-.1-.011-.151s-.011-.1-.017-.151v0l-.009-.061c-.006-.044-.014-.084-.022-.125,0,0,0-.006,0-.009-.011-.055-.022-.108-.036-.159s-.028-.1-.043-.151c0,0,0,0,0-.006-.012-.041-.026-.079-.041-.119a2.658,2.658,0,0,0-.112-.253c-.014-.026-.028-.052-.042-.075-.033-.056-.067-.111-.1-.162l-.006-.009c-.019-.025-.038-.05-.058-.073a1.377,1.377,0,0,0-.12-.133.178.178,0,0,0-.028-.028.6.6,0,0,0-.045-.044c-.016-.014-.031-.028-.048-.041a1.129,1.129,0,0,0-.1-.076l0,0a1.129,1.129,0,0,0-.106-.069l0,0a1.657,1.657,0,0,0-.613-.208,2.8,2.8,0,0,0-1.749.437,7.305,7.305,0,0,0-3.309,5.731,2.793,2.793,0,0,0,.48,1.7,1.655,1.655,0,0,0,.418.393,1.264,1.264,0,0,0,.168.094c.033.017.067.031.1.045l.006,0a1.626,1.626,0,0,0,.195.064,1.157,1.157,0,0,0,.122.027c.036.008.07.012.106.017.019,0,.039,0,.058.006s.062,0,.1.006a2.67,2.67,0,0,0,1.207-.267c.119-.053.125-.048,0,.006a3.861,3.861,0,0,1,.5,1.785c0,.039,0,.078,0,.116l-.119.07a3.664,3.664,0,0,1-3.7.359l-.054-.033c-.02-.012-.041-.025-.061-.039-.036-.023-.072-.047-.106-.073s-.053-.039-.079-.061a2.292,2.292,0,0,1-.273-.253c-.02-.02-.039-.041-.056-.061-.036-.039-.069-.08-.1-.122a.907.907,0,0,1-.058-.075c-.034-.047-.069-.1-.1-.145-.012-.019-.025-.039-.036-.058-.025-.037-.048-.078-.07-.117s-.055-.1-.08-.153c-.012-.022-.022-.044-.033-.067-.022-.047-.042-.094-.062-.142-.011-.025-.02-.05-.031-.075-.03-.073-.056-.15-.081-.229l-.033-.1c0-.017-.011-.034-.015-.053-.014-.05-.028-.1-.039-.153s-.019-.075-.026-.114-.017-.08-.025-.12c-.013-.07-.025-.142-.036-.214,0-.027-.008-.055-.011-.083-.008-.052-.014-.106-.019-.159,0-.036-.008-.073-.009-.111-.006-.059-.011-.12-.014-.182,0-.041,0-.08,0-.122,0-.07,0-.142,0-.215A11.446,11.446,0,0,1,807.649,241.706Z" transform="translate(-802.465 -240.996)"/></g></g></g><g transform="translate(32.063 16.848)"><g transform="translate(18.178 18.401)"><path class="q" d="M700.471,234.9c-1.069-.618-1.94-.122-1.943,1.108a4.254,4.254,0,0,0,1.931,3.343c1.07.618,1.939.122,1.943-1.107A4.254,4.254,0,0,0,700.471,234.9Z" transform="translate(-698.528 -234.638)"/></g><g transform="translate(15.612 8.892)"><g class="r"><path class="s" d="M732.682,189.778l-1.1-.638a1.669,1.669,0,0,1,.485.431,2.784,2.784,0,0,1,.484,1.7,5.671,5.671,0,0,1-.27,1.674l1.1.636a5.658,5.658,0,0,0,.268-1.671c0-.05,0-.1,0-.148,0-.027,0-.052,0-.078,0-.052-.006-.1-.011-.151s-.011-.1-.017-.151v0l-.009-.061c-.006-.044-.014-.084-.021-.125a.052.052,0,0,1,0-.009c-.011-.055-.022-.108-.036-.159s-.028-.1-.044-.151a.031.031,0,0,0,0-.006c-.013-.04-.027-.079-.041-.118q-.052-.133-.112-.253c-.014-.026-.028-.051-.042-.075a1.929,1.929,0,0,0-.1-.162.112.112,0,0,0-.006-.009c-.018-.025-.037-.05-.058-.073a1.293,1.293,0,0,0-.12-.133.158.158,0,0,0-.028-.028.584.584,0,0,0-.045-.044c-.015-.014-.031-.027-.048-.041a1.156,1.156,0,0,0-.1-.076l0,0a1.116,1.116,0,0,0-.106-.069Z" transform="translate(-724.031 -186.496)"/><path class="s" d="M700.419,241.112l1.028.6.072.041c.031.019.064.036.1.053s.067.031.1.045l.006,0a1.572,1.572,0,0,0,.2.064,1.176,1.176,0,0,0,.122.027c.036.008.07.013.106.017.019,0,.039,0,.058.006l.1.006a2.683,2.683,0,0,0,1.211-.26c.122-.055.115-.059,0-.006a4.476,4.476,0,0,0-.624-.886c-.034.022-.069.042-.1.062a2.774,2.774,0,0,1-1.75.435A1.648,1.648,0,0,1,700.419,241.112Z" transform="translate(-697.568 -230.379)"/><path class="t" d="M686.7,172.324a3.666,3.666,0,0,1,3.7-.36l1.1.639a3.666,3.666,0,0,0-3.7.359,11.443,11.443,0,0,0-5.184,8.979,3.638,3.638,0,0,0,1.519,3.333l-1.1-.639a3.639,3.639,0,0,1-1.519-3.333A11.443,11.443,0,0,1,686.7,172.324Z" transform="translate(-681.52 -171.612)"/><g transform="translate(1.099 0.64)"><path class="u" d="M693.991,176.563c.06-.034.117-.066.175-.1s.092-.048.137-.072l.153-.076.153-.069c.051-.023.1-.044.151-.064s.1-.041.15-.059a4.377,4.377,0,0,1,.442-.14c.1-.027.192-.048.286-.066.047-.009.093-.017.14-.023a1.246,1.246,0,0,1,.131-.017.031.031,0,0,1,.016,0l.092-.009c.034,0,.069-.006.1-.006.07-.006.137-.008.2-.008a2.869,2.869,0,0,1,.351.02l.015,0h.01l.02,0c.048.006.1.012.142.022l.009,0h0c.052.009.1.02.15.033l.022.006s0,0,.005,0c.057.016.112.031.168.05s.1.033.143.051c.027.011.052.02.075.033s.061.027.091.041l.027.014,0,0c.021.009.042.02.062.031l.044.025.028.016a3.642,3.642,0,0,1,1.518,3.334,9.548,9.548,0,0,1-.757,3.56l-1.391-.8a5.664,5.664,0,0,0,.268-1.671c0-.05,0-.1,0-.148,0-.027,0-.052,0-.078,0-.052-.006-.1-.011-.151s-.011-.1-.017-.151v0l-.009-.061c-.006-.044-.014-.084-.022-.125,0,0,0-.006,0-.009-.011-.055-.022-.108-.036-.159s-.028-.1-.044-.151a.038.038,0,0,0,0-.006c-.013-.04-.026-.08-.041-.118a2.757,2.757,0,0,0-.112-.253c-.014-.026-.028-.051-.042-.075a1.893,1.893,0,0,0-.1-.162l-.006-.009c-.019-.025-.037-.05-.058-.073a1.393,1.393,0,0,0-.12-.133.153.153,0,0,0-.028-.028.544.544,0,0,0-.045-.044.583.583,0,0,0-.048-.041,1.151,1.151,0,0,0-.1-.076l0,0a1.135,1.135,0,0,0-.106-.069l0,0a1.658,1.658,0,0,0-.613-.207,2.8,2.8,0,0,0-1.749.437,7.307,7.307,0,0,0-3.309,5.732,2.8,2.8,0,0,0,.48,1.7,1.67,1.67,0,0,0,.418.393,1.277,1.277,0,0,0,.169.094c.033.017.067.031.1.045l.006,0a1.588,1.588,0,0,0,.2.064,1.14,1.14,0,0,0,.122.027c.036.008.07.013.106.017.019,0,.039,0,.058.006l.1.006a2.668,2.668,0,0,0,1.207-.267c.119-.053.125-.048,0,.006a3.86,3.86,0,0,1,.5,1.785c0,.039,0,.078,0,.116l-.118.07a3.664,3.664,0,0,1-3.7.359l-.055-.033c-.02-.012-.041-.025-.061-.039-.036-.023-.072-.047-.106-.073s-.053-.039-.08-.061a2.322,2.322,0,0,1-.273-.253c-.02-.02-.039-.041-.056-.061-.036-.039-.069-.08-.1-.122a.936.936,0,0,1-.058-.075c-.034-.047-.069-.1-.1-.145-.013-.019-.025-.039-.036-.058-.025-.037-.048-.078-.07-.117s-.055-.1-.079-.153c-.013-.022-.022-.044-.033-.067-.022-.047-.042-.094-.062-.142-.011-.025-.02-.05-.031-.075-.029-.073-.056-.15-.081-.229l-.033-.1c0-.017-.011-.034-.015-.053-.014-.05-.028-.1-.039-.153s-.019-.075-.027-.114-.017-.08-.025-.12c-.013-.07-.025-.142-.036-.214,0-.027-.008-.055-.011-.083-.008-.051-.014-.106-.019-.159,0-.036-.008-.073-.009-.111q-.009-.089-.014-.183c0-.041,0-.079,0-.122q0-.105,0-.215A11.446,11.446,0,0,1,693.991,176.563Z" transform="translate(-688.807 -175.853)"/></g></g></g><g transform="translate(2.566 9.509)"><path class="q" d="M596.987,175.965c-1.07-.618-1.94-.122-1.944,1.108a4.254,4.254,0,0,0,1.931,3.343c1.07.618,1.939.122,1.942-1.107A4.254,4.254,0,0,0,596.987,175.965Z" transform="translate(-595.044 -175.7)"/></g><g class="r"><path class="s" d="M629.2,130.839l-1.1-.638a1.669,1.669,0,0,1,.485.431,2.783,2.783,0,0,1,.484,1.7A5.689,5.689,0,0,1,628.8,134l1.1.636a5.66,5.66,0,0,0,.268-1.671c0-.05,0-.1,0-.148,0-.027,0-.051,0-.078,0-.051-.006-.1-.011-.151s-.011-.1-.017-.151v0l-.01-.061c-.006-.044-.014-.084-.022-.125a.085.085,0,0,0,0-.009c-.011-.055-.021-.108-.036-.159s-.028-.1-.044-.151c0,0,0,0,0-.006-.013-.041-.026-.08-.041-.119a2.687,2.687,0,0,0-.112-.253c-.014-.027-.028-.052-.042-.075-.033-.056-.067-.111-.1-.162l-.006-.009c-.019-.025-.038-.05-.058-.073a1.356,1.356,0,0,0-.12-.133.155.155,0,0,0-.028-.028.625.625,0,0,0-.045-.044c-.016-.014-.031-.027-.049-.04a1.144,1.144,0,0,0-.1-.076l0,0a1.146,1.146,0,0,0-.106-.069Z" transform="translate(-620.547 -127.557)"/><path class="s" d="M596.934,182.173l1.028.6.072.041c.031.019.064.036.1.053s.067.031.1.045l.006,0a1.558,1.558,0,0,0,.2.064,1.113,1.113,0,0,0,.122.027c.036.008.07.013.106.017.019,0,.039,0,.058.006s.062,0,.1.006a2.685,2.685,0,0,0,1.211-.26c.122-.055.116-.059,0-.006a4.491,4.491,0,0,0-.624-.886l-.1.062a2.775,2.775,0,0,1-1.75.435A1.657,1.657,0,0,1,596.934,182.173Z" transform="translate(-594.083 -171.44)"/><path class="t" d="M583.22,113.385a3.666,3.666,0,0,1,3.7-.36l1.1.639a3.666,3.666,0,0,0-3.7.36A11.444,11.444,0,0,0,579.135,123a3.639,3.639,0,0,0,1.519,3.333l-1.1-.639a3.639,3.639,0,0,1-1.519-3.333A11.444,11.444,0,0,1,583.22,113.385Z" transform="translate(-578.036 -112.673)"/><g transform="translate(1.099 0.64)"><path class="u" d="M590.507,117.624c.059-.034.117-.066.175-.1s.092-.048.137-.072l.153-.077.153-.069c.051-.023.1-.044.151-.064s.1-.041.15-.059a4.355,4.355,0,0,1,.441-.14c.1-.027.192-.048.286-.065q.07-.014.14-.024a1.285,1.285,0,0,1,.131-.017.029.029,0,0,1,.015,0l.092-.009c.034,0,.069-.006.1-.006.07-.006.137-.008.2-.008a2.867,2.867,0,0,1,.351.02l.016,0h.009l.021,0c.048.006.095.012.142.022h.011q.077.014.15.033l.022.006s0,0,0,0c.058.016.112.031.169.05s.1.033.143.051c.026.011.052.02.075.033s.061.026.09.041l.026.014,0,0c.022.009.042.02.062.031l.044.025.028.016a3.642,3.642,0,0,1,1.518,3.334,9.548,9.548,0,0,1-.757,3.56l-1.391-.8a5.658,5.658,0,0,0,.268-1.671c0-.05,0-.1,0-.148,0-.027,0-.051,0-.078,0-.051-.006-.1-.011-.151s-.011-.1-.017-.151v0l-.009-.061c-.006-.044-.014-.084-.022-.125a.073.073,0,0,0,0-.009c-.011-.055-.022-.108-.036-.159s-.028-.1-.044-.151c0,0,0,0,0-.006-.013-.041-.026-.08-.041-.119a2.672,2.672,0,0,0-.112-.253c-.014-.027-.028-.052-.042-.075-.033-.056-.067-.111-.1-.162,0,0,0-.006-.006-.009-.019-.025-.037-.05-.058-.073a1.392,1.392,0,0,0-.12-.133.162.162,0,0,0-.028-.028.582.582,0,0,0-.045-.044.575.575,0,0,0-.048-.04,1.107,1.107,0,0,0-.1-.077l0,0a1.091,1.091,0,0,0-.106-.069l0,0a1.662,1.662,0,0,0-.613-.207,2.8,2.8,0,0,0-1.749.437,7.306,7.306,0,0,0-3.309,5.731,2.794,2.794,0,0,0,.481,1.7,1.662,1.662,0,0,0,.418.393,1.24,1.24,0,0,0,.169.094c.033.017.067.031.1.045l.006,0a1.569,1.569,0,0,0,.195.064,1.136,1.136,0,0,0,.122.027c.036.008.07.013.106.017.018,0,.039,0,.058.006s.062,0,.1.006a2.669,2.669,0,0,0,1.208-.267c.119-.053.125-.048,0,.006a3.863,3.863,0,0,1,.5,1.785c0,.039,0,.078,0,.115l-.119.07a3.664,3.664,0,0,1-3.7.359l-.055-.033c-.02-.012-.041-.025-.061-.039-.036-.023-.072-.047-.106-.073s-.053-.039-.08-.061a2.309,2.309,0,0,1-.273-.253c-.02-.02-.039-.04-.056-.061-.036-.039-.069-.08-.1-.122a.931.931,0,0,1-.058-.075c-.034-.047-.069-.1-.1-.145-.012-.019-.025-.039-.036-.058-.025-.037-.048-.078-.07-.117s-.055-.1-.079-.153c-.013-.022-.022-.044-.033-.067-.022-.047-.042-.094-.062-.142-.011-.025-.02-.05-.031-.075-.03-.073-.056-.15-.081-.229l-.033-.1c0-.017-.011-.034-.016-.053-.014-.05-.028-.1-.039-.153s-.019-.075-.027-.114-.017-.08-.025-.12c-.013-.07-.025-.142-.036-.214,0-.027-.008-.055-.011-.083-.008-.051-.014-.106-.019-.159,0-.036-.008-.073-.009-.111-.006-.059-.011-.12-.014-.183,0-.04,0-.08,0-.122q0-.105,0-.215A11.445,11.445,0,0,1,590.507,117.624Z" transform="translate(-585.323 -116.914)"/></g></g></g><g transform="translate(3.047)"><g transform="translate(18.178 18.401)"><path class="q" d="M508.145,123.231c-1.07-.618-1.94-.122-1.943,1.108a4.254,4.254,0,0,0,1.931,3.343c1.07.618,1.939.122,1.943-1.107A4.254,4.254,0,0,0,508.145,123.231Z" transform="translate(-506.202 -122.965)"/></g><g transform="translate(15.612 8.892)"><g class="r"><path class="s" d="M540.355,78.1l-1.1-.638a1.668,1.668,0,0,1,.485.431,2.785,2.785,0,0,1,.484,1.7,5.674,5.674,0,0,1-.27,1.674l1.1.636a5.645,5.645,0,0,0,.268-1.671c0-.05,0-.1,0-.148,0-.026,0-.051,0-.078,0-.051-.006-.1-.011-.151s-.011-.1-.017-.151v0l-.01-.061c-.006-.044-.014-.084-.022-.125,0,0,0-.006,0-.009-.011-.055-.022-.108-.036-.159s-.028-.1-.044-.151c0,0,0,0,0-.006-.012-.041-.026-.08-.041-.119a2.735,2.735,0,0,0-.112-.253c-.014-.027-.028-.051-.042-.075a1.924,1.924,0,0,0-.1-.162l-.006-.009c-.019-.025-.038-.05-.058-.073a1.369,1.369,0,0,0-.12-.133.169.169,0,0,0-.028-.028c-.014-.016-.03-.03-.045-.044s-.031-.027-.048-.041a1.085,1.085,0,0,0-.1-.076l0,0a1.15,1.15,0,0,0-.106-.069Z" transform="translate(-531.704 -74.822)"/><path class="s" d="M508.092,129.438l1.028.6.072.04c.031.019.064.036.1.053s.067.031.1.045l.006,0a1.576,1.576,0,0,0,.195.064,1.135,1.135,0,0,0,.122.026c.036.008.07.013.106.017.019,0,.039,0,.058.006s.062,0,.1.006a2.686,2.686,0,0,0,1.211-.26c.122-.055.115-.059,0-.006a4.47,4.47,0,0,0-.624-.886l-.1.062a2.775,2.775,0,0,1-1.75.435A1.655,1.655,0,0,1,508.092,129.438Z" transform="translate(-505.241 -118.705)"/><path class="t" d="M494.378,60.65a3.667,3.667,0,0,1,3.7-.36l1.1.639a3.667,3.667,0,0,0-3.7.36,11.444,11.444,0,0,0-5.184,8.98,3.638,3.638,0,0,0,1.519,3.333l-1.1-.639a3.638,3.638,0,0,1-1.519-3.333A11.444,11.444,0,0,1,494.378,60.65Z" transform="translate(-489.194 -59.939)"/><g transform="translate(1.099 0.64)"><path class="u" d="M501.664,64.889c.059-.034.117-.065.175-.1s.092-.048.137-.072l.153-.076.153-.069c.051-.023.1-.044.151-.064s.1-.041.15-.059a4.362,4.362,0,0,1,.442-.14q.145-.04.285-.065.07-.014.141-.023a1.259,1.259,0,0,1,.131-.017.033.033,0,0,1,.016,0l.092-.01c.034,0,.069-.006.1-.006.07-.006.137-.008.2-.008a2.87,2.87,0,0,1,.351.02l.016,0a.019.019,0,0,1,.009,0l.02,0c.048.006.1.013.142.022l.009,0h0c.052.009.1.02.15.033l.022.006s0,0,0,0c.058.016.112.031.168.05s.1.033.144.051a.789.789,0,0,1,.075.033c.031.013.061.027.091.041l.026.014,0,0c.022.009.042.02.063.031l.044.025.028.016a3.641,3.641,0,0,1,1.518,3.334,9.54,9.54,0,0,1-.757,3.56l-1.391-.8A5.663,5.663,0,0,0,505,68.949c0-.05,0-.1,0-.148,0-.026,0-.051,0-.078,0-.051-.006-.1-.011-.151s-.011-.1-.017-.151v0l-.009-.061c-.006-.044-.014-.084-.022-.125,0,0,0-.006,0-.009-.011-.055-.022-.108-.036-.159s-.028-.1-.044-.151c0,0,0,0,0-.006-.013-.041-.027-.08-.041-.119a2.655,2.655,0,0,0-.112-.253q-.021-.04-.042-.075a1.908,1.908,0,0,0-.1-.162l-.006-.009c-.019-.025-.037-.05-.058-.073a1.392,1.392,0,0,0-.12-.133.166.166,0,0,0-.028-.028c-.014-.016-.03-.03-.045-.044a.591.591,0,0,0-.048-.041,1.161,1.161,0,0,0-.1-.076l0,0a1.111,1.111,0,0,0-.106-.069l0,0a1.659,1.659,0,0,0-.613-.208,2.8,2.8,0,0,0-1.749.437,7.307,7.307,0,0,0-3.309,5.731,2.8,2.8,0,0,0,.481,1.7,1.665,1.665,0,0,0,.418.393,1.294,1.294,0,0,0,.169.094c.033.017.067.031.1.045l.006,0a1.584,1.584,0,0,0,.2.064,1.142,1.142,0,0,0,.122.026c.036.008.07.012.106.017.019,0,.039,0,.058.006s.062,0,.1.006a2.671,2.671,0,0,0,1.207-.267c.118-.053.125-.048,0,.006a3.857,3.857,0,0,1,.5,1.785c0,.039,0,.078,0,.115l-.118.07a3.664,3.664,0,0,1-3.7.359l-.055-.033-.061-.039c-.036-.023-.072-.047-.106-.073s-.053-.039-.08-.061a2.341,2.341,0,0,1-.273-.253c-.02-.02-.039-.041-.056-.061-.036-.039-.069-.08-.1-.122-.02-.023-.039-.048-.058-.075-.034-.047-.069-.1-.1-.145-.012-.019-.025-.039-.036-.058-.025-.037-.049-.078-.07-.117s-.055-.1-.08-.153c-.013-.022-.022-.044-.033-.067-.022-.047-.042-.094-.063-.142-.011-.025-.02-.05-.031-.075-.03-.073-.056-.15-.081-.229-.011-.034-.022-.069-.033-.1,0-.017-.011-.034-.016-.053-.014-.05-.028-.1-.039-.153s-.019-.075-.026-.114-.017-.08-.025-.12c-.012-.07-.025-.142-.036-.214,0-.027-.008-.055-.011-.083-.008-.051-.014-.106-.019-.159,0-.036-.008-.073-.009-.111-.006-.059-.011-.12-.014-.182,0-.041,0-.08,0-.122,0-.07,0-.142,0-.215A11.446,11.446,0,0,1,501.664,64.889Z" transform="translate(-496.48 -64.179)"/></g></g></g><g transform="translate(2.566 9.509)"><path class="q" d="M404.661,64.292c-1.07-.618-1.94-.122-1.944,1.108a4.255,4.255,0,0,0,1.931,3.343c1.07.618,1.939.122,1.943-1.107A4.254,4.254,0,0,0,404.661,64.292Z" transform="translate(-402.717 -64.026)"/></g><g class="r"><path class="s" d="M436.871,19.166l-1.1-.638a1.672,1.672,0,0,1,.485.431,2.783,2.783,0,0,1,.483,1.7,5.669,5.669,0,0,1-.27,1.674l1.1.637a5.651,5.651,0,0,0,.268-1.671c0-.05,0-.1,0-.148,0-.026,0-.051,0-.078,0-.051-.006-.1-.011-.151s-.011-.1-.017-.151v0L437.8,20.7c-.006-.044-.014-.084-.022-.125a.089.089,0,0,1,0-.009c-.011-.055-.022-.108-.036-.159s-.028-.1-.044-.151c0,0,0,0,0-.006-.013-.041-.027-.08-.041-.119a2.656,2.656,0,0,0-.112-.253c-.014-.027-.028-.051-.042-.075-.033-.056-.067-.111-.1-.162l-.006-.009c-.019-.025-.037-.05-.058-.073a1.342,1.342,0,0,0-.12-.133.147.147,0,0,0-.028-.028.575.575,0,0,0-.045-.044l-.048-.041a1.129,1.129,0,0,0-.1-.076l0,0a1.162,1.162,0,0,0-.106-.069Z" transform="translate(-428.22 -15.884)"/><path class="s" d="M404.608,70.5l1.028.6.072.041c.031.019.064.036.1.053s.067.031.1.045l.006,0a1.608,1.608,0,0,0,.2.064,1.152,1.152,0,0,0,.122.026c.036.008.07.012.106.017.019,0,.039,0,.058.006s.062,0,.1.006A2.686,2.686,0,0,0,407.7,71.1c.122-.055.115-.059,0-.006a4.476,4.476,0,0,0-.624-.886c-.034.022-.069.042-.1.062a2.774,2.774,0,0,1-1.75.435A1.652,1.652,0,0,1,404.608,70.5Z" transform="translate(-401.757 -59.767)"/><path class="t" d="M390.894,1.711a3.667,3.667,0,0,1,3.7-.36l1.1.639a3.666,3.666,0,0,0-3.7.359,11.443,11.443,0,0,0-5.184,8.98,3.638,3.638,0,0,0,1.519,3.333l-1.1-.639a3.638,3.638,0,0,1-1.519-3.333A11.444,11.444,0,0,1,390.894,1.711Z" transform="translate(-385.71 -1)"/><g transform="translate(1.099 0.64)"><path class="u" d="M398.18,5.95c.059-.034.117-.065.175-.1s.092-.048.137-.072l.153-.076.153-.069c.051-.023.1-.044.151-.064s.1-.041.15-.059a4.4,4.4,0,0,1,.441-.14q.145-.04.285-.065c.047-.009.094-.017.141-.023a1.251,1.251,0,0,1,.131-.017.032.032,0,0,1,.016,0l.092-.009c.034,0,.069-.006.1-.006.07-.006.137-.008.2-.008a2.87,2.87,0,0,1,.351.02l.016,0a.019.019,0,0,1,.009,0l.02,0c.048.006.1.013.142.022l.009,0h0q.077.014.15.033l.022.006s0,0,0,0c.058.016.112.031.169.05s.1.033.143.051c.027.011.052.02.075.033s.061.027.091.041l.027.014,0,0c.022.01.042.02.062.031l.044.025.028.016A3.641,3.641,0,0,1,403.4,8.925a9.545,9.545,0,0,1-.757,3.56l-1.392-.8a5.649,5.649,0,0,0,.268-1.671c0-.05,0-.1,0-.148,0-.026,0-.051,0-.078,0-.051-.006-.1-.011-.151s-.011-.1-.017-.151v0l-.01-.061c-.006-.044-.014-.084-.022-.125,0,0,0-.006,0-.009-.011-.055-.022-.108-.036-.159s-.028-.1-.044-.151c0,0,0,0,0-.006-.013-.041-.027-.08-.041-.119a2.68,2.68,0,0,0-.112-.253c-.014-.027-.028-.051-.042-.075-.033-.056-.067-.111-.1-.162l-.006-.009c-.019-.025-.037-.05-.058-.073a1.346,1.346,0,0,0-.12-.133.147.147,0,0,0-.028-.028.943.943,0,0,0-.094-.084,1.086,1.086,0,0,0-.1-.076l0,0a1.149,1.149,0,0,0-.106-.069l0,0a1.656,1.656,0,0,0-.613-.207,2.8,2.8,0,0,0-1.749.437,7.307,7.307,0,0,0-3.309,5.731,2.8,2.8,0,0,0,.481,1.7,1.662,1.662,0,0,0,.418.393,1.283,1.283,0,0,0,.168.094c.033.017.067.031.1.045l.006,0a1.6,1.6,0,0,0,.2.064,1.134,1.134,0,0,0,.122.026c.036.008.07.013.106.017.019,0,.039,0,.058.006s.062,0,.1.006a2.67,2.67,0,0,0,1.207-.267c.118-.053.125-.048,0,.006a3.859,3.859,0,0,1,.5,1.785c0,.039,0,.078,0,.115l-.119.07a3.664,3.664,0,0,1-3.7.359l-.054-.033-.061-.039c-.036-.023-.072-.047-.106-.073s-.053-.039-.08-.061a2.319,2.319,0,0,1-.273-.253c-.02-.02-.039-.041-.056-.061-.036-.039-.069-.08-.1-.122-.02-.023-.039-.048-.058-.075-.034-.047-.069-.1-.1-.145-.012-.019-.025-.039-.036-.058-.025-.037-.048-.078-.07-.117s-.055-.1-.08-.153c-.013-.022-.022-.044-.033-.067-.022-.047-.042-.094-.062-.142-.011-.025-.02-.05-.031-.075-.03-.073-.056-.15-.081-.229-.011-.034-.022-.069-.033-.1,0-.017-.011-.034-.016-.053-.014-.05-.028-.1-.039-.153s-.019-.075-.027-.114-.017-.08-.025-.12c-.013-.07-.025-.142-.036-.214,0-.027-.008-.055-.011-.083-.008-.051-.014-.106-.019-.159,0-.036-.008-.073-.009-.111q-.009-.089-.014-.183c0-.041,0-.08,0-.122q0-.105,0-.215A11.447,11.447,0,0,1,398.18,5.95Z" transform="translate(-392.996 -5.24)"/></g></g></g><g transform="translate(6.414 24.197)"><g transform="translate(0.306 4.233)"><path class="i" d="M487.907,234.3l-.146,51.618-77.7-44.862.146-51.618Z" transform="translate(-410.058 -189.443)"/></g><path class="q" d="M470.892,221.983l-.552-.319-14.988-8.654-.551-.318-14.989-8.654-.552-.319-14.988-8.654-.551-.318-15.541-8.973-.037,12.9,0,.635-.035,12.27,0,.633-.035,12.271,0,.635-.037,12.9L423.571,247l.551.318,14.988,8.654.552.319,14.989,8.654.551.318,14.989,8.654.552.319,15.54,8.972.037-12.9,0-.634.035-12.271,0-.634.035-12.27,0-.635.037-12.9Zm-47.319,24.383-14.989-8.654.035-12.27,14.989,8.654Zm.037-12.9-14.989-8.654.035-12.271,14.989,8.654Zm.037-12.9L408.657,211.9l.035-12.27,14.988,8.654Zm.036-12.9L408.694,199l.035-12.271,14.989,8.654Zm15.43,47.686-14.989-8.654.035-12.27,14.989,8.654Zm.037-12.9-14.989-8.654.035-12.271,14.989,8.654Zm.037-12.9L424.2,220.875l.035-12.27,14.989,8.654Zm.037-12.9-14.989-8.654.035-12.271,14.988,8.654Zm15.431,47.687-14.989-8.654.035-12.27,14.989,8.654Zm.037-12.905L439.7,242.751l.035-12.271,14.989,8.654Zm.037-12.9-14.989-8.654.035-12.27,14.989,8.654Zm.037-12.9-14.989-8.654.035-12.271,14.989,8.654Zm15.43,47.686L455.2,264.628l.035-12.27,14.988,8.654Zm.037-12.9-14.989-8.654.035-12.271,14.988,8.654Zm.037-12.9-14.989-8.654.035-12.27L470.3,235.2Zm.036-12.9-14.989-8.654.035-12.27,14.989,8.654Zm15.43,47.686L470.746,273.6l.035-12.27,14.988,8.653Zm.037-12.905L470.782,260.7l.035-12.271,14.988,8.653Zm.036-12.9-14.987-8.653.035-12.27,14.988,8.653Zm.037-12.9-14.988-8.653.035-12.271,14.988,8.653Z" transform="translate(-408.03 -182.095)"/><g transform="translate(1.483)"><path class="q" d="M430.022,167.89a2.577,2.577,0,0,1,1.17,2.025c0,.744-.529,1.043-1.177.67l-10.987-6.344a2.576,2.576,0,0,1-1.17-2.024c0-.745.529-1.045,1.177-.671Z" transform="translate(-417.858 -161.386)"/></g><g transform="translate(17.024 8.972)"><path class="q" d="M533.031,227.36a2.576,2.576,0,0,1,1.169,2.025c0,.744-.529,1.043-1.177.67l-10.987-6.344a2.574,2.574,0,0,1-1.169-2.024c0-.745.529-1.045,1.176-.671Z" transform="translate(-520.868 -220.855)"/></g><g transform="translate(63.644 35.889)"><path class="q" d="M842.048,405.774a2.575,2.575,0,0,1,1.168,2.025c0,.744-.528,1.044-1.176.67l-10.987-6.344a2.576,2.576,0,0,1-1.169-2.024c0-.745.53-1.044,1.177-.671Z" transform="translate(-829.884 -399.269)"/></g><path class="q" d="M739.044,346.3a2.577,2.577,0,0,1,1.169,2.025c0,.744-.529,1.043-1.177.669l-10.988-6.344a2.574,2.574,0,0,1-1.168-2.024c0-.745.528-1.045,1.176-.671Z" transform="translate(-678.776 -312.881)"/><path class="q" d="M636.035,286.832a2.576,2.576,0,0,1,1.169,2.025c0,.744-.529,1.044-1.177.67l-10.987-6.344a2.576,2.576,0,0,1-1.169-2.024c0-.745.529-1.045,1.177-.671Z" transform="translate(-591.308 -262.383)"/></g></g><g transform="translate(209.144 114.615)"><path class="v" d="M852.106,758.219l-6.894-3.98a.839.839,0,0,0-.846-.083l-1.771,1.029a.839.839,0,0,1,.846.083l6.894,3.98a2.611,2.611,0,0,1,1.185,2.052l-.038,13.453a.832.832,0,0,1-.347.762l1.771-1.029a.831.831,0,0,0,.347-.762l.038-13.453A2.611,2.611,0,0,0,852.106,758.219Z" transform="translate(-842.21 -754.076)"/><g transform="translate(0 1.029)"><path class="w" d="M848.169,765.042a2.612,2.612,0,0,1,1.185,2.052l-.038,13.453c0,.754-.536,1.058-1.193.679l-6.894-3.98a2.612,2.612,0,0,1-1.185-2.052l.038-13.454c0-.754.536-1.059,1.193-.68Z" transform="translate(-840.044 -760.899)"/></g></g><g transform="translate(204.333 117.981)"><path class="x" d="M833.294,780.543l-6.894-3.98a1.008,1.008,0,0,0-.9-.113l-2.042.873a1.006,1.006,0,0,1,.9.114l6.894,3.98a2.105,2.105,0,0,1,1,1.947l-1.82,12.425a.835.835,0,0,1-.474.689L832,795.6a.834.834,0,0,0,.474-.689l1.82-12.425A2.1,2.1,0,0,0,833.294,780.543Z" transform="translate(-821.15 -776.388)"/><g transform="translate(0 0.873)"><path class="y" d="M818.257,786.327a2.1,2.1,0,0,1,1,1.948l-1.82,12.425c-.1.7-.717.954-1.373.575l-6.894-3.98a2.106,2.106,0,0,1-1-1.947l1.82-12.425c.1-.7.717-.954,1.373-.575Z" transform="translate(-808.155 -782.172)"/></g></g><g transform="translate(192.582 60.134)"><path class="x" d="M743.236,398.319l-9.053-5.235a.647.647,0,0,0-.654-.064l-1.37.8a.648.648,0,0,1,.654.064l9.053,5.235a2.022,2.022,0,0,1,.916,1.589l-.017,6.135a.645.645,0,0,1-.268.59l1.37-.8a.644.644,0,0,0,.268-.59l.017-6.135A2.025,2.025,0,0,0,743.236,398.319Z" transform="translate(-731.873 -392.957)"/><g transform="translate(0 0.796)"><path class="y" d="M740.26,403.586a2.02,2.02,0,0,1,.916,1.587l-.017,6.126c0,.583-.415.818-.923.525l-9.053-5.227a2.02,2.02,0,0,1-.916-1.587l.017-6.126c0-.583.414-.819.922-.525Z" transform="translate(-730.267 -398.234)"/></g><g transform="translate(1.39 3.875)"><g transform="translate(0.009)"><path class="i" d="M741.983,419.922a.661.661,0,0,1,.3.52c0,.191-.136.269-.3.173l-2.144-1.237a.664.664,0,0,1-.3-.521c0-.191.136-.269.3-.172Z" transform="translate(-739.537 -418.643)"/></g><g transform="translate(0 3.079)"><path class="i" d="M743.934,441.49a.663.663,0,0,1,.3.521c0,.191-.136.268-.3.172l-4.153-2.4a.662.662,0,0,1-.3-.521c0-.191.136-.268.3-.172Z" transform="translate(-739.479 -439.051)"/></g><g transform="translate(3.358 1.934)"><path class="i" d="M765.524,433.513a.662.662,0,0,1,.3.521c0,.191-.136.268-.3.172l-3.483-2.011a.663.663,0,0,1-.3-.521c0-.192.136-.269.3-.172Z" transform="translate(-761.738 -431.46)"/></g><g transform="translate(0.004 1.539)"><path class="i" d="M747.313,433.219a.662.662,0,0,1,.3.521c0,.191-.136.269-.3.172l-7.5-4.332a.663.663,0,0,1-.3-.52c0-.192.136-.269.3-.172Z" transform="translate(-739.508 -428.846)"/></g></g></g><g transform="translate(161.25 67.422)"><g transform="translate(0)"><path class="x" d="M535.557,446.629l-9.053-5.235a.648.648,0,0,0-.654-.064l-1.37.8a.648.648,0,0,1,.655.064l9.053,5.235a2.022,2.022,0,0,1,.917,1.589l-.017,6.135a.645.645,0,0,1-.268.59l1.37-.8a.645.645,0,0,0,.268-.59l.017-6.135A2.023,2.023,0,0,0,535.557,446.629Z" transform="translate(-524.195 -441.268)"/><g transform="translate(0 0.796)"><path class="y" d="M532.581,451.9a2.019,2.019,0,0,1,.916,1.587l-.017,6.125c0,.583-.415.818-.923.525l-9.053-5.227a2.019,2.019,0,0,1-.916-1.587l.018-6.126c0-.583.414-.818.922-.525Z" transform="translate(-522.588 -446.544)"/></g></g><g transform="translate(1.39 3.875)"><g transform="translate(0.009)"><path class="i" d="M534.305,468.232a.662.662,0,0,1,.3.52c0,.191-.136.269-.3.173l-2.144-1.238a.662.662,0,0,1-.3-.521c0-.192.136-.269.3-.172Z" transform="translate(-531.859 -466.953)"/></g><g transform="translate(0 3.079)"><path class="i" d="M536.257,489.8a.663.663,0,0,1,.3.521c0,.192-.136.269-.3.172l-4.153-2.4a.661.661,0,0,1-.3-.521c0-.191.136-.269.3-.172Z" transform="translate(-531.801 -487.361)"/></g><g transform="translate(3.358 1.934)"><path class="i" d="M557.845,481.823a.663.663,0,0,1,.3.521c0,.191-.136.268-.3.172l-3.483-2.011a.663.663,0,0,1-.3-.521c0-.191.136-.268.3-.172Z" transform="translate(-554.059 -479.771)"/></g><g transform="translate(0.004 1.539)"><path class="i" d="M539.635,481.53a.661.661,0,0,1,.3.52c0,.191-.136.268-.3.172l-7.5-4.331a.662.662,0,0,1-.3-.521c0-.191.136-.269.3-.172Z" transform="translate(-531.83 -477.157)"/></g></g></g><g transform="translate(145.333 33.074)"><g transform="translate(0)"><path class="z" d="M430.052,218.961,421,213.726a.648.648,0,0,0-.654-.064l-1.37.8a.648.648,0,0,1,.654.064l9.053,5.235a2.024,2.024,0,0,1,.916,1.589l-.017,6.135a.644.644,0,0,1-.268.59l1.37-.8a.645.645,0,0,0,.268-.59l.017-6.135A2.023,2.023,0,0,0,430.052,218.961Z" transform="translate(-418.69 -213.599)"/><g transform="translate(0 0.796)"><path class="aa" d="M427.077,224.228a2.02,2.02,0,0,1,.916,1.587l-.017,6.126c0,.583-.415.818-.922.525L418,227.239a2.019,2.019,0,0,1-.916-1.587l.017-6.125c0-.583.414-.819.922-.525Z" transform="translate(-417.084 -218.875)"/></g></g><g transform="translate(1.39 3.875)"><g transform="translate(0.009)"><path class="i" d="M428.8,240.564a.661.661,0,0,1,.3.52c0,.191-.136.269-.3.173l-2.144-1.238a.662.662,0,0,1-.3-.52c0-.191.136-.269.3-.172Z" transform="translate(-426.354 -239.285)"/></g><g transform="translate(0 3.079)"><path class="i" d="M430.752,262.131a.663.663,0,0,1,.3.521c0,.192-.136.269-.3.172l-4.153-2.4a.662.662,0,0,1-.3-.521c0-.191.136-.269.3-.172Z" transform="translate(-426.296 -259.692)"/></g><g transform="translate(3.358 1.934)"><path class="i" d="M452.34,254.155a.662.662,0,0,1,.3.52c0,.191-.136.268-.3.172l-3.483-2.011a.664.664,0,0,1-.3-.521c0-.192.136-.269.3-.172Z" transform="translate(-448.554 -252.102)"/></g><g transform="translate(0.004 1.539)"><path class="i" d="M434.13,253.861a.662.662,0,0,1,.3.52c0,.192-.136.269-.3.172l-7.5-4.331a.662.662,0,0,1-.3-.52c0-.192.136-.269.3-.172Z" transform="translate(-426.325 -249.488)"/></g></g></g><g transform="translate(207.913 81.664)"><path class="z" d="M844.853,541.029l-9.053-5.235a.648.648,0,0,0-.654-.064l-1.37.8a.648.648,0,0,1,.655.064l9.053,5.235a2.022,2.022,0,0,1,.917,1.589l-.017,6.135a.645.645,0,0,1-.268.59l1.369-.8a.645.645,0,0,0,.268-.59l.017-6.135A2.024,2.024,0,0,0,844.853,541.029Z" transform="translate(-833.491 -535.667)"/><g transform="translate(0 0.796)"><path class="aa" d="M841.878,546.3a2.019,2.019,0,0,1,.916,1.587l-.018,6.126c0,.583-.414.818-.922.525l-9.053-5.227a2.02,2.02,0,0,1-.916-1.587l.017-6.126c0-.583.414-.818.923-.525Z" transform="translate(-831.885 -540.943)"/></g><g transform="translate(1.39 3.875)"><g transform="translate(0.009)"><path class="i" d="M843.6,562.631a.662.662,0,0,1,.3.52c0,.191-.136.268-.3.172l-2.144-1.238a.663.663,0,0,1-.3-.521c0-.192.136-.268.3-.173Z" transform="translate(-841.155 -561.352)"/></g><g transform="translate(0 3.079)"><path class="i" d="M845.552,584.2a.663.663,0,0,1,.3.521c0,.191-.136.269-.3.173l-4.153-2.4a.662.662,0,0,1-.3-.521c0-.191.136-.269.3-.172Z" transform="translate(-841.097 -581.76)"/></g><g transform="translate(3.358 1.934)"><path class="i" d="M867.141,576.223a.662.662,0,0,1,.3.521c0,.191-.136.268-.3.172l-3.483-2.011a.662.662,0,0,1-.3-.521c0-.191.136-.268.3-.172Z" transform="translate(-863.355 -574.17)"/></g><g transform="translate(0.004 1.539)"><path class="i" d="M848.931,575.929a.662.662,0,0,1,.3.521c0,.191-.136.268-.3.172l-7.5-4.332a.662.662,0,0,1-.3-.521c0-.191.136-.268.3-.172Z" transform="translate(-841.126 -571.556)"/></g></g></g><g transform="translate(107.5 62.224)"><g class="ab" transform="translate(0 1.717)"><path d="M362.926,866.4a3.163,3.163,0,0,1-1.558-.385l-6.693-3.864a1.505,1.505,0,0,1-.01-2.74l11.292-6.563a3.341,3.341,0,0,1,3.116,0l6.693,3.864a1.5,1.5,0,0,1,.009,2.74l-11.293,6.563A3.145,3.145,0,0,1,362.926,866.4Z" transform="translate(-353.788 -852.464)"/></g><g transform="translate(0.489)"><path class="x" d="M378.422,874.608l-11.632,6.76a2.611,2.611,0,0,1-2.369,0l-6.894-3.98a.838.838,0,0,1-.495-.691l-.006,2.049a.838.838,0,0,0,.495.691l6.894,3.98a2.612,2.612,0,0,0,2.369,0l11.632-6.76a.832.832,0,0,0,.487-.681l.006-2.049A.832.832,0,0,1,378.422,874.608Z" transform="translate(-357.026 -868.972)"/><g transform="translate(0.006)"><path class="y" d="M378.447,845.346a.725.725,0,0,1,.008,1.372l-11.632,6.759a2.609,2.609,0,0,1-2.369,0l-6.894-3.98a.725.725,0,0,1-.008-1.372l11.632-6.76a2.612,2.612,0,0,1,2.369,0Z" transform="translate(-357.064 -841.081)"/></g></g><g transform="translate(4.268 2.26)"><g transform="translate(0 2.662)"><path class="i" d="M382.251,876.575a.253.253,0,0,0,0,.478.912.912,0,0,0,.827,0l4.8-2.768a.253.253,0,0,0,0-.479.91.91,0,0,0-.827,0Z" transform="translate(-382.078 -873.707)"/></g><g transform="translate(0.91 1.065)"><path class="i" d="M388.284,869.183a.253.253,0,0,0,0,.479.91.91,0,0,0,.827,0l10.328-5.963a.253.253,0,0,0,0-.479.911.911,0,0,0-.827,0Z" transform="translate(-388.111 -863.12)"/></g><g transform="translate(7.353 2.13)"><path class="i" d="M430.99,873.578a.253.253,0,0,0,0,.479.911.911,0,0,0,.827,0l5.717-3.3a.253.253,0,0,0,0-.479.911.911,0,0,0-.827,0Z" transform="translate(-430.817 -870.178)"/></g><g transform="translate(6.455)"><path class="i" d="M425.036,857.865a.253.253,0,0,0,0,.479.91.91,0,0,0,.827,0l2.951-1.7a.253.253,0,0,0,0-.479.912.912,0,0,0-.827,0Z" transform="translate(-424.864 -856.062)"/></g></g></g><g transform="translate(85.216 59.46)"><g class="ab" transform="translate(0 1.717)"><path d="M215.219,848.078a3.162,3.162,0,0,1-1.558-.385l-6.693-3.864a1.5,1.5,0,0,1-.01-2.74l11.293-6.563a3.341,3.341,0,0,1,3.115,0l6.693,3.864a1.5,1.5,0,0,1,.009,2.74l-11.293,6.563A3.145,3.145,0,0,1,215.219,848.078Z" transform="translate(-206.081 -834.14)"/></g><g transform="translate(0.489)"><path class="v" d="M230.715,856.284l-11.632,6.76a2.611,2.611,0,0,1-2.369,0l-6.894-3.98a.838.838,0,0,1-.494-.691l-.006,2.049a.838.838,0,0,0,.495.691l6.894,3.98a2.61,2.61,0,0,0,2.369,0l11.632-6.76a.833.833,0,0,0,.487-.682l.006-2.049A.832.832,0,0,1,230.715,856.284Z" transform="translate(-209.319 -850.648)"/><g transform="translate(0.006)"><path class="w" d="M230.739,827.021a.725.725,0,0,1,.008,1.372l-11.632,6.76a2.611,2.611,0,0,1-2.369,0l-6.894-3.98a.725.725,0,0,1-.008-1.372l11.632-6.76a2.612,2.612,0,0,1,2.369,0Z" transform="translate(-209.357 -822.757)"/></g></g><g transform="translate(4.268 2.26)"><g transform="translate(0 2.662)"><path class="i" d="M234.544,858.25a.253.253,0,0,0,0,.479.91.91,0,0,0,.827,0l4.8-2.768a.253.253,0,0,0,0-.479.912.912,0,0,0-.827,0Z" transform="translate(-234.372 -855.382)"/></g><g transform="translate(6.455)"><path class="i" d="M277.329,839.541a.253.253,0,0,0,0,.478.911.911,0,0,0,.827,0l2.951-1.7a.253.253,0,0,0,0-.479.911.911,0,0,0-.827,0Z" transform="translate(-277.157 -837.738)"/></g></g></g><g transform="translate(95.523 74.191)"><path class="z" d="M295.822,956.656l-6.849,3.98a2.611,2.611,0,0,1-2.369,0l-11.708-6.76a.838.838,0,0,1-.494-.691l-.006,2.049a.838.838,0,0,0,.495.691l11.708,6.76a2.611,2.611,0,0,0,2.369,0l6.849-3.98a.832.832,0,0,0,.487-.681l.006-2.049A.832.832,0,0,1,295.822,956.656Z" transform="translate(-274.395 -948.24)"/><g transform="translate(0.006)"><path class="aa" d="M295.847,927.447a.725.725,0,0,1,.008,1.372l-6.849,3.98a2.612,2.612,0,0,1-2.369,0l-11.708-6.76a.725.725,0,0,1-.008-1.372l6.849-3.98a2.61,2.61,0,0,1,2.369,0Z" transform="translate(-274.433 -920.403)"/></g></g></g><g transform="translate(1.589)"><g transform="matrix(1, 0.017, -0.017, 1, 16.434, -39.995)"><g transform="translate(-206.375 85.212)"><path class="ac" d="M532.776,235.819l-25.7,21.626-8.853,0-27.3-14.436,27.751-23.174Z" transform="translate(7.228 7.226)"/><path class="ad" d="M505.449,245.754l7.611-15.7-43.765-7.584v8.85Z" transform="translate(0 18.92)"/><path class="ae" d="M533.2,232.65l-27.752,23.171-36.154-14.433,27.75-23.173Z" transform="translate(0)"/><path class="af" d="M475.93,252.888v-8.853l27.752-23.171v8.85Z" transform="translate(29.518 11.786)"/></g><g transform="translate(-237.375 113.556)"><path class="ac" d="M532.776,235.819l-25.7,21.626-8.853,0-27.3-14.436,27.751-23.174Z" transform="translate(7.228 7.226)"/><path class="ad" d="M505.449,245.754l7.611-15.7-43.765-7.584v8.85Z" transform="translate(0 18.92)"/><path class="ae" d="M533.2,232.65l-27.752,23.171-36.154-14.433,27.75-23.173Z" transform="translate(0)"/><path class="af" d="M475.93,252.888v-8.853l27.752-23.171v8.85Z" transform="translate(29.518 11.786)"/></g><g transform="translate(-206.375 76.326)"><path class="ad" d="M505.449,245.754l7.611-15.7-43.765-7.584v8.85Z" transform="translate(0 18.92)"/><path class="ae" d="M533.2,232.65l-27.752,23.171-36.154-14.433,27.75-23.173Z" transform="translate(0)"/><path class="af" d="M475.93,252.888v-8.853l27.752-23.171v8.85Z" transform="translate(29.518 11.786)"/></g><g transform="translate(-238.328 104.602)"><path class="ad" d="M505.449,245.754l7.611-15.7-43.765-7.584v8.85Z" transform="translate(0 18.92)"/><path class="ae" d="M533.2,232.65l-27.752,23.171-36.154-14.433,27.75-23.173Z" transform="translate(0)"/><path class="af" d="M475.93,252.888v-8.853l27.752-23.171v8.85Z" transform="translate(29.518 11.786)"/><path class="ag" d="M524.281,230.635,503.5,247.61l-31.108-12.419,20.782-16.977Z" transform="translate(4.46 2.624)"/></g><g transform="translate(-204.23 65.402)"><path class="ad" d="M505.449,245.754l7.611-15.7-43.765-7.584v8.85Z" transform="translate(0 18.92)"/><path class="ae" d="M533.2,232.65l-27.752,23.171-36.154-14.433,27.75-23.173Z" transform="translate(0)"/><path class="af" d="M475.93,252.888v-8.853l27.752-23.171v8.85Z" transform="translate(29.518 11.786)"/><path class="ag" d="M524.281,230.635,503.5,247.61l-31.108-12.419,20.782-16.977Z" transform="translate(4.46 2.624)"/></g></g><g transform="translate(89.292 -55.273)"><path class="ah" d="M809.739,901.5l2.606,1.5,1.619-.935,2.816,1.624,2.817,1.627-1.622.934,4.18,2.414-6.823,3.938H801.776c-.032.121-.063.242-.092.366-.058.205-.119.408-.166.619l-8.2,4.735h0c-.434.074-.869.147-1.3.224s-.864.15-1.293.229q-1.042-.119-2.082-.229t-2.074-.224l-2.3-.619q-1.165-.312-2.311-.619c-.642-.281-1.277-.563-1.908-.842s-1.285-.563-1.914-.842c-.342-.282-.677-.566-1.005-.842s-.682-.566-1.016-.848c.053-.2.113-.408.174-.613s.1-.413.161-.619h0l8.2-4.735c.429-.076.855-.155,1.29-.226s.864-.153,1.3-.226l1.05.113.411-.24.124-.021-2.037-1.177h-8.31l-3.785-2.19v-1.105l3.2-1.843,4.33-2.5,3.448-1.99H800.8Z" transform="translate(-577.4 -586.697)"/><g transform="translate(194.89 294.512)"><path class="ai" d="M785.965,911.9l.948-8.5-.948-6.633h-1.916l-.632,6.948.632,8.182Z" transform="translate(-758.052 -880.505)"/><path class="aj" d="M778.074,908.681l14.694,8.485v-15.13l-1.722-2.877-12.972-5.609Z" transform="translate(-766.771 -885.767)"/><path class="ak" d="M788.966,911.37l-1.188-.685-7.364-4.251-.264-1.294-.3-1.481.3-1.13.3-1.133.831-.471.823-.482,1.131.3,1.133.3,1.13,1.007,1.125,1,.831,1.437.324.562v-8.27l1.188,3.064v7.382l.467.414.438.762v3.491Z" transform="translate(-763.874 -880.494)"/><path class="al" d="M781.746,910.526v-8.7l-3.2-8.28-.767,5.385.767,9.747Z" transform="translate(-767.247 -885.767)"/><path class="am" d="M778.479,900.223l-3.786-2.186V896.93l3.2-1.845,4.33-2.5,3.449-1.992,21.355,12.33-6.822,3.939h-1.916l-14.694-8.485-3.2,1.846Z" transform="translate(-772.29 -890.594)"/><path class="an" d="M787.082,892.555l2.6,1.5,5.633,3.251-2.269,1.311q-1.942,1.121-3.891,2.245l-1.99.724-7.865-4.543q1.943-1.121,3.89-2.245Z" transform="translate(-764.763 -887.392)"/><path class="am" d="M789.088,901.436l-2.709,1.016-2.711,1.016-2.851-1.648q-1.425-.821-2.851-1.645l1.761-1.564,1.758-1.566q1.943-1.121,3.89-2.245l3.888-2.245,3.8,2.2,3.8,2.2q-1.947,1.121-3.891,2.245T789.088,901.436Z" transform="translate(-766.946 -887.392)"/><path class="am" d="M789.089,899.117l-5.419,2.032-5.7-3.292,3.52-3.129Z" transform="translate(-766.946 -883.846)"/><path class="am" d="M787.39,901.449l-9.207-5.316v-1.106l1.19-.686,11.123,6.422-1.189.686Z" transform="translate(-766.593 -884.476)"/><path class="ao" d="M786.088,900.535l-7.447-4.3,1.641-1.531h0l8.443,4.875Z" transform="translate(-765.846 -883.883)"/><path class="ap" d="M783.476,897.246l-6.512-3.761,3.977-2.3,6.512,3.76Z" transform="translate(-768.584 -889.623)"/><path class="aq" d="M776.72,895.262l-.6-.348-.607-.35v-.991l.607-.349.606-.35h2.533l.6.35.607.349v.991l-.607.35-.6.348H776.72Z" transform="translate(-770.958 -886.873)"/><path class="ar" d="M785.041,897.677l-.649-.374-.65-.376v-1.06l.65-.375.649-.375h3.473l.649.375.651.375v1.06l-.651.376-.649.374h-3.473Z" transform="translate(-757.52 -883.211)"/><path class="am" d="M785.31,899.271l-5.632-3.252,7.779-4.491,5.633,3.252Z" transform="translate(-764.153 -889.069)"/><path class="as" d="M784.587,895.516l-2.9-1.675,3.265-1.885h.408l2.9,1.675L785,895.516Z" transform="translate(-760.87 -888.371)"/><path class="at" d="M784.587,895.361l-2.9-1.675,3.265-1.886,2.9,1.675Z" transform="translate(-760.87 -888.624)"/><path class="au" d="M784.587,894.192l-2.9-1.675v.408l2.9,1.675Z" transform="translate(-760.87 -887.454)"/><path class="av" d="M782.79,894.323l3.268-1.886v.409l-3.266,1.885Z" transform="translate(-759.073 -887.585)"/><path class="aw" d="M787.442,896.486l-4.844,2.8-.7-.407-.7-.406-.7-.407-.705-.406-.7-.408-.7-.405,3.437-3.613Z" transform="translate(-766.283 -886.284)"/><path class="ax" d="M790.092,892.763l.986,3.842L783.3,901.1l-1.781-1.03.8-2.814Z" transform="translate(-761.154 -887.054)"/><path class="al" d="M782.829,911.37l-.677-2.227.677-11.676,1.189-.686v13.9Z" transform="translate(-760.115 -880.494)"/><path class="ay" d="M778.914,909.382l.992-10.147-.992-4.984H777l-1.4,6.021,1.4,9.109Z" transform="translate(-770.81 -884.623)"/><path class="az" d="M778.914,907.312l.992-10.147-.992-1.645H777l-1.4,2.683,1.4,9.109Z" transform="translate(-770.81 -882.553)"/><path class="aj" d="M774.693,908.552v-15.13l3.786,2.186v15.13Z" transform="translate(-772.29 -885.978)"/><path class="ba" d="M774.693,906.482V894.689l3.786,2.186v11.792Z" transform="translate(-772.29 -883.908)"/><path class="al" d="M784.384,914.347v-15.13l6.822-3.939v15.131Z" transform="translate(-756.471 -882.948)"/><path class="al" d="M776.859,910.526V895.4l3.2-1.845v15.132Z" transform="translate(-768.754 -885.767)"/><path class="bb" d="M776.859,908.456V896.664l3.2-1.846v11.794Z" transform="translate(-768.754 -883.697)"/><path class="aj" d="M778.183,908.926v-13.9l9.208,5.316v13.9Z" transform="translate(-766.593 -883.365)"/><path class="bc" d="M779.333,895.287l7.447,4.3.385,1.216.171.661v3.09l-.64-.371.369.95.271.242.676,4.991-.676,3.446-7.731-4.464-.179-.866c-.134-.642-.261-1.274-.39-1.911l.195-.745-.411-1.061-.3-1.479-.3-1.479.3-1.132.3-1.132.829-.471.824-.482.413.113Z" transform="translate(-766.538 -882.933)"/><path class="aj" d="M782.254,897.423l1.266,1.122,1.265,1.121.927,1.605.925,1.6.339,1.656.339,1.656-.339,1.266-.339,1.265-.925.535-.927.535-1.265-.339-1.266-.338-1.264-1.122-1.266-1.122-.926-1.6-.926-1.6-.34-1.657-.338-1.656.338-1.266.34-1.265.926-.535.926-.535,1.266.339Z" transform="translate(-768.207 -880.554)"/><path class="aj" d="M781.92,897.615l1.129,1,1.13,1,.827,1.431.826,1.435.3,1.479.3,1.48-.3,1.129-.3,1.13-.826.478-.827.476-1.13-.3-1.129-.3-1.13-1-1.129-1-.828-1.433-.827-1.433-.3-1.479-.3-1.479.3-1.129.3-1.13.827-.478.828-.478,1.129.3Z" transform="translate(-767.872 -880.122)"/><path class="am" d="M781.375,900.012l-2.258-2,2.146-1.24.414,1.547,1.844.458Z" transform="translate(-765.069 -880.515)"/><path class="am" d="M778.258,897.777l2.261.606,2.147-1.24-2.261-.6Z" transform="translate(-766.471 -880.89)"/><path class="bd" d="M778.414,897.82l1.85.5,2.146-1.24-1.849-.5Z" transform="translate(-766.216 -880.823)"/><rect class="be" width="2.479" height="3.308" transform="matrix(0.866, -0.5, 0.5, 0.866, 16.306, 19.497)"/><path class="al" d="M781.21,902.815l-.607-2.959,2.147-1.238.607,2.958Z" transform="translate(-762.643 -877.496)"/><path class="al" d="M781.211,900.982l-.607,2.26,2.146-1.24.607-2.26Z" transform="translate(-762.642 -875.661)"/><path class="bf" d="M781.375,900.009q-.564-.5-1.129-1c-.374-.334-.755-.668-1.129-1,.1-.058.208-.119.31-.179s.208-.118.311-.182c.229.14.458.274.687.408s.455.271.687.405c.192.174.387.345.582.516s.39.342.582.516c-.15.084-.3.171-.45.261s-.3.174-.45.258Zm-1.445-2.474c.432.305.866.608,1.295.908s.863.605,1.295.905l.5-.287.5-.29-1.126-1q-.565-.5-1.129-1l-.666.382C780.375,897.28,780.154,897.409,779.931,897.535Z" transform="translate(-765.069 -880.514)"/><path class="am" d="M778.922,903.985,776,901.395l8.2-4.735,2.919,2.59-3.44,3.585Z" transform="translate(-770.156 -880.693)"/><path class="aw" d="M774.89,901.1l2.921.784,8.2-4.735-2.924-.782Z" transform="translate(-771.968 -881.178)"/><path class="bg" d="M779.975,898.77c.277.477.55.956.827,1.429s.55.958.827,1.435c.287-.169.576-.335.863-.5l.863-.5-.671-.648c-.224-.219-.448-.434-.671-.65l-.568-.545c-.187-.182-.379-.363-.569-.545-.15.084-.3.174-.45.26s-.3.174-.45.261Zm3.754,1.65c-.437-.382-.869-.771-1.305-1.156s-.869-.771-1.3-1.158l.5-.287.5-.29c.276.476.55.955.826,1.432s.55.956.826,1.432Z" transform="translate(-763.668 -879.272)"/><path class="bh" d="M779.363,907.612l-1.843-1.528,1.057-2.3,2.932-3.73,5.272-1.006.786,3.826L784.1,906.34Z" transform="translate(-767.675 -876.79)"/><path class="bi" d="M780.133,899.188v-1.227l3.089-1.88,2.331-.152v1.227Z" transform="translate(-763.41 -881.885)"/><path class="bj" d="M783.261,897.045l.409,3.074-5.7-3.292,1.07-2.22Z" transform="translate(-766.946 -884.044)"/><path class="aj" d="M783.67,899.97v-1.227l-5.7-3.292v1.227Z" transform="translate(-766.946 -882.667)"/><path class="bk" d="M782.455,896.08l.474,1.5-.736-.426v-1.227Z" transform="translate(-760.049 -881.885)"/><path class="bl" d="M778.707,905.24l-.784,2.921,8.2-4.736.786-2.921Z" transform="translate(-767.018 -874.418)"/><path class="bm" d="M777.11,902.379l.629,2.422,1.507,1.283,8.2-4.736-2.139-3.7Z" transform="translate(-768.344 -879.087)"/><g transform="translate(4.237 18.652)"><path class="bn" d="M779.42,901.074l-2.92-2.591.877-.506,2.92,2.59Z" transform="translate(-773.577 -897.195)"/><path class="am" d="M775.39,898.185l2.924.783.877-.506-2.922-.783Z" transform="translate(-775.39 -897.679)"/><path class="bo" d="M779.207,904.7l-.786-3.824.881-.508.785,3.826Z" transform="translate(-770.443 -893.291)"/><path class="bp" d="M779.207,902.328l-.786,2.922.877-.508.785-2.921Z" transform="translate(-770.44 -890.919)"/><rect class="bq" width="1.015" height="4.277" transform="matrix(0.867, -0.499, 0.499, 0.867, 5.843, 3.879)"/></g><g transform="translate(5.555 17.892)"><path class="br" d="M779.921,900.786,777,898.194l.878-.506,2.92,2.59Z" transform="translate(-774.078 -896.906)"/><path class="am" d="M775.89,897.9l2.922.782.878-.506-2.924-.782Z" transform="translate(-775.89 -897.391)"/><path class="bs" d="M779.708,904.411l-.787-3.823.881-.509.785,3.826Z" transform="translate(-770.943 -893.002)"/><path class="bt" d="M779.707,902.039l-.785,2.922.878-.507.786-2.921Z" transform="translate(-770.942 -890.63)"/><rect class="bu" width="1.015" height="4.277" transform="translate(5.843 3.879) rotate(-29.94)"/></g><g transform="translate(6.872 17.132)"><path class="bv" d="M780.42,900.5l-2.92-2.592.877-.506,2.921,2.59Z" transform="translate(-774.579 -896.617)"/><path class="am" d="M776.391,897.608l2.922.782.877-.506-2.923-.783Z" transform="translate(-776.391 -897.102)"/><path class="bw" d="M780.208,904.122l-.786-3.823.883-.509.783,3.826Z" transform="translate(-771.445 -892.713)"/><path class="bx" d="M780.208,901.75l-.785,2.923.877-.508.785-2.921Z" transform="translate(-771.442 -890.341)"/><rect class="by" width="1.016" height="4.277" transform="matrix(0.867, -0.499, 0.499, 0.867, 5.842, 3.879)"/></g><g transform="translate(8.188 16.37)"><path class="bz" d="M780.922,900.208,778,897.616l.878-.506,2.92,2.59Z" transform="translate(-775.079 -896.327)"/><path class="am" d="M776.891,897.32l2.922.783.878-.506-2.924-.784Z" transform="translate(-776.891 -896.813)"/><path class="ca" d="M780.708,903.834l-.786-3.824.881-.507.785,3.824Z" transform="translate(-771.943 -892.423)"/><path class="cb" d="M780.709,901.462l-.786,2.921.878-.506.785-2.922Z" transform="translate(-771.942 -890.052)"/><rect class="cc" width="1.015" height="4.277" transform="translate(5.843 3.88) rotate(-29.949)"/></g><path class="cd" d="M779.978,897.27l.409,3.074,5.419-2.032-.985-3.843Z" transform="translate(-763.663 -884.269)"/><path class="aj" d="M779.624,898.943l2.922,2.591,2.138,3.7.784,3.825-.784,2.921-2.138,1.235-2.922-.783-2.921-2.591-2.139-3.7-.784-3.824.784-2.923,2.139-1.234Z" transform="translate(-773.78 -878.242)"/><path class="ce" d="M778.806,899.413l1.131,1,1.132,1,.828,1.434.827,1.434.3,1.481.3,1.481-.3,1.131-.3,1.132-.827.478-.828.478-1.132-.3-1.131-.3-1.131-1-1.132-1-.828-1.434-.829-1.435-.3-1.481-.3-1.482.3-1.131.3-1.131.829-.479.828-.478,1.132.3Z" transform="translate(-772.962 -877.19)"/><path class="am" d="M781.326,905.257l0,.014-.829.478-.618.357-.208.121-1.132-.3-1.131-.3-1.131-1-1.132-1,3.824-2.208Z" transform="translate(-771.559 -872.946)"/><path class="cf" d="M782.282,909.512v0l-.114.065-.68.393-.035.019-.114.066-1.131-.3-1.131-.3-1.131-1-1.133-1-.828-1.434-.828-1.435-.3-1.481-.3-1.482.3-1.131.3-1.131h0l.115-.065.033-.021.68-.392.115-.065,1.132.3,1.131.3,1.131,1,1.132,1,.826,1.435.829,1.434.3,1.481.3,1.482-.3,1.13Z" transform="translate(-772.52 -877.189)"/><path class="cg" d="M781.839,908.627v0l-.114.065-.68.393-.035.019-.114.066-1.131-.3-1.131-.3-1.131-1-1.133-1-.828-1.434-.3-.528-.111-.548-.3-1.483.3-1.129.3-1.132.829-.478.828-.479,1.133.3,1.129.3,1.025.909.636,1.105.829,1.434.3,1.481.3,1.482-.3,1.13Z" transform="translate(-772.076 -876.304)"/><path class="ch" d="M779.648,893.2h-4.139l1.212,1.517h1.716Z" transform="translate(-770.958 -886.333)"/><rect class="ci" width="1.916" height="13.903" transform="translate(20.798 16.973)"/><path class="am" d="M785.041,897.056l-.651-.376-.649-.375v-1.06l.649-.375.651-.375h1.836l.65.375.649.375v1.06l-.649.375-.65.376-.917,0Z" transform="translate(-757.52 -884.225)"/><path class="at" d="M784.991,896.839l-.582-.334-.579-.337v-.95l.579-.334.584-.337h1.645l.579.337.584.334v.95l-.584.337-.579.334h-1.648Zm.329-.455h.99l.35-.2.35-.2v-.571l-.35-.2-.35-.2h-.99l-.35.2-.35.2v.571l.35.2Z" transform="translate(-757.376 -884.143)"/><path class="aj" d="M783.742,895.183l1.3.751v1.635l-1.3-.749Z" transform="translate(-757.52 -883.103)"/><path class="cj" d="M775.509,893.2l1.212.7v.817l-1.212-.7Z" transform="translate(-770.958 -886.333)"/><rect class="ck" width="1.837" height="1.635" transform="translate(27.521 12.831)"/><path class="cl" d="M784.933,895.934l1.3-.751v1.635l-1.3.751Z" transform="translate(-755.575 -883.103)"/><path class="cm" d="M776.621,893.9l1.211-.7v.817l-1.211.7Z" transform="translate(-769.143 -886.333)"/><path class="at" d="M776.72,894.951l-.6-.349-.607-.35v-.991l.607-.349.606-.35h1.715l.6.35.607.349v.991l-.607.35-.6.349H776.72Z" transform="translate(-770.958 -887.38)"/><path class="cn" d="M774.511,901.155l1.237.495,1.132,1.962-.713.413Z" transform="translate(-772.587 -873.356)"/><path class="co" d="M784.224,897.975l-1.211-.7v1.455l1.211.7Z" transform="translate(-758.709 -879.689)"/><path class="cp" d="M783.146,897.353l-.133-.078v1.455l.788.456v-.146Z" transform="translate(-758.709 -879.689)"/></g></g></g></g></svg>