<svg xmlns="http://www.w3.org/2000/svg" xmlns:xlink="http://www.w3.org/1999/xlink" width="247.844" height="233.549" viewBox="0 0 247.844 233.549"><defs><style>.a{opacity:0.041;fill:url(#a);}.b{fill:#eff0fb;}.c{fill:url(#b);}.d,.f{fill:#9390ad;}.d{opacity:0.077;}.e{fill:url(#c);}.f{opacity:0.117;}.g{opacity:0.158;}.h{fill:#515060;}.i{fill:url(#d);}.j{fill:#fff;}.k{opacity:0.073;}.l{fill:url(#e);}</style><linearGradient id="a" x1="0.211" y1="0.803" x2="1.173" y2="-0.126" gradientUnits="objectBoundingBox"><stop offset="0.001" stop-color="#1b1464" stop-opacity="0.969"/><stop offset="0.793" stop-color="#c2d0ec" stop-opacity="0"/></linearGradient><linearGradient id="b" x1="0.5" y1="1" x2="0.5" gradientUnits="objectBoundingBox"><stop offset="0" stop-color="#ededf9"/><stop offset="0.996" stop-color="#dedeeb"/><stop offset="1" stop-color="#34d9f7"/></linearGradient><linearGradient id="c" x1="0.5" y1="1" x2="0.5" gradientUnits="objectBoundingBox"><stop offset="0" stop-color="#dddcea"/><stop offset="1" stop-color="#f0f1fc"/><stop offset="1" stop-color="#34d9f7"/></linearGradient><linearGradient id="d" x1="0.5" y1="1" x2="0.5" gradientUnits="objectBoundingBox"><stop offset="0" stop-color="#deddeb"/><stop offset="1" stop-color="#eaeaf6"/></linearGradient><linearGradient id="e" x1="0.5" y1="1" x2="0.5" gradientUnits="objectBoundingBox"><stop offset="0" stop-color="#deddeb"/><stop offset="1" stop-color="#eeeffa"/></linearGradient></defs><g transform="translate(-81.156 -200.75)"><path class="a" d="M3929.947,4573.439h0a20.828,20.828,0,0,1,1.671-37.155l88.633-39.82a43.378,43.378,0,0,1,39.033,1.756l38.6,21.7a14.893,14.893,0,0,1-1.2,26.567l-69.711,31.319A107.829,107.829,0,0,1,3929.947,4573.439Z" transform="translate(-3776.477 -4152.975)"/><g transform="translate(-3684.859 -2680.423)"><rect class="b" width="6.251" height="23.934" rx="3.126" transform="translate(3858.96 2911.12)"/><rect class="b" width="6.251" height="23.934" rx="3.126" transform="translate(3887.447 2912.402) rotate(6.927)"/><g transform="translate(3799.074 2923.492)"><path class="c" d="M3830.675,3199.886c-4.424,8.554-28.827,13.77-29.2,12.047-11.492-62.167,21.522-98.543,29.136-77.22A76.8,76.8,0,0,1,3834.3,3153C3836.151,3172.776,3833.183,3195.037,3830.675,3199.886Z" transform="translate(-3799.074 -3086.85)"/><path class="d" d="M3836.971,3241.067c-4.424,8.554-28.827,13.769-29.2,12.047-2.983-42.668,15.892-66.549,15.892-66.549,5.954-6.8,11.908-1.861,16.926,7.616C3842.447,3213.957,3839.479,3236.218,3836.971,3241.067Z" transform="translate(-3805.37 -3128.031)"/><path class="e" d="M3978.362,3033.115a275.158,275.158,0,0,1-2.963,29.32q-.385,2.407-.816,4.8a166.376,166.376,0,0,1-7.011,26.829c-5.046,13.916-12.129,25.685-21.885,32.85a38.011,38.011,0,0,1-23.072,7.474c-43.85,0-53.492-55.554-55.746-101.273-2.451-49.74,22.418-72.269,55.746-72.269a62.6,62.6,0,0,1,18.88,2.754c20.734,6.556,35.284,24.961,36.886,56.9Q3978.682,3026.486,3978.362,3033.115Z" transform="translate(-3849.875 -2960.846)"/><path class="f" d="M4205.127,3041.848a267.135,267.135,0,0,1-3.78,34.119c-7,.913-11.064-5.8-7.471-24.958,9.818-52.327-11.049-72.54-25.3-78.538C4191.9,2979.846,4207.085,3002.083,4205.127,3041.848Z" transform="translate(-4076.64 -2969.578)"/><path class="f" d="M4239.1,3190.358a275.158,275.158,0,0,1-2.963,29.32q-.385,2.407-.816,4.8a166.4,166.4,0,0,1-7.012,26.829c-4.983,2.287-10.786,3.366-12.843-1.4-.072-.167-.142-.343-.2-.525-2.552-7.4-2.615-48.637,6.947-70.921,4.657-10.856,12.289-11,16.909-.724Q4239.421,3183.729,4239.1,3190.358Z" transform="translate(-4110.615 -3118.089)"/><path class="f" d="M4213.864,3291.091q-.385,2.407-.816,4.8a166.462,166.462,0,0,1-7.012,26.829c-5.046,13.916-12.129,25.685-21.885,32.85,2.471-8.634,5.772-21.315,9.042-34.248,6.25-24.737,12.384-50.389,12.384-50.389,2-7.337,3.779-7.026,5.225-2.237C4212.142,3273.144,4213.195,3281.457,4213.864,3291.091Z" transform="translate(-4088.34 -3189.502)"/><g class="g" transform="translate(29.621 84.036)"><path class="h" d="M3974.577,3333.313c-2.085,18.582-8.788,40.914-26.118,39.606-18.745-1.416-25.911-26.219-29.542-46.513-4.116-22.148,8.262-30.044,26.608-27.273S3977.012,3313.165,3974.577,3333.313Z" transform="translate(-3918.126 -3298.599)"/></g><path class="i" d="M4289.711,3258.561c-.495,1.68-22.687-5.843-26.033-14.783-2.532-6.764-3.056-44.485,5.865-64.868C4278.514,3158.413,4305.924,3197.777,4289.711,3258.561Z" transform="translate(-4146.872 -3120.541)"/><g transform="translate(28.801 9.053)"><g transform="translate(7.762)"><path class="j" d="M3947.643,3009.617a1.617,1.617,0,0,1-1.215-2.684,41.312,41.312,0,0,1,12.129-9.523,1.617,1.617,0,0,1,1.482,2.875,38.089,38.089,0,0,0-11.181,8.782A1.613,1.613,0,0,1,3947.643,3009.617Z" transform="translate(-3946.026 -2997.229)"/></g><g transform="translate(0 12.896)"><path class="j" d="M3916.444,3057.83a1.618,1.618,0,0,1-1.42-2.389,50.548,50.548,0,0,1,3.607-5.717,1.617,1.617,0,1,1,2.61,1.909,47.388,47.388,0,0,0-3.374,5.351A1.618,1.618,0,0,1,3916.444,3057.83Z" transform="translate(-3914.828 -3049.061)"/></g></g><g class="k" transform="translate(52.464 0.593)"><path class="h" d="M4028.8,3135.917c-8.171-5.337-13.756-17.075-16.6-34.887-2.39-14.972-2.386-31.388-2.176-42.434.392-20.61,2.122-38.442,5.142-53,2.418-11.659,5.666-21.26,9.652-28.537,6.823-12.456,13.371-13.778,13.646-13.829l.087.49-.044-.245.044.245c-.066.013-6.642,1.368-13.354,13.673-3.95,7.242-7.17,16.8-9.57,28.4-3,14.509-4.721,32.277-5.112,52.81-.21,11.026-.214,27.413,2.169,42.344,2.82,17.667,8.33,29.291,16.38,34.548Z" transform="translate(-4009.935 -2963.585)"/></g><g transform="translate(49.9 43.346)"><path class="h" d="M4001.45,3135.1c2.533.609,7.187,1.664,11.111,2.2a1.473,1.473,0,0,1,1.16,2.039c-.966,2.246-3.13,5.718-7.192,5.342-4.592-.425-6.431-4.914-6.881-7.909A1.478,1.478,0,0,1,4001.45,3135.1Z" transform="translate(-3999.631 -3135.059)"/></g></g><g transform="translate(3840.746 2947.325)"><rect class="h" width="10.425" height="3.971" rx="1.986" transform="translate(5.966 0.79) rotate(101.475)"/><rect class="h" width="10.425" height="3.971" rx="1.986" transform="translate(38.4 5.423) rotate(101.475)"/></g></g><g transform="translate(81.155 200.75)"><path class="l" d="M3703.678,155.273h-26.34a12.712,12.712,0,0,0-12.675,12.675V193.71a12.712,12.712,0,0,0,12.675,12.674h11.39l7.915,8.406a1.193,1.193,0,0,0,2.062-.79l.178-7.615h4.794a12.712,12.712,0,0,0,12.675-12.674V167.948A12.712,12.712,0,0,0,3703.678,155.273Z" transform="translate(-3664.664 -155.273)"/><path class="h" d="M412.758,369.928v2.241h15.688v11.206h2.241V372.169a2.24,2.24,0,0,0-2.241-2.241Zm-2.243,4.482a2.238,2.238,0,0,0-2.23,2.241l-.011,16.808,4.484-4.482h11.2a2.247,2.247,0,0,0,2.241-2.241V376.65a2.247,2.247,0,0,0-2.241-2.241Zm0,2.241h13.447v10.086H411.829l-.656.656-.658.656Z" transform="translate(-392.635 -355.848)"/></g></g></svg>