<svg xmlns="http://www.w3.org/2000/svg" xmlns:xlink="http://www.w3.org/1999/xlink" width="305.963" height="253.814" viewBox="0 0 305.963 253.814"><defs><style>.a{opacity:0.12;fill:url(#a);}.b{fill:url(#c);}.c{fill:url(#d);}.d{fill:url(#e);}.e{fill:#b55428;opacity:0.16;}.f{fill:#c4855b;opacity:0.44;}.g{opacity:0.57;fill:url(#g);}.h{fill:url(#h);}.i{fill:#fff;}.j{opacity:0.17;}.k{fill:#e59c5a;}.l{fill:#a65e26;}.m{fill:#39302a;}.n{fill:#221f1e;}.o{fill:#1a1a30;}.p{fill:#00365c;}.q{fill:#0f597c;}.r{fill:#00243a;}.s{fill:#f59473;}.t{fill:#f39273;}.u{fill:#cb7c61;}.v{fill:#d9502a;}.w{fill:#0a0a16;}.x{fill:#30304c;}.y{fill:#5337f7;}.z{fill:#4236b2;}.aa{fill:#1c1a19;}.ab{fill:#4c423c;}.ac{fill:#6051f2;}.ad{fill:url(#j);}</style><linearGradient id="a" x1="0.211" y1="0.803" x2="1.173" y2="-0.126" gradientUnits="objectBoundingBox"><stop offset="0.001" stop-color="#1b1464" stop-opacity="0.969"/><stop offset="0.793" stop-color="#c2d0ec" stop-opacity="0"/></linearGradient><linearGradient id="c" x1="-1.034" y1="-3.949" x2="-0.034" y2="-3.949" gradientUnits="objectBoundingBox"><stop offset="0" stop-color="#fdc67a"/><stop offset="0.994" stop-color="#fdc87b"/></linearGradient><linearGradient id="d" x1="0" y1="0.5" x2="1" y2="0.5" xlink:href="#c"/><linearGradient id="e" x1="0.5" y1="1" x2="0.5" gradientUnits="objectBoundingBox"><stop offset="0" stop-color="#f18555"/><stop offset="0.229" stop-color="#f28e5a"/><stop offset="0.609" stop-color="#f7a768"/><stop offset="0.994" stop-color="#fdc87b"/></linearGradient><linearGradient id="g" x1="0.806" y1="-0.025" x2="0.007" y2="1.247" gradientUnits="objectBoundingBox"><stop offset="0" stop-color="#d58e54"/><stop offset="1" stop-color="#b26d39" stop-opacity="0"/></linearGradient><linearGradient id="h" x1="0.5" y1="1" x2="0.5" y2="-0.018" gradientUnits="objectBoundingBox"><stop offset="0.001" stop-color="#faceb3"/><stop offset="1" stop-color="#fdd2b7"/></linearGradient><linearGradient id="j" x1="0.5" y1="1" x2="0.5" gradientUnits="objectBoundingBox"><stop offset="0" stop-color="#f0008e"/><stop offset="0.162" stop-color="#f1098e"/><stop offset="0.431" stop-color="#f3228f"/><stop offset="0.773" stop-color="#f84b91"/><stop offset="0.998" stop-color="#fc6b93"/></linearGradient></defs><g transform="translate(-64.572 -86.55)"><path class="a" d="M3929.947,4573.439h0a20.828,20.828,0,0,1,1.671-37.155l88.633-39.82a43.378,43.378,0,0,1,39.033,1.756l38.6,21.7a14.893,14.893,0,0,1-1.2,26.567l-69.711,31.319A107.829,107.829,0,0,1,3929.947,4573.439Z" transform="translate(-3734.942 -4283.847)"/><path class="a" d="M3922.592,4509.209h0a6.407,6.407,0,0,1,.514-11.43l55.241-24.564a13.343,13.343,0,0,1,12.008.54l11.874,6.675a4.581,4.581,0,0,1-.368,8.173l-49.42,21.948A33.174,33.174,0,0,1,3922.592,4509.209Z" transform="translate(-3837.324 -4173.102)"/><g transform="translate(2.311 11.396)"><g transform="translate(-3532.664 -82.626)"><rect class="b" width="5.679" height="21.742" rx="2.839" transform="matrix(0.993, 0.121, -0.121, 0.993, 3775.326, 193.717)"/><rect class="c" width="5.679" height="21.742" rx="2.839" transform="translate(3749.447 192.552)"/><path class="d" d="M3827.781,608.184c-4.019,7.771-26.188,12.508-26.522,10.944-10.44-56.475,19.552-89.521,26.468-70.15a69.774,69.774,0,0,1,3.345,16.613C3832.756,583.556,3830.06,603.779,3827.781,608.184Z" transform="translate(-104.03 -300.408)"/><path class="e" d="M3834.268,650.614c-4.019,7.771-26.188,12.508-26.522,10.944-2.71-38.762,14.437-60.456,14.437-60.456,5.409-6.182,10.818-1.691,15.377,6.919C3839.243,625.986,3836.547,646.208,3834.268,650.614Z" transform="translate(-110.517 -342.838)"/><path class="d" d="M3968.138,441.324a249.854,249.854,0,0,1-2.692,26.635q-.349,2.187-.741,4.36a151.211,151.211,0,0,1-6.369,24.373c-4.584,12.642-11.019,23.333-19.882,29.842a34.529,34.529,0,0,1-20.959,6.79c-39.835,0-48.594-50.468-50.642-92-2.227-45.185,20.365-65.652,50.642-65.652a56.855,56.855,0,0,1,17.151,2.5c18.835,5.956,32.053,22.675,33.509,51.686Q3968.428,435.3,3968.138,441.324Z" transform="translate(-156.371 -170.583)"/><path class="f" d="M4201.78,450.322a242.739,242.739,0,0,1-3.433,31c-6.363.83-10.052-5.269-6.788-22.673,8.919-47.536-10.037-65.9-22.984-71.347C4189.765,394,4203.559,414.2,4201.78,450.322Z" transform="translate(-390.013 -179.58)"/><path class="g" d="M4236.785,603.336a249.919,249.919,0,0,1-2.692,26.635q-.349,2.187-.741,4.36a151.21,151.21,0,0,1-6.369,24.373c-4.527,2.077-9.8,3.058-11.668-1.27-.065-.151-.129-.312-.185-.477-2.319-6.72-2.375-44.184,6.311-64.427,4.231-9.862,11.164-10,15.361-.658Q4237.076,597.313,4236.785,603.336Z" transform="translate(-425.018 -332.594)"/><path class="e" d="M4211.143,703.55q-.349,2.187-.741,4.36a151.21,151.21,0,0,1-6.37,24.373c-4.583,12.642-11.019,23.333-19.881,29.842,2.244-7.843,5.244-19.364,8.213-31.113,5.678-22.472,11.25-45.775,11.25-45.775,1.817-6.666,3.434-6.383,4.747-2.032C4209.579,687.246,4210.535,694.8,4211.143,703.55Z" transform="translate(-402.068 -406.173)"/><g transform="translate(3721.954 281.431)"><path class="h" d="M3969.409,744.96c-1.895,16.88-7.983,37.168-23.727,35.979-17.028-1.286-23.538-23.818-26.836-42.254-3.74-20.12,7.505-27.294,24.172-24.776S3971.621,726.657,3969.409,744.96Z" transform="translate(-3918.126 -713.425)"/></g><path class="d" d="M4287.18,665.593c-.449,1.526-20.61-5.308-23.65-13.429-2.3-6.145-2.775-40.412,5.328-58.928C4277.008,574.614,4301.908,610.375,4287.18,665.593Z" transform="translate(-462.374 -335.121)"/><g transform="translate(3721.208 213.313)"><g transform="translate(7.052)"><path class="i" d="M3947.494,423.309a1.469,1.469,0,0,1-1.1-2.439,37.524,37.524,0,0,1,11.018-8.651,1.469,1.469,0,0,1,1.346,2.612,34.6,34.6,0,0,0-10.157,7.978A1.466,1.466,0,0,1,3947.494,423.309Z" transform="translate(-3946.026 -412.056)"/></g><g transform="translate(0 11.715)"><path class="i" d="M3916.3,471.853a1.47,1.47,0,0,1-1.29-2.17,45.955,45.955,0,0,1,3.277-5.194,1.469,1.469,0,0,1,2.372,1.735,43,43,0,0,0-3.066,4.861A1.469,1.469,0,0,1,3916.3,471.853Z" transform="translate(-3914.828 -463.887)"/></g></g><g class="j" transform="translate(3742.6 205.519)"><path class="k" d="M4027.017,534.376a.327.327,0,0,1-.179-.053c-7.53-4.855-12.674-15.52-15.29-31.7-2.2-13.581-2.193-28.47-2-38.488.36-18.691,1.95-34.863,4.725-48.068,2.223-10.58,5.209-19.294,8.874-25.9,6.29-11.335,12.35-12.543,12.6-12.589a.331.331,0,0,1,.118.652c-.1.021-6.095,1.288-12.212,12.382-3.617,6.56-6.565,15.214-8.764,25.721-2.75,13.139-4.325,29.227-4.684,47.814-.193,9.992-.2,24.84,1.991,38.369,2.584,15.986,7.629,26.5,14.995,31.248a.331.331,0,0,1-.18.61Z" transform="translate(-4009.47 -377.574)"/></g><g transform="translate(3740.376 244.466)"><path class="l" d="M4001.283,549.923c2.3.553,6.529,1.511,10.094,1.994a1.338,1.338,0,0,1,1.054,1.852c-.877,2.041-2.843,5.194-6.534,4.853-4.171-.386-5.842-4.464-6.251-7.185A1.342,1.342,0,0,1,4001.283,549.923Z" transform="translate(-3999.631 -549.885)"/></g><g transform="translate(3733.173 225.68)"><rect class="l" width="9.471" height="3.608" rx="1.804" transform="translate(5.42 0.718) rotate(101.475)"/><rect class="l" width="9.471" height="3.608" rx="1.804" transform="translate(34.884 4.927) rotate(101.475)"/></g></g></g><g transform="translate(-121.382 -574.623)"><g transform="translate(185.954 735.378)"><path class="m" d="M251.933,1298.581l7.55-3.989c4.577-.99,8.883-3.42,9.711-1.515.918,2.113-.775,4.451-2.631,5.7-2.648,1.781-4.621,2.615-6.914,2.488l-.066,1.7-4.668,1.829-3.36-1.3-.011-1.245Z" transform="translate(-232.535 -1130.941)"/><path class="m" d="M316.419,1311.538l7.55-3.989c4.577-.99,8.884-3.42,9.711-1.516.918,2.113-.776,4.451-2.632,5.7-2.647,1.781-4.621,2.615-6.914,2.488l-.066,1.7-4.668,1.829-3.36-1.3-.011-1.245Z" transform="translate(-278.331 -1140.143)"/><path class="n" d="M332.4,1314.957c2.293.127,4.267-.707,6.914-2.488,1.856-1.249,3.55-3.587,2.632-5.7a1.061,1.061,0,0,0-.323-.409c.045.37.57,5.971-9.375,7.4l-.911-1.085-1.561-.4h-1.824l-.286,6.213,4.668-1.829Z" transform="translate(-286.591 -1140.879)"/><path class="n" d="M267.909,1303c2.293.128,4.267-.706,6.914-2.488,1.856-1.249,3.55-3.587,2.631-5.7,0,0-.034,5.635-9.734,7.1l-1.3-.911-.814-.684H263.62l-.445,6.213,4.668-1.829Z" transform="translate(-240.795 -1132.677)"/><path class="o" d="M269.518,1020.76c-10.027,0-18.548-5.254-19.5-5.861-.579,2.7-1.57,9.892.322,22.8,0,0,.577,19.571.577,21.708,0,0-3.834,12.467-.525,42h6.145s4.779-37.448,5.338-41.185c.484-3.234,1.764-9.692,3.225-16.725,1.131,7.375,2.659,17.439,2.742,18.526,0,0-3.493,10.22,1.193,43.139h6.687s2.573-34.479,3.642-42.228c1.066-7.729,4.888-48.009,4.907-48.208C278.635,1020.79,269.518,1020.76,269.518,1020.76Z" transform="translate(-230.761 -933.762)"/><g transform="translate(2.156 36.221)"><path class="p" d="M228.422,891.969,200,907.707l-.094-28.648,28.425-15.738Z" transform="translate(-198.017 -862.462)"/><path class="q" d="M195.36,905.6l-1.966-1.166V876.22l28.654-15.863,1.657.859-28.439,15.738Z" transform="translate(-193.394 -860.357)"/><path class="r" d="M250.156,863.321,234.3,872.1c-1.727,7.368-4.568,21.994-3.378,30.571l19.328-10.7Z" transform="translate(-219.845 -862.462)"/></g><path class="s" d="M458.567,938.427c1.111.673,2.061,1.255,2.061,1.255-1.023-.175-5.973-1.114-5.973-1.114s.015-2.315.482-2.141h0l.335-1.486s3.991.5,4.28.468a42.522,42.522,0,0,1,4.421,1.021c.12.081-2.712-.108-3.628-.171a16.229,16.229,0,0,1,3.908,1.077,30.1,30.1,0,0,0-4.039-.273s3.524,1.147,3.713,1.275-4.365-.3-4.365-.3l0-.011A6.409,6.409,0,0,1,458.567,938.427Z" transform="translate(-376.78 -877.104)"/><g transform="translate(27.104 5.221)"><path class="t" d="M281.633,763.9v0a7.343,7.343,0,0,0,6.613.046c-.19-1.728.312-3.687,1.877-3.759a1.8,1.8,0,0,1,1.676,1.244c.4-1.926.39-4.34-1.295-4.364a3.757,3.757,0,0,1,2.8-.048,10.444,10.444,0,0,0,3.365-2.9l.012,0a7.3,7.3,0,0,0,.4-.736c.259,2.926.85,12.731-2.667,14.366a3.481,3.481,0,0,1-2.783.038,30.969,30.969,0,0,0-.889,4.936l-11.269-3.919A29.791,29.791,0,0,0,281.633,763.9Z" transform="translate(-279.475 -753.392)"/><path class="u" d="M311.528,776.86a1.487,1.487,0,0,1,1.007.318c-.046,0-1.562-.039-1.835,1.189-.277,1.247.908,1.744.787,2.52s-1.306.931-1.836-.269C309.46,778.89,309.963,776.932,311.528,776.86Z" transform="translate(-300.878 -770.057)"/><path class="u" d="M307.745,793.794s.344,1.594.628,2.425l-1.317,1.288a6.913,6.913,0,0,0-1.609,2.618l3.742,1.3a30.972,30.972,0,0,1,.889-4.936A7.3,7.3,0,0,1,307.745,793.794Z" transform="translate(-297.92 -782.085)"/></g><path class="v" d="M331.808,872.791s4.12,4.814,7.5,4.9c-.021-.172-.039-.34-.061-.514-.011-.852-.045-1.78-.128-2.748C339.089,874.426,333.711,873.31,331.808,872.791Z" transform="translate(-289.536 -832.966)"/><path class="w" d="M278.564,1081.468h0l-.483-3.143a35.671,35.671,0,0,1-3.22-10.13,30.6,30.6,0,0,0,.749,9.911s-3.439,14.044-3.96,19.273-3.645,42-3.645,42h2s4.779-37.448,5.338-41.185C275.823,1094.959,277.1,1088.5,278.564,1081.468Z" transform="translate(-244.224 -971.737)"/><path class="w" d="M335.269,1020.117s1.858,6.706,2.485,10.091-.545,32.281-.545,32.281-2.514,34.141-2.3,42.657h1.782s2.573-34.479,3.642-42.228,4.907-48.2,4.908-48.212A19.494,19.494,0,0,1,335.269,1020.117Z" transform="translate(-291.731 -933.751)"/><path class="x" d="M251.763,1059.839c0-3.69-.586-22.153-.586-22.153a92.9,92.9,0,0,1-.447-21.918l-.711-.432c-.579,2.69-1.573,9.878.321,22.795,0,0,.577,19.571.577,21.708,0,0-3.834,12.467-.525,42C248.761,1071.469,251.763,1059.839,251.763,1059.839Z" transform="translate(-230.761 -934.198)"/><path class="x" d="M299.475,1099.766c0-2.344-3.808-21.775-3.808-21.775a53.48,53.48,0,0,1-4-9.8,34.207,34.207,0,0,0,3.22,10.13l.483,3.144h0c1.131,7.375,2.658,17.439,2.742,18.526,0,0-3.494,10.22,1.193,43.139C296.785,1112.483,299.475,1099.766,299.475,1099.766Z" transform="translate(-261.026 -971.737)"/><path class="y" d="M305.1,847.672l.666-3.724c-15.861-8.3-22.023-10.423-22.023-10.423-6.324-10.594-11.345-15.545-12.811-16.876a15.4,15.4,0,0,0-3.677-2.7q-1.275-.681-2.57-1.312l.009,0-.493-2.115a21.432,21.432,0,0,0-11.27-3.919,8.012,8.012,0,0,0-2.469,2.184l.037.01a10.188,10.188,0,0,0-3.966,1.024c-4.758,2.424-5.381,9.406-3.321,19.864,1.861,9.45,1.8,17.023,2.016,25.32,0,0,.15,9.144-.235,12.033,0,0,8.95,5.92,19.591,5.92,0,0,9.195.032,14.825-6.113,0,0-.223-1.41-.537-3.543-.15-1.015-1.763-13.871-1.763-13.871-.008-.081-.016-.163-.023-.242h0c-.112-1.31-.243-2.7-.378-4.112-.055-1.642-.15-3.714-.313-6.065.836.764,1.334,1.161,1.334,1.161C290.237,846.927,305.1,847.672,305.1,847.672Z" transform="translate(-225.824 -785.961)"/><path class="z" d="M317.871,824.511a17.383,17.383,0,0,0-1.162-2.105,14.775,14.775,0,0,0-5.069-4.322q-1.275-.681-2.57-1.312l.009,0-.493-2.114a19.825,19.825,0,0,0-3.988-2.23l.53,3.085,1.324,1.807S313.535,819.561,317.871,824.511Z" transform="translate(-270.212 -790.099)"/><path class="m" d="M285.315,736.505a9.2,9.2,0,0,0-4.257-1.112c-2.145-.1-7.507.239-9.7,3.883l-.017-.011s-1.277,1.862-1.842,6.81a13.083,13.083,0,0,1-3.515,7.681s5.164,5.967,15.568,3.953l.5-1.241a14.188,14.188,0,0,1-3.385-5.307,3.757,3.757,0,0,0-.045-.775,3.5,3.5,0,0,1,.833-2.511,1.628,1.628,0,0,1,2.1-.155,3.073,3.073,0,0,1,.876,1.56,6.894,6.894,0,0,0,.282-2.322,3.516,3.516,0,0,0,1.017-2.726s3.229-1.682,3.777-3.633S287.167,737.59,285.315,736.505Z" transform="translate(-242.787 -735.378)"/><path class="aa" d="M299.78,747.6a5.963,5.963,0,0,0,2.669-2.864s-1.107,1.887-4.752,2.571-5.143,3.548-5.078,7.324c0,0,.774-3.45,3.707-4.1,0,0-3.121,1.272-3.381,5.844-.216,3.8-2.724,4.987-3.6,7.261a19.519,19.519,0,0,0,8.8.179l.5-1.241a14.188,14.188,0,0,1-3.385-5.307,3.755,3.755,0,0,0-.045-.775,3.5,3.5,0,0,1,.833-2.511,1.628,1.628,0,0,1,2.1-.155,3.072,3.072,0,0,1,.876,1.56,6.893,6.893,0,0,0,.282-2.322,3.516,3.516,0,0,0,1.017-2.726s3.229-1.682,3.777-3.633a2.779,2.779,0,0,0-.458-2.731C303.635,743.993,303.666,746.3,299.78,747.6Z" transform="translate(-259.379 -741.48)"/><path class="ab" d="M271.354,739.829l-.017-.011s-1.277,1.862-1.842,6.81a13.083,13.083,0,0,1-3.515,7.681s.134.148.372.375c4.008-2.726,3.869-9.568,5.573-13.532a8.959,8.959,0,0,1,5.776-4.995C275.4,736.543,272.743,737.525,271.354,739.829Z" transform="translate(-242.787 -735.931)"/><path class="z" d="M343.539,924.113c-.151-1.015-1.763-13.871-1.763-13.871-.008-.081-.016-.163-.023-.242h0c-.113-1.31-.243-2.7-.378-4.112-.055-1.641-.152-3.718-.315-6.066-.015-.013-5.728-4.992-7.705-7.593,0,0,2.723,5.554,4.8,7.594,0,0-8.2,24.556-3.593,33.192a19.207,19.207,0,0,0,9.517-5.359S343.853,926.246,343.539,924.113Z" transform="translate(-290.493 -846.771)"/><path class="z" d="M365.036,922.437c12.511,6.752,27.371,7.5,27.371,7.5l.407-2.274C382.79,927.772,365.036,922.437,365.036,922.437Z" transform="translate(-313.134 -868.224)"/><path class="ac" d="M213.917,806.664c-.284-.024-.567-.049-.859-.06a8.011,8.011,0,0,0-2.469,2.184l.037.01a10.187,10.187,0,0,0-3.966,1.024,6.814,6.814,0,0,0-1.275.84c-1.257,1.017-19.529,15.995-19.432,26.736a6.14,6.14,0,0,0,2.156,4.55v-3.9l12.11-6.7q1.586-1.756,2.83-3.207c.09.509.185,1.025.289,1.552,1.861,9.45,1.8,17.023,2.016,25.32,0,0,.15,9.144-.235,12.033a39.7,39.7,0,0,0,7.483,3.614c2.292-7.947-1.615-33.055-3.065-44.272s3.521-16.294,3.521-16.294C212.82,807.383,213.813,806.725,213.917,806.664Z" transform="translate(-185.954 -785.961)"/><path class="y" d="M217.33,859.362l-.057.064s-8.578,9.9-10.13,13.882l8.124-4.5q1.588-1.759,2.831-3.209A53.7,53.7,0,0,1,217.33,859.362Z" transform="translate(-201.002 -823.429)"/></g></g><g transform="translate(142.98 86.55)"><path class="ad" d="M3703.678,155.273h-26.34a12.712,12.712,0,0,0-12.675,12.675V193.71a12.712,12.712,0,0,0,12.675,12.674h11.39l7.915,8.406a1.193,1.193,0,0,0,2.062-.79l.178-7.615h4.794a12.712,12.712,0,0,0,12.675-12.674V167.948A12.712,12.712,0,0,0,3703.678,155.273Z" transform="translate(-3664.664 -155.273)"/><path class="i" d="M3751.632,233.829a5.518,5.518,0,0,1-8.433,0,5.153,5.153,0,0,0-5.154,5.154c0,3.908,4.6,7.7,5.885,8.892,1.478,1.377,3.485,3.149,3.485,3.149s2.007-1.771,3.485-3.149c1.282-1.2,5.885-4.984,5.885-8.892A5.153,5.153,0,0,0,3751.632,233.829Z" transform="translate(-3721.459 -216.073)"/></g></g></svg>