<svg xmlns="http://www.w3.org/2000/svg" xmlns:xlink="http://www.w3.org/1999/xlink" width="325.477" height="262.813" viewBox="0 0 325.477 262.813"><defs><style>.a,.b{opacity:0.12;}.a{fill:url(#a);}.b{fill:url(#b);}.c{fill:url(#c);}.d{fill:url(#d);}.e{fill:url(#e);}.f{fill:#b55428;opacity:0.16;}.g{fill:#c4855b;opacity:0.44;}.h{opacity:0.57;fill:url(#g);}.i{fill:url(#h);}.j{fill:#fff;}.k{opacity:0.17;}.l{fill:#e59c5a;}.m{fill:#a65e26;}.n{fill:#e6e5ed;}.aa,.ab,.co,.cp,.cq,.cr,.n,.o,.p,.q,.r,.s,.t,.u,.v,.w,.x,.y,.z{fill-rule:evenodd;}.o{fill:#d0ab7d;}.p{fill:#807366;}.q{fill:#3f3d34;}.r{fill:#60574b;}.s{fill:url(#j);}.t{fill:#968d80;}.u{fill:#47463b;}.v{fill:#1a1807;}.w{fill:url(#k);}.x{fill:#977a67;}.y{fill:url(#l);}.z{fill:#e3df92;}.aa{fill:#a9a171;}.ab{fill:url(#m);}.ac{fill:#5337f7;}.ad{fill:#5d4ef2;}.ae{fill:#e3e7ff;}.af{fill:#f2f4fd;}.ag{opacity:0.18;}.ah{fill:rgba(255,255,255,0);}.ai{fill:#fbfbfb;opacity:0.024;}.ai,.aj,.ak,.al,.am,.an,.ao,.ap,.aq,.ar,.as,.at,.au,.av,.aw,.ax,.ay,.az,.ba,.bb,.bc,.bd,.be,.bf,.bg,.bh,.bi,.bj,.bk,.bl,.bm,.bn,.bo,.bp,.bq,.br,.bs,.bt,.bu,.bv{isolation:isolate;}.aj{fill:#f6f6f8;opacity:0.049;}.ak{fill:#f2f2f4;opacity:0.073;}.al{fill:#ededf0;opacity:0.098;}.am{fill:#e9e9ed;opacity:0.122;}.an{fill:#e4e4e9;opacity:0.146;}.ao{fill:#e0e0e6;opacity:0.171;}.ap{fill:#dbdbe2;opacity:0.195;}.aq{fill:#d7d7de;opacity:0.22;}.ar{fill:#d2d2db;opacity:0.244;}.as{fill:#ceced7;opacity:0.268;}.at{fill:#c9c9d3;opacity:0.293;}.au{fill:#c5c5d0;opacity:0.317;}.av{fill:#c1c1cc;opacity:0.341;}.aw{fill:#bcbcc8;opacity:0.366;}.ax{fill:#b8b8c5;opacity:0.39;}.ay{fill:#b3b3c1;opacity:0.415;}.az{fill:#afafbe;opacity:0.439;}.ba{fill:#aaaaba;opacity:0.463;}.bb{fill:#a6a6b6;opacity:0.488;}.bc{fill:#a1a1b3;opacity:0.512;}.bd{fill:#9d9daf;opacity:0.537;}.be{fill:#9898ab;opacity:0.561;}.bf{fill:#9494a8;opacity:0.585;}.bg{fill:#8f8fa4;opacity:0.61;}.bh{fill:#8b8ba1;opacity:0.634;}.bi{fill:#86869d;opacity:0.659;}.bj{fill:#828299;opacity:0.683;}.bk{fill:#7e7e96;opacity:0.707;}.bl{fill:#797992;opacity:0.732;}.bm{fill:#75758e;opacity:0.756;}.bn{fill:#70708b;opacity:0.78;}.bo{fill:#6c6c87;opacity:0.805;}.bp{fill:#676783;opacity:0.829;}.bq{fill:#636380;opacity:0.854;}.br{fill:#5e5e7c;opacity:0.878;}.bs{fill:#5a5a79;opacity:0.902;}.bt{fill:#555575;opacity:0.927;}.bu{fill:#515171;opacity:0.951;}.bv{fill:#4c4c6e;opacity:0.976;}.bw{fill:#48486a;}.bx{fill:#f9e268;}.by{fill:#fdc466;}.bz{fill:#eaae5d;}.ca{fill:#6f6cf4;}.cb{fill:#fc6b93;}.cc{fill:#cc0e88;}.cd{fill:#f0008e;}.ce{fill:#f8f9fc;}.cf{fill:#e5e9f4;}.cg{fill:#edf0f8;}.ch{fill:#dbd9f0;}.ci{fill:#f00d8e;}.cj{fill:#412aa4;}.ck{fill:#abc0e2;opacity:0.284;}.cl{fill:#ad7e2f;}.cm{fill:#c89c49;}.cn{fill:#5231e2;}.co{fill:#e5e5ed;}.cp{fill:#d6dbe7;}.cq{fill:#eff0f8;}.cr{fill:#b0b4c7;}.cs{fill:url(#n);}</style><linearGradient id="a" x1="0.228" y1="0.773" x2="1.152" y2="-0.154" gradientUnits="objectBoundingBox"><stop offset="0.001" stop-color="#1b1464" stop-opacity="0.969"/><stop offset="0.793" stop-color="#c2d0ec" stop-opacity="0"/></linearGradient><linearGradient id="b" x1="0.211" y1="0.803" x2="1.173" y2="-0.126" xlink:href="#a"/><linearGradient id="c" x1="-1.034" y1="-3.949" x2="-0.034" y2="-3.949" gradientUnits="objectBoundingBox"><stop offset="0" stop-color="#fdc67a"/><stop offset="0.994" stop-color="#fdc87b"/></linearGradient><linearGradient id="d" x1="0" y1="0.5" x2="1" y2="0.5" xlink:href="#c"/><linearGradient id="e" x1="0.5" y1="1" x2="0.5" gradientUnits="objectBoundingBox"><stop offset="0" stop-color="#f18555"/><stop offset="0.229" stop-color="#f28e5a"/><stop offset="0.609" stop-color="#f7a768"/><stop offset="0.994" stop-color="#fdc87b"/></linearGradient><linearGradient id="g" x1="0.806" y1="-0.025" x2="0.007" y2="1.247" gradientUnits="objectBoundingBox"><stop offset="0" stop-color="#d58e54"/><stop offset="1" stop-color="#b26d39" stop-opacity="0"/></linearGradient><linearGradient id="h" x1="0.5" y1="1" x2="0.5" y2="-0.018" gradientUnits="objectBoundingBox"><stop offset="0.001" stop-color="#faceb3"/><stop offset="1" stop-color="#fdd2b7"/></linearGradient><linearGradient id="j" x1="1.245" y1="-0.594" x2="-0.452" y2="1.897" gradientUnits="objectBoundingBox"><stop offset="0" stop-color="#60574b"/><stop offset="1" stop-color="#3f3d34"/></linearGradient><linearGradient id="k" x1="-29.044" y1="-0.225" x2="-15.807" y2="0.1" gradientUnits="objectBoundingBox"><stop offset="0" stop-color="#736056"/><stop offset="1" stop-color="#5d4e43"/></linearGradient><linearGradient id="l" x1="-12.623" y1="-0.043" x2="-34.206" y2="-0.937" xlink:href="#k"/><linearGradient id="m" x1="-0.185" y1="-0.673" x2="0.877" y2="1.147" gradientUnits="objectBoundingBox"><stop offset="0" stop-color="#a49d6f"/><stop offset="1" stop-color="#726c4f"/></linearGradient><linearGradient id="n" x1="0.5" y1="1" x2="0.5" gradientUnits="objectBoundingBox"><stop offset="0" stop-color="#f0008e"/><stop offset="0.162" stop-color="#f1098e"/><stop offset="0.431" stop-color="#f3228f"/><stop offset="0.773" stop-color="#f84b91"/><stop offset="0.998" stop-color="#fc6b93"/></linearGradient></defs><g transform="translate(-45.058 -86.55)"><path class="a" d="M2139.418,4285.56l-104.061-58.5,182.474-81.98,104.061,58.5Z" transform="translate(-1952.625 -3936.274)"/><path class="b" d="M3929.947,4573.439h0a20.828,20.828,0,0,1,1.671-37.155l88.633-39.82a43.378,43.378,0,0,1,39.033,1.756l38.6,21.7a14.893,14.893,0,0,1-1.2,26.567l-69.711,31.319A107.829,107.829,0,0,1,3929.947,4573.439Z" transform="translate(-3734.942 -4283.847)"/><g transform="translate(2.311 11.396)"><g transform="translate(-3532.664 -82.626)"><rect class="c" width="5.679" height="21.742" rx="2.839" transform="matrix(0.993, 0.121, -0.121, 0.993, 3775.326, 193.717)"/><rect class="d" width="5.679" height="21.742" rx="2.839" transform="translate(3749.447 192.552)"/><path class="e" d="M3827.781,608.184c-4.019,7.771-26.188,12.508-26.522,10.944-10.44-56.475,19.552-89.521,26.468-70.15a69.774,69.774,0,0,1,3.345,16.613C3832.756,583.556,3830.06,603.779,3827.781,608.184Z" transform="translate(-104.03 -300.408)"/><path class="f" d="M3834.268,650.614c-4.019,7.771-26.188,12.508-26.522,10.944-2.71-38.762,14.437-60.456,14.437-60.456,5.409-6.182,10.818-1.691,15.377,6.919C3839.243,625.986,3836.547,646.208,3834.268,650.614Z" transform="translate(-110.517 -342.838)"/><path class="e" d="M3968.138,441.324a249.854,249.854,0,0,1-2.692,26.635q-.349,2.187-.741,4.36a151.211,151.211,0,0,1-6.369,24.373c-4.584,12.642-11.019,23.333-19.882,29.842a34.529,34.529,0,0,1-20.959,6.79c-39.835,0-48.594-50.468-50.642-92-2.227-45.185,20.365-65.652,50.642-65.652a56.855,56.855,0,0,1,17.151,2.5c18.835,5.956,32.053,22.675,33.509,51.686Q3968.428,435.3,3968.138,441.324Z" transform="translate(-156.371 -170.583)"/><path class="g" d="M4201.78,450.322a242.739,242.739,0,0,1-3.433,31c-6.363.83-10.052-5.269-6.788-22.673,8.919-47.536-10.037-65.9-22.984-71.347C4189.765,394,4203.559,414.2,4201.78,450.322Z" transform="translate(-390.013 -179.58)"/><path class="h" d="M4236.785,603.336a249.919,249.919,0,0,1-2.692,26.635q-.349,2.187-.741,4.36a151.21,151.21,0,0,1-6.369,24.373c-4.527,2.077-9.8,3.058-11.668-1.27-.065-.151-.129-.312-.185-.477-2.319-6.72-2.375-44.184,6.311-64.427,4.231-9.862,11.164-10,15.361-.658Q4237.076,597.313,4236.785,603.336Z" transform="translate(-425.018 -332.594)"/><path class="f" d="M4211.143,703.55q-.349,2.187-.741,4.36a151.21,151.21,0,0,1-6.37,24.373c-4.583,12.642-11.019,23.333-19.881,29.842,2.244-7.843,5.244-19.364,8.213-31.113,5.678-22.472,11.25-45.775,11.25-45.775,1.817-6.666,3.434-6.383,4.747-2.032C4209.579,687.246,4210.535,694.8,4211.143,703.55Z" transform="translate(-402.068 -406.173)"/><g transform="translate(3721.954 281.431)"><path class="i" d="M3969.409,744.96c-1.895,16.88-7.983,37.168-23.727,35.979-17.028-1.286-23.538-23.818-26.836-42.254-3.74-20.12,7.505-27.294,24.172-24.776S3971.621,726.657,3969.409,744.96Z" transform="translate(-3918.126 -713.425)"/></g><path class="e" d="M4287.18,665.593c-.449,1.526-20.61-5.308-23.65-13.429-2.3-6.145-2.775-40.412,5.328-58.928C4277.008,574.614,4301.908,610.375,4287.18,665.593Z" transform="translate(-462.374 -335.121)"/><g transform="translate(3721.208 213.313)"><g transform="translate(7.052)"><path class="j" d="M3947.494,423.309a1.469,1.469,0,0,1-1.1-2.439,37.524,37.524,0,0,1,11.018-8.651,1.469,1.469,0,0,1,1.346,2.612,34.6,34.6,0,0,0-10.157,7.978A1.466,1.466,0,0,1,3947.494,423.309Z" transform="translate(-3946.026 -412.056)"/></g><g transform="translate(0 11.715)"><path class="j" d="M3916.3,471.853a1.47,1.47,0,0,1-1.29-2.17,45.955,45.955,0,0,1,3.277-5.194,1.469,1.469,0,0,1,2.372,1.735,43,43,0,0,0-3.066,4.861A1.469,1.469,0,0,1,3916.3,471.853Z" transform="translate(-3914.828 -463.887)"/></g></g><g class="k" transform="translate(3742.6 205.519)"><path class="l" d="M4027.017,534.376a.327.327,0,0,1-.179-.053c-7.53-4.855-12.674-15.52-15.29-31.7-2.2-13.581-2.193-28.47-2-38.488.36-18.691,1.95-34.863,4.725-48.068,2.223-10.58,5.209-19.294,8.874-25.9,6.29-11.335,12.35-12.543,12.6-12.589a.331.331,0,0,1,.118.652c-.1.021-6.095,1.288-12.212,12.382-3.617,6.56-6.565,15.214-8.764,25.721-2.75,13.139-4.325,29.227-4.684,47.814-.193,9.992-.2,24.84,1.991,38.369,2.584,15.986,7.629,26.5,14.995,31.248a.331.331,0,0,1-.18.61Z" transform="translate(-4009.47 -377.574)"/></g><g transform="translate(3740.376 244.466)"><path class="m" d="M4001.283,549.923c2.3.553,6.529,1.511,10.094,1.994a1.338,1.338,0,0,1,1.054,1.852c-.877,2.041-2.843,5.194-6.534,4.853-4.171-.386-5.842-4.464-6.251-7.185A1.342,1.342,0,0,1,4001.283,549.923Z" transform="translate(-3999.631 -549.885)"/></g><g transform="translate(3733.173 225.68)"><rect class="m" width="9.471" height="3.608" rx="1.804" transform="translate(5.42 0.718) rotate(101.475)"/><rect class="m" width="9.471" height="3.608" rx="1.804" transform="translate(34.884 4.927) rotate(101.475)"/></g></g></g><g transform="translate(-770.949 -27.194)"><path class="n" d="M831.729,255.5l39.559,2.2H883.52l13.669-7.892,9.618,5.553h17.674l13.274-7.663-13.273-7.664H906.808l-9.617,5.553L883.52,237.7H871.288l-39.559,2.2-13.506,7.8Z" transform="translate(1.602 38.333)"/><g transform="translate(816.006 184.638)"><path class="o" d="M831.729,231.612l13.506-7.8-13.506-7.8-13.506,7.8Z" transform="translate(-814.405 -161.971)"/><path class="o" d="M833.331,234.741l17.325-10-17.325-10-17.324,10Z" transform="translate(-816.006 -162.896)"/><path class="p" d="M833.331,227.639l17.325-10-17.325-10-17.324,10Z" transform="translate(-816.006 -168.026)"/><path class="q" d="M841.2,216.438l3.655-2.111-3.654-2.11-1.146.662H826.543l-2.508,1.448,2.508,1.45h13.51Z" transform="translate(-810.206 -164.716)"/><path class="r" d="M833.331,223.444v12.234l-8.578-2.4-8.746-7.6V213.442Z" transform="translate(-816.006 -163.831)"/><path class="q" d="M826.065,223.444v12.234l9.948-3.107,7.376-6.9V213.442Z" transform="translate(-808.74 -163.831)"/><path class="s" d="M833.331,267.9V230.547l-17.324-10,3.818,39.557Z" transform="translate(-816.006 -158.701)"/><path class="q" d="M826.065,267.9V230.547l17.325-10L839.571,260.1Z" transform="translate(-808.74 -158.701)"/><path class="t" d="M832.027,225.091l14.216-8.207-14.216-8.207-14.215,8.207Z" transform="translate(-814.702 -167.273)"/><path class="r" d="M826.065,208.677l14.216,8.208-.856.494-13.359-7.713Z" transform="translate(-808.74 -167.273)"/><path class="q" d="M832.027,208.677l-14.216,8.207.857.495,13.853-7.428Z" transform="translate(-814.703 -167.273)"/><path class="u" d="M818.309,216.964l.985.568,12.374,7.144,13.359-7.713-13.359-7.713Z" transform="translate(-814.343 -166.859)"/><path class="v" d="M837.111,216.072l3.365-1.943-1.653-.955H827.117l-2.508,1.45,2.508,1.448Z" transform="translate(-809.792 -164.025)"/><path class="v" d="M818.309,216.964l.494.286,13.359-7.713-.494-.285Z" transform="translate(-814.343 -166.859)"/><path class="w" d="M826.065,228.776v-31.74l2.508-1.448v31.74Z" transform="translate(-808.74 -176.729)"/><path class="x" d="M827.117,228.776v-31.74l-2.508-1.448v31.74Z" transform="translate(-809.792 -176.729)"/><path class="y" d="M827.117,215.266v-18.23l-2.508-1.448v18.23Z" transform="translate(-809.792 -176.729)"/><path class="q" d="M832.862,212.6l2.508,1.449-.855.493-1.653-.955Z" transform="translate(-803.831 -164.439)"/><g transform="translate(4.052)"><path class="z" d="M844.906,192.3l-13.274,7.664L818.359,192.3l13.274-7.663Z" transform="translate(-818.359 -184.638)"/><path class="aa" d="M818.359,189.087l13.273,7.664v17.673l-13.273-7.663Z" transform="translate(-818.359 -181.424)"/><path class="ab" d="M839.338,189.087l-13.273,7.663v17.674l13.273-7.663Z" transform="translate(-812.792 -181.424)"/></g></g></g><g transform="translate(-1915.354 -3924.032)"><g transform="translate(1988.087 4128.996)"><g transform="translate(11.513 33.936)"><path class="ac" d="M2038.6,4322.114l-3.245-1.822v-51.963l3.245,1.821Z" transform="translate(-2035.358 -4268.329)"/><path class="ad" d="M2048.68,4323.375l3.12-1.415V4270l-3.12,1.416Z" transform="translate(-2045.435 -4269.59)"/></g><g transform="translate(55.892 13.99)"><path class="ac" d="M2220.813,4240.222l-3.245-1.822v-51.963l3.245,1.821Z" transform="translate(-2217.568 -4186.438)"/><path class="ad" d="M2230.89,4241.483l3.12-1.415V4188.1l-3.12,1.416Z" transform="translate(-2227.645 -4187.698)"/></g><g transform="translate(112.332 90.615)"><path class="ac" d="M2452.542,4554.826,2449.3,4553v-51.964l3.245,1.822Z" transform="translate(-2449.298 -4501.041)"/><path class="ad" d="M2462.62,4556.087l3.12-1.415v-51.963l-3.12,1.416Z" transform="translate(-2459.375 -4502.303)"/></g><g transform="translate(156.829 69.489)"><path class="ac" d="M2635.195,4469.283l-3.2-1.857V4414.3l3.2,1.857Z" transform="translate(-2631.994 -4414.305)"/><path class="ad" d="M2645.136,4470.569l3.078-1.444V4416l-3.078,1.443Z" transform="translate(-2641.935 -4415.59)"/></g><g transform="translate(0 0)"><path class="ae" d="M2107.957,4301.686l-119.87-67.387v-4.211l119.87,67.387Z" transform="translate(-1988.087 -4205.466)"/><path class="af" d="M2107.957,4221l-119.87-67.387L2042.838,4129l119.87,67.387Z" transform="translate(-1988.087 -4128.996)"/><path class="ae" d="M2480.248,4434.5,2535,4409.881v-4.212l-54.751,24.622Z" transform="translate(-2360.378 -4338.284)"/></g></g></g><g transform="translate(-2381.767 -4202.386)"><g transform="translate(2466.106 4383.263)"><g transform="translate(25.064 6.5)"><g class="ag" transform="translate(0 30.26)"><path class="ah" d="M2535.284,4469.161l-7.071,3.181-6.467-4.241,6.933-3.216Z" transform="translate(-2521.746 -4464.876)"/><path class="ai" d="M2535.479,4469.161l-6.91,3.107-6.469-4.243,6.774-3.142Z" transform="translate(-2521.941 -4464.876)"/><path class="aj" d="M2535.673,4469.161l-6.747,3.035-6.473-4.244,6.615-3.068Z" transform="translate(-2522.135 -4464.876)"/><path class="ak" d="M2535.866,4469.161l-6.585,2.962-6.475-4.245,6.456-2.994Z" transform="translate(-2522.329 -4464.876)"/><path class="al" d="M2536.062,4469.151l-6.422,2.889-6.478-4.25,6.3-2.924Z" transform="translate(-2522.524 -4464.866)"/><path class="am" d="M2536.257,4469.157l-6.261,2.816-6.48-4.25,6.136-2.845Z" transform="translate(-2522.719 -4464.872)"/><path class="an" d="M2536.454,4469.156l-6.1,2.742-6.484-4.25,5.976-2.772Z" transform="translate(-2522.914 -4464.871)"/><path class="ao" d="M2536.646,4469.157l-5.936,2.669-6.486-4.251,5.817-2.7Z" transform="translate(-2523.108 -4464.872)"/><path class="ap" d="M2536.849,4469.159l-5.773,2.6-6.489-4.251,5.656-2.624Z" transform="translate(-2523.308 -4464.874)"/><path class="aq" d="M2537.03,4469.159l-5.61,2.523-6.492-4.251,5.5-2.55Z" transform="translate(-2523.495 -4464.875)"/><path class="ar" d="M2537.231,4469.16l-5.45,2.449-6.494-4.252,5.337-2.476Z" transform="translate(-2523.692 -4464.875)"/><path class="as" d="M2537.426,4469.161l-5.285,2.376-6.5-4.252,5.177-2.4Z" transform="translate(-2523.888 -4464.876)"/><path class="at" d="M2537.626,4469.166l-5.117,2.3-6.5-4.252,5.018-2.325Z" transform="translate(-2524.088 -4464.88)"/><path class="au" d="M2537.819,4469.158l-4.96,2.227-6.5-4.253,4.857-2.253Z" transform="translate(-2524.279 -4464.873)"/><path class="av" d="M2538.019,4469.164l-4.793,2.157-6.506-4.253,4.7-2.179Z" transform="translate(-2524.479 -4464.879)"/><path class="aw" d="M2538.206,4469.165l-4.633,2.083-6.509-4.253,4.537-2.1Z" transform="translate(-2524.668 -4464.88)"/><path class="ax" d="M2538.406,4469.166l-4.468,2.011-6.512-4.253,4.377-2.029Z" transform="translate(-2524.867 -4464.881)"/><path class="ay" d="M2538.6,4469.166l-4.307,1.937-6.514-4.254,4.217-1.956Z" transform="translate(-2525.06 -4464.881)"/><path class="az" d="M2538.8,4469.161l-4.143,1.864-6.518-4.259,4.055-1.881Z" transform="translate(-2525.258 -4464.876)"/><path class="ba" d="M2538.989,4469.154l-3.98,1.79-6.521-4.261,3.9-1.812Z" transform="translate(-2525.451 -4464.87)"/><path class="bb" d="M2539.186,4469.161l-3.816,1.716-6.523-4.261,3.735-1.731Z" transform="translate(-2525.648 -4464.876)"/><path class="bc" d="M2539.384,4469.161l-3.653,1.643-6.527-4.262,3.575-1.658Z" transform="translate(-2525.844 -4464.876)"/><path class="bd" d="M2539.576,4469.161l-3.491,1.57-6.529-4.264,3.414-1.583Z" transform="translate(-2526.038 -4464.876)"/><path class="be" d="M2539.774,4469.162l-3.326,1.5-6.531-4.264,3.252-1.509Z" transform="translate(-2526.236 -4464.877)"/><path class="bf" d="M2539.967,4469.161l-3.165,1.423-6.535-4.265,3.092-1.435Z" transform="translate(-2526.429 -4464.876)"/><path class="bg" d="M2540.166,4469.161l-3,1.349-6.538-4.267,2.931-1.359Z" transform="translate(-2526.628 -4464.876)"/><path class="bh" d="M2540.36,4469.161l-2.839,1.274-6.541-4.267,2.771-1.285Z" transform="translate(-2526.821 -4464.876)"/><path class="bi" d="M2540.559,4469.165l-2.671,1.2-6.543-4.268,2.609-1.209Z" transform="translate(-2527.021 -4464.88)"/><path class="bj" d="M2540.749,4469.159l-2.512,1.127-6.547-4.27,2.448-1.135Z" transform="translate(-2527.21 -4464.875)"/><path class="bk" d="M2540.959,4469.162l-2.343,1.054-6.549-4.269,2.287-1.062Z" transform="translate(-2527.417 -4464.876)"/><path class="bl" d="M2541.146,4469.161l-2.18.98-6.552-4.271,2.127-.986Z" transform="translate(-2527.608 -4464.876)"/><path class="bm" d="M2541.344,4469.159l-2.015.907-6.555-4.272,1.965-.912Z" transform="translate(-2527.806 -4464.875)"/><path class="bn" d="M2541.541,4469.161l-1.852.833-6.558-4.272,1.8-.837Z" transform="translate(-2528.002 -4464.876)"/><path class="bo" d="M2541.738,4469.161l-1.687.758-6.56-4.273,1.643-.762Z" transform="translate(-2528.2 -4464.876)"/><path class="bp" d="M2541.938,4469.166l-1.522.688-6.564-4.275,1.481-.687Z" transform="translate(-2528.398 -4464.881)"/><path class="bq" d="M2542.132,4469.159l-1.358.611-6.567-4.276,1.32-.612Z" transform="translate(-2528.594 -4464.875)"/><path class="br" d="M2542.329,4469.161l-1.193.537-6.569-4.276,1.159-.538Z" transform="translate(-2528.792 -4464.876)"/><path class="bs" d="M2542.526,4469.161l-1.03.463-6.572-4.277,1-.462Z" transform="translate(-2528.989 -4464.876)"/><path class="bt" d="M2542.726,4469.161l-.865.39-6.576-4.279.835-.387Z" transform="translate(-2529.187 -4464.876)"/><path class="bu" d="M2542.92,4469.161l-.7.315-6.578-4.28.673-.312Z" transform="translate(-2529.382 -4464.876)"/><path class="bv" d="M2543.119,4469.161l-.535.241-6.581-4.281.512-.237Z" transform="translate(-2529.581 -4464.876)"/><path class="bw" d="M2543.317,4469.163l-.371.167-6.584-4.281.35-.163Z" transform="translate(-2529.778 -4464.877)"/></g><path class="bx" d="M2535.879,4401.022l6.708-3.33,6.648,4.122-6.648,3.333Z" transform="translate(-2529.512 -4397.692)"/><path class="by" d="M2535.879,4405.085v27.294l6.708,4.143V4409.21Z" transform="translate(-2529.512 -4401.755)"/><path class="bz" d="M2557.42,4406.842v27.527l-6.649,3.118v-27.312Z" transform="translate(-2537.696 -4402.72)"/></g><g transform="translate(16.983)"><g class="ag" transform="translate(0 40.594)"><path class="ah" d="M2517.081,4477.655l-6.934,3.117-6.34-4.229,6.8-3.153Z" transform="translate(-2503.807 -4473.385)"/><path class="ai" d="M2517.275,4477.656l-6.775,3.046-6.343-4.23,6.642-3.081Z" transform="translate(-2504 -4473.385)"/><path class="aj" d="M2517.463,4477.656l-6.615,2.975-6.346-4.231,6.486-3.008Z" transform="translate(-2504.189 -4473.385)"/><path class="ak" d="M2517.653,4477.656l-6.456,2.9-6.349-4.232,6.33-2.936Z" transform="translate(-2504.379 -4473.385)"/><path class="al" d="M2517.844,4477.649l-6.3,2.834-6.351-4.238,6.172-2.867Z" transform="translate(-2504.57 -4473.378)"/><path class="am" d="M2518.035,4477.651l-6.138,2.759-6.354-4.237,6.016-2.791Z" transform="translate(-2504.761 -4473.38)"/><path class="an" d="M2518.23,4477.651l-5.978,2.688-6.357-4.238,5.86-2.718Z" transform="translate(-2504.954 -4473.381)"/><path class="ao" d="M2518.417,4477.651l-5.819,2.616-6.36-4.238,5.7-2.646Z" transform="translate(-2505.143 -4473.381)"/><path class="ap" d="M2518.609,4477.653l-5.659,2.544-6.362-4.239,5.546-2.572Z" transform="translate(-2505.335 -4473.382)"/><path class="aq" d="M2518.8,4477.649l-5.5,2.472-6.365-4.239,5.391-2.5Z" transform="translate(-2505.525 -4473.378)"/><path class="ar" d="M2518.994,4477.648l-5.341,2.4-6.368-4.24,5.228-2.432Z" transform="translate(-2505.718 -4473.378)"/><path class="as" d="M2519.183,4477.656l-5.182,2.329-6.37-4.239,5.076-2.354Z" transform="translate(-2505.908 -4473.385)"/><path class="at" d="M2519.379,4477.66l-5.017,2.258-6.374-4.24,4.92-2.28Z" transform="translate(-2506.105 -4473.389)"/><path class="au" d="M2519.576,4477.654l-4.862,2.183-6.376-4.24,4.762-2.209Z" transform="translate(-2506.297 -4473.383)"/><path class="av" d="M2519.761,4477.659l-4.7,2.114-6.379-4.24,4.6-2.136Z" transform="translate(-2506.487 -4473.388)"/><path class="aw" d="M2519.947,4477.659l-4.542,2.042-6.382-4.241,4.448-2.063Z" transform="translate(-2506.673 -4473.389)"/><path class="ax" d="M2520.142,4477.66l-4.379,1.97-6.385-4.241,4.291-1.99Z" transform="translate(-2506.868 -4473.39)"/><path class="ay" d="M2520.331,4477.66l-4.222,1.9-6.387-4.241,4.134-1.917Z" transform="translate(-2507.057 -4473.39)"/><path class="az" d="M2520.527,4477.656l-4.061,1.827-6.391-4.247,3.976-1.844Z" transform="translate(-2507.251 -4473.385)"/><path class="ba" d="M2520.715,4477.649l-3.9,1.754-6.393-4.248,3.819-1.776Z" transform="translate(-2507.44 -4473.378)"/><path class="bb" d="M2520.908,4477.654l-3.742,1.681-6.4-4.248,3.662-1.7Z" transform="translate(-2507.634 -4473.383)"/><path class="bc" d="M2521.1,4477.656l-3.581,1.61-6.4-4.25,3.5-1.625Z" transform="translate(-2507.827 -4473.385)"/><path class="bd" d="M2521.29,4477.655l-3.422,1.539-6.4-4.251,3.348-1.552Z" transform="translate(-2508.016 -4473.385)"/><path class="be" d="M2521.484,4477.657l-3.26,1.467-6.4-4.251,3.189-1.479Z" transform="translate(-2508.21 -4473.387)"/><path class="bf" d="M2521.674,4477.655l-3.1,1.394-6.406-4.252,3.031-1.407Z" transform="translate(-2508.4 -4473.385)"/><path class="bg" d="M2521.872,4477.656l-2.94,1.322-6.41-4.254,2.874-1.333Z" transform="translate(-2508.596 -4473.385)"/><path class="bh" d="M2522.06,4477.656l-2.783,1.25-6.412-4.253,2.717-1.26Z" transform="translate(-2508.784 -4473.386)"/><path class="bi" d="M2522.254,4477.659l-2.618,1.179-6.415-4.256,2.558-1.185Z" transform="translate(-2508.98 -4473.389)"/><path class="bj" d="M2522.44,4477.654l-2.463,1.1-6.418-4.256,2.4-1.114Z" transform="translate(-2509.166 -4473.383)"/><path class="bk" d="M2522.639,4477.656l-2.3,1.033-6.421-4.257,2.243-1.04Z" transform="translate(-2509.365 -4473.385)"/><path class="bl" d="M2522.834,4477.649l-2.137.96-6.423-4.258,2.085-.972Z" transform="translate(-2509.559 -4473.378)"/><path class="bm" d="M2523.024,4477.648l-1.975.888-6.427-4.259,1.922-.9Z" transform="translate(-2509.75 -4473.378)"/><path class="bn" d="M2523.217,4477.655l-1.815.815-6.43-4.26,1.768-.82Z" transform="translate(-2509.942 -4473.385)"/><path class="bo" d="M2523.413,4477.656l-1.654.744-6.432-4.262,1.611-.747Z" transform="translate(-2510.138 -4473.385)"/><path class="bp" d="M2523.614,4477.661l-1.493.676-6.435-4.263,1.452-.673Z" transform="translate(-2510.334 -4473.391)"/><path class="bq" d="M2523.8,4477.654l-1.332.6-6.437-4.264,1.294-.6Z" transform="translate(-2510.522 -4473.383)"/><path class="br" d="M2523.989,4477.656l-1.171.526-6.44-4.264,1.136-.527Z" transform="translate(-2510.715 -4473.385)"/><path class="bs" d="M2524.183,4477.656l-1.009.454-6.443-4.266.977-.453Z" transform="translate(-2510.909 -4473.385)"/><path class="bt" d="M2524.379,4477.656l-.848.381-6.446-4.267.818-.379Z" transform="translate(-2511.104 -4473.385)"/><path class="bu" d="M2524.569,4477.656l-.686.309-6.449-4.267.66-.306Z" transform="translate(-2511.295 -4473.385)"/><path class="bv" d="M2524.764,4477.656l-.525.236-6.451-4.268.5-.233Z" transform="translate(-2511.49 -4473.385)"/><path class="bw" d="M2524.958,4477.657l-.364.164-6.455-4.269.344-.158Z" transform="translate(-2511.683 -4473.387)"/></g><path class="ca" d="M2517.565,4386.611l6.576-3.348,6.516,4.029-6.516,3.352Z" transform="translate(-2511.367 -4383.263)"/><path class="ac" d="M2517.565,4390.7v37.645l6.576,4.132v-37.745Z" transform="translate(-2511.367 -4387.351)"/><path class="ad" d="M2538.675,4392.212v38.039l-6.516,3.057v-37.745Z" transform="translate(-2519.387 -4388.181)"/></g><g transform="translate(9.353 28.422)"><g class="ag" transform="translate(0 15.792)"><path class="ah" d="M2499.895,4485.687l-6.8,3.059-6.222-4.217,6.672-3.094Z" transform="translate(-2486.868 -4481.424)"/><path class="ai" d="M2500.081,4485.687l-6.647,2.988-6.225-4.218,6.518-3.023Z" transform="translate(-2487.055 -4481.424)"/><path class="aj" d="M2500.268,4485.682l-6.492,2.918-6.227-4.218,6.364-2.956Z" transform="translate(-2487.242 -4481.42)"/><path class="ak" d="M2500.454,4485.686l-6.335,2.848-6.231-4.219,6.211-2.881Z" transform="translate(-2487.428 -4481.424)"/><path class="al" d="M2500.643,4485.676l-6.18,2.778-6.233-4.225,6.058-2.813Z" transform="translate(-2487.616 -4481.415)"/><path class="am" d="M2500.829,4485.682l-6.023,2.708-6.235-4.226,5.9-2.738Z" transform="translate(-2487.804 -4481.42)"/><path class="an" d="M2501.018,4485.675l-5.868,2.631-6.239-4.225,5.751-2.668Z" transform="translate(-2487.99 -4481.413)"/><path class="ao" d="M2501.2,4485.684l-5.71,2.567-6.241-4.226,5.6-2.6Z" transform="translate(-2488.176 -4481.422)"/><path class="ap" d="M2501.392,4485.681l-5.555,2.494-6.244-4.226,5.443-2.525Z" transform="translate(-2488.365 -4481.419)"/><path class="aq" d="M2501.579,4485.684l-5.4,2.425-6.247-4.227,5.289-2.454Z" transform="translate(-2488.553 -4481.422)"/><path class="ar" d="M2501.767,4485.685l-5.24,2.355-6.25-4.227,5.136-2.382Z" transform="translate(-2488.741 -4481.423)"/><path class="as" d="M2501.955,4485.687l-5.084,2.285-6.251-4.228,4.982-2.31Z" transform="translate(-2488.929 -4481.424)"/><path class="at" d="M2502.149,4485.69l-4.923,2.215-6.256-4.228,4.829-2.236Z" transform="translate(-2489.123 -4481.429)"/><path class="au" d="M2502.332,4485.684l-4.771,2.141-6.257-4.228,4.673-2.168Z" transform="translate(-2489.306 -4481.422)"/><path class="av" d="M2502.522,4485.689l-4.61,2.074-6.26-4.229,4.519-2.1Z" transform="translate(-2489.497 -4481.427)"/><path class="aw" d="M2502.708,4485.69l-4.457,2-6.263-4.229,4.365-2.024Z" transform="translate(-2489.681 -4481.428)"/><path class="ax" d="M2502.9,4485.691l-4.3,1.933-6.266-4.229,4.211-1.953Z" transform="translate(-2489.873 -4481.43)"/><path class="ay" d="M2503.085,4485.687l-4.142,1.859-6.268-4.228,4.057-1.882Z" transform="translate(-2490.06 -4481.426)"/><path class="az" d="M2503.273,4485.682l-3.985,1.792-6.271-4.238,3.9-1.81Z" transform="translate(-2490.248 -4481.42)"/><path class="ba" d="M2503.459,4485.68l-3.829,1.721-6.274-4.235,3.748-1.743Z" transform="translate(-2490.433 -4481.418)"/><path class="bb" d="M2503.65,4485.686l-3.671,1.649-6.277-4.236,3.594-1.667Z" transform="translate(-2490.623 -4481.424)"/><path class="bc" d="M2503.836,4485.676l-3.515,1.58-6.279-4.245,3.439-1.6Z" transform="translate(-2490.811 -4481.415)"/><path class="bd" d="M2504.023,4485.686l-3.358,1.509-6.282-4.239,3.284-1.523Z" transform="translate(-2490.998 -4481.424)"/><path class="be" d="M2504.213,4485.684l-3.2,1.435-6.284-4.239,3.13-1.451Z" transform="translate(-2491.187 -4481.422)"/><path class="bf" d="M2504.4,4485.686l-3.045,1.368-6.287-4.24,2.975-1.38Z" transform="translate(-2491.376 -4481.424)"/><path class="bg" d="M2504.594,4485.687l-2.885,1.3-6.29-4.242,2.82-1.309Z" transform="translate(-2491.567 -4481.424)"/><path class="bh" d="M2504.776,4485.686l-2.73,1.225-6.293-4.242,2.666-1.236Z" transform="translate(-2491.75 -4481.424)"/><path class="bi" d="M2504.977,4485.69l-2.569,1.157-6.3-4.244,2.51-1.163Z" transform="translate(-2491.948 -4481.429)"/><path class="bj" d="M2505.157,4485.685l-2.417,1.083-6.291-4.243,2.355-1.093Z" transform="translate(-2492.133 -4481.423)"/><path class="bk" d="M2505.343,4485.682l-2.254,1.013-6.3-4.248,2.2-1.021Z" transform="translate(-2492.318 -4481.42)"/><path class="bl" d="M2505.536,4485.687l-2.1.942-6.3-4.246,2.046-.948Z" transform="translate(-2492.51 -4481.424)"/><path class="bm" d="M2505.725,4485.685l-1.938.871-6.307-4.248,1.89-.877Z" transform="translate(-2492.7 -4481.423)"/><path class="bn" d="M2505.916,4485.687l-1.781.8-6.309-4.248,1.735-.805Z" transform="translate(-2492.889 -4481.424)"/><path class="bo" d="M2506.107,4485.687l-1.623.729-6.312-4.249,1.58-.733Z" transform="translate(-2493.08 -4481.424)"/><path class="bp" d="M2506.292,4485.69l-1.465.663-6.315-4.25,1.425-.661Z" transform="translate(-2493.267 -4481.429)"/><path class="bq" d="M2506.485,4485.686l-1.307.587-6.317-4.251,1.27-.589Z" transform="translate(-2493.458 -4481.424)"/><path class="br" d="M2506.675,4485.678l-1.149.516-6.319-4.259,1.113-.517Z" transform="translate(-2493.648 -4481.416)"/><path class="bs" d="M2506.862,4485.686l-.991.445-6.323-4.253.959-.445Z" transform="translate(-2493.836 -4481.424)"/><path class="bt" d="M2507.055,4485.682l-.833.374-6.323-4.256.8-.373Z" transform="translate(-2494.029 -4481.42)"/><path class="bu" d="M2507.242,4485.687l-.673.3-6.329-4.255.648-.3Z" transform="translate(-2494.216 -4481.424)"/><path class="bv" d="M2507.435,4485.687l-.515.232-6.331-4.256.493-.229Z" transform="translate(-2494.408 -4481.424)"/><path class="bw" d="M2507.621,4485.686l-.357.16-6.334-4.258.336-.155Z" transform="translate(-2494.595 -4481.424)"/></g><path class="cb" d="M2499.052,4449.3l6.444-2.938,6.384,4.051-6.384,3.1Z" transform="translate(-2493.563 -4446.357)"/><path class="cc" d="M2499.052,4452.88v13.55l6.444,4.121v-13.459Z" transform="translate(-2493.563 -4449.941)"/><path class="cd" d="M2519.743,4455.351v13.563l-6.384,2.995V4458.45Z" transform="translate(-2501.426 -4451.299)"/></g><g transform="translate(0 17.505)"><g class="ag" transform="translate(0 31.124)"><path class="ah" d="M2478.833,4495.469l-6.647,2.987-6.08-4.2,6.519-3.023Z" transform="translate(-2466.106 -4491.225)"/><path class="ai" d="M2479.014,4495.469l-6.494,2.919-6.082-4.2,6.369-2.954Z" transform="translate(-2466.288 -4491.225)"/><path class="aj" d="M2479.2,4495.469l-6.342,2.851-6.085-4.2,6.219-2.884Z" transform="translate(-2466.472 -4491.225)"/><path class="ak" d="M2479.382,4495.469l-6.189,2.782-6.088-4.2,6.07-2.814Z" transform="translate(-2466.655 -4491.225)"/><path class="al" d="M2479.563,4495.459l-6.036,2.713-6.09-4.209,5.918-2.749Z" transform="translate(-2466.838 -4491.215)"/><path class="am" d="M2479.746,4495.465l-5.884,2.645-6.093-4.209,5.769-2.674Z" transform="translate(-2467.02 -4491.221)"/><path class="an" d="M2479.931,4495.465l-5.73,2.576-6.1-4.209,5.619-2.606Z" transform="translate(-2467.205 -4491.221)"/><path class="ao" d="M2480.114,4495.467l-5.578,2.508-6.1-4.21,5.469-2.536Z" transform="translate(-2467.387 -4491.222)"/><path class="ap" d="M2480.3,4495.467l-5.425,2.438-6.1-4.21,5.318-2.466Z" transform="translate(-2467.571 -4491.222)"/><path class="aq" d="M2480.478,4495.467l-5.272,2.369-6.1-4.211,5.168-2.4Z" transform="translate(-2467.752 -4491.222)"/><path class="ar" d="M2480.663,4495.468l-5.119,2.3-6.105-4.211,5.018-2.328Z" transform="translate(-2467.937 -4491.223)"/><path class="as" d="M2480.848,4495.469l-4.967,2.231-6.108-4.21,4.868-2.257Z" transform="translate(-2468.121 -4491.225)"/><path class="at" d="M2481.034,4495.474l-4.809,2.164-6.111-4.211,4.718-2.186Z" transform="translate(-2468.309 -4491.229)"/><path class="au" d="M2481.212,4495.467l-4.66,2.091-6.114-4.212,4.566-2.118Z" transform="translate(-2468.486 -4491.222)"/><path class="av" d="M2481.4,4495.472l-4.5,2.025-6.116-4.212,4.416-2.048Z" transform="translate(-2468.675 -4491.228)"/><path class="aw" d="M2481.581,4495.473l-4.354,1.956-6.12-4.212,4.266-1.978Z" transform="translate(-2468.855 -4491.228)"/><path class="ax" d="M2481.769,4495.475l-4.2,1.888-6.122-4.212,4.115-1.908Z" transform="translate(-2469.042 -4491.23)"/><path class="ay" d="M2481.939,4495.473l-4.047,1.818-6.124-4.212,3.964-1.839Z" transform="translate(-2469.218 -4491.229)"/><path class="az" d="M2482.134,4495.469l-3.892,1.75-6.126-4.218,3.813-1.768Z" transform="translate(-2469.408 -4491.225)"/><path class="ba" d="M2482.318,4495.463l-3.741,1.681-6.129-4.22,3.662-1.7Z" transform="translate(-2469.591 -4491.219)"/><path class="bb" d="M2482.5,4495.468l-3.587,1.611-6.132-4.22,3.511-1.629Z" transform="translate(-2469.776 -4491.223)"/><path class="bc" d="M2482.684,4495.469l-3.433,1.543-6.134-4.221,3.361-1.559Z" transform="translate(-2469.959 -4491.225)"/><path class="bd" d="M2482.867,4495.469l-3.28,1.474-6.138-4.223,3.208-1.488Z" transform="translate(-2470.141 -4491.225)"/><path class="be" d="M2483.055,4495.47l-3.126,1.405-6.14-4.223,3.058-1.417Z" transform="translate(-2470.328 -4491.226)"/><path class="bf" d="M2483.235,4495.469l-2.974,1.336-6.142-4.225,2.907-1.348Z" transform="translate(-2470.509 -4491.225)"/><path class="bg" d="M2483.422,4495.469l-2.818,1.267-6.145-4.226,2.756-1.278Z" transform="translate(-2470.696 -4491.225)"/><path class="bh" d="M2483.6,4495.47l-2.667,1.2-6.147-4.226,2.6-1.208Z" transform="translate(-2470.877 -4491.226)"/><path class="bi" d="M2483.794,4495.473l-2.509,1.129-6.15-4.227,2.453-1.137Z" transform="translate(-2471.067 -4491.228)"/><path class="bj" d="M2483.975,4495.468l-2.36,1.058-6.151-4.228,2.3-1.068Z" transform="translate(-2471.248 -4491.223)"/><path class="bk" d="M2484.161,4495.469l-2.2.989-6.156-4.229,2.15-1Z" transform="translate(-2471.435 -4491.225)"/><path class="bl" d="M2484.345,4495.469l-2.049.92-6.158-4.23,2-.927Z" transform="translate(-2471.619 -4491.225)"/><path class="bm" d="M2484.532,4495.468l-1.893.851-6.162-4.231,1.848-.857Z" transform="translate(-2471.805 -4491.223)"/><path class="bn" d="M2484.714,4495.469l-1.74.781-6.164-4.232,1.695-.786Z" transform="translate(-2471.989 -4491.225)"/><path class="bo" d="M2484.9,4495.469l-1.585.712-6.166-4.233,1.544-.716Z" transform="translate(-2472.175 -4491.225)"/><path class="bp" d="M2485.083,4495.474l-1.431.647-6.17-4.234,1.392-.646Z" transform="translate(-2472.358 -4491.229)"/><path class="bq" d="M2485.272,4495.468l-1.276.574-6.172-4.236,1.241-.576Z" transform="translate(-2472.546 -4491.223)"/><path class="br" d="M2485.457,4495.469l-1.122.5-6.174-4.236,1.088-.505Z" transform="translate(-2472.73 -4491.225)"/><path class="bs" d="M2485.646,4495.469l-.967.435-6.175-4.237.937-.434Z" transform="translate(-2472.919 -4491.225)"/><path class="bt" d="M2485.816,4495.467l-.813.365-6.18-4.238.785-.365Z" transform="translate(-2473.094 -4491.223)"/><path class="bu" d="M2486.014,4495.469l-.658.3-6.182-4.238.633-.293Z" transform="translate(-2473.287 -4491.225)"/><path class="bv" d="M2486.2,4495.469l-.5.227-6.184-4.24.481-.223Z" transform="translate(-2473.474 -4491.225)"/><path class="bw" d="M2486.382,4495.47l-.349.157-6.188-4.241.328-.152Z" transform="translate(-2473.656 -4491.226)"/></g><path class="ce" d="M2479.785,4425.268l6.306-3.145,6.248,4.079-6.248,3.146Z" transform="translate(-2473.623 -4422.123)"/><path class="cf" d="M2479.785,4429.1v28.265l6.306,4.107v-28.289Z" transform="translate(-2473.623 -4425.959)"/><path class="cg" d="M2500.033,4431.178v28.506l-6.248,2.932v-28.29Z" transform="translate(-2481.317 -4427.099)"/></g></g></g><g transform="matrix(0.995, 0.105, -0.105, 0.995, 177.942, 259.627)"><g transform="translate(0 12.648)"><g transform="translate(0.557)"><path class="ch" d="M379.478,394.747a8.521,8.521,0,0,1-4.189-1.015,3.267,3.267,0,0,1-1.895-2.74,3.3,3.3,0,0,1,1.92-2.765,9.182,9.182,0,0,1,8.423-.015,3.272,3.272,0,0,1,1.9,2.74,3.306,3.306,0,0,1-1.92,2.766A8.63,8.63,0,0,1,379.478,394.747Zm.07-6.437a7.529,7.529,0,0,0-3.677.879,2.27,2.27,0,0,0-1.364,1.8,2.23,2.23,0,0,0,1.338,1.777,8.1,8.1,0,0,0,7.311-.014,2.271,2.271,0,0,0,1.364-1.8,2.232,2.232,0,0,0-1.339-1.776A7.436,7.436,0,0,0,379.548,388.31Z" transform="translate(-373.394 -387.197)"/></g><g transform="translate(0 0.384)"><path class="ci" d="M379.534,395.259a9.108,9.108,0,0,1-4.467-1.083,3.8,3.8,0,0,1-2.173-3.223,3.885,3.885,0,0,1,2.2-3.248,1.114,1.114,0,0,1,1.113,1.929c-.69.4-1.085.879-1.085,1.319s.386.905,1.06,1.295a7.6,7.6,0,0,0,6.754-.014c.689-.4,1.085-.878,1.085-1.32s-.387-.9-1.061-1.294a1.113,1.113,0,1,1,1.113-1.928,3.8,3.8,0,0,1,2.174,3.222,3.882,3.882,0,0,1-2.2,3.248A9.2,9.2,0,0,1,379.534,395.259Z" transform="translate(-372.894 -387.542)"/></g></g><g transform="translate(11.014 6.288)"><g transform="translate(0.557)"><path class="ch" d="M389.373,389.036a8.514,8.514,0,0,1-4.19-1.017,3.268,3.268,0,0,1-1.895-2.739,3.3,3.3,0,0,1,1.92-2.765,9.175,9.175,0,0,1,8.423-.014,3.268,3.268,0,0,1,1.895,2.74,3.3,3.3,0,0,1-1.919,2.765A8.619,8.619,0,0,1,389.373,389.036Zm.068-6.438a7.523,7.523,0,0,0-3.676.879,2.27,2.27,0,0,0-1.364,1.8,2.23,2.23,0,0,0,1.338,1.776,8.1,8.1,0,0,0,7.311-.013,2.268,2.268,0,0,0,1.363-1.8,2.23,2.23,0,0,0-1.338-1.776A7.426,7.426,0,0,0,389.441,382.6Z" transform="translate(-383.288 -381.484)"/></g><g transform="translate(0 0.399)"><path class="ad" d="M389.429,389.545a9.088,9.088,0,0,1-4.468-1.084,3.794,3.794,0,0,1-2.173-3.222,3.882,3.882,0,0,1,2.2-3.247,1.113,1.113,0,1,1,1.113,1.928c-.69.4-1.085.878-1.085,1.319s.386.9,1.06,1.294a7.582,7.582,0,0,0,6.754-.014,1.113,1.113,0,1,1,1.113,1.928A9.179,9.179,0,0,1,389.429,389.545Z" transform="translate(-382.788 -381.842)"/></g></g><g transform="translate(21.905)"><g transform="translate(0.557)"><path class="ch" d="M399.157,383.387a8.527,8.527,0,0,1-4.19-1.016,2.939,2.939,0,0,1,.024-5.5,9.175,9.175,0,0,1,8.423-.016h0a3.269,3.269,0,0,1,1.9,2.741,3.306,3.306,0,0,1-1.919,2.764A8.607,8.607,0,0,1,399.157,383.387Zm.07-6.437a7.536,7.536,0,0,0-3.679.879,2.27,2.27,0,0,0-1.364,1.8,2.233,2.233,0,0,0,1.339,1.777,8.093,8.093,0,0,0,7.311-.014,2.27,2.27,0,0,0,1.363-1.8,2.233,2.233,0,0,0-1.339-1.778A7.436,7.436,0,0,0,399.227,376.95Z" transform="translate(-393.071 -375.835)"/></g><g transform="translate(0 0.399)"><path class="by" d="M395.3,382.961a1.12,1.12,0,0,1-.555-.148,3.8,3.8,0,0,1-2.174-3.223,3.883,3.883,0,0,1,2.2-3.247,1.114,1.114,0,0,1,1.113,1.929c-.689.4-1.085.878-1.085,1.318s.387.9,1.061,1.294a1.113,1.113,0,0,1-.558,2.077Z" transform="translate(-392.571 -376.194)"/></g></g></g><g transform="translate(-283.825 -157.98)"><g transform="translate(488.872 408.394)"><path class="cj" d="M489.968,413.579s-.339,1.995,3.647,5.171l.493,1.607-.582.111-3.68-4.323S489.224,413.852,489.968,413.579Z" transform="translate(-488.766 -407.638)"/><path class="cj" d="M489.18,413.385a3.007,3.007,0,0,1,2.841-1.188s-.084.66-.136.918Z" transform="translate(-488.827 -407.849)"/><path class="ck" d="M513.2,425.509c0,3.323-4.9,6.016-10.953,6.016s-10.952-2.694-10.952-6.016,4.9-6.017,10.952-6.017S513.2,422.187,513.2,425.509Z" transform="translate(-488.518 -406.777)"/><path class="ad" d="M509.886,413.656c0-2.907-4.019-5.262-8.978-5.262-4.937,0-8.939,2.336-8.975,5.225a2.387,2.387,0,0,0-2.358-.021,1.674,1.674,0,0,0-.7,1.477c0,1.581,1.524,4.459,5.78,7.468l.8,2.6c.6,2.179,1.8,3.278,5.459,3.278,3.5,0,4.848-.747,5.459-3.278l3.519-11.485Zm-20.125,1.421a.839.839,0,0,1,.313-.742c.6-.407,1.562.057,2.215.5l1.924,6.278C491.164,418.717,489.758,416.374,489.761,415.077Z" transform="translate(-488.872 -408.394)"/><path class="cl" d="M507.9,413.734c0,2.2-3.383,3.991-7.557,3.991s-7.557-1.787-7.557-3.991,3.383-3.991,7.557-3.991S507.9,411.53,507.9,413.734Z" transform="translate(-488.302 -408.197)"/><path class="cm" d="M504.533,410.417a12.706,12.706,0,0,0-4.195-.674c-4.174,0-7.557,1.786-7.557,3.991a2.467,2.467,0,0,0,.587,1.539c.516.046,1.042.076,1.582.076C500.163,415.348,504.4,413.152,504.533,410.417Z" transform="translate(-488.302 -408.197)"/><path class="cn" d="M505.124,424.472l3.519-11.485c-.527.9-.721,4.465-7.074,5.264,0,0-4.912,2.232-4.064,9.327a13.86,13.86,0,0,0,2.16.172C503.166,427.75,504.512,427,505.124,424.472Z" transform="translate(-487.628 -407.725)"/></g></g><g transform="translate(-336.116 2.981)"><path class="co" d="M520.077,232.539l-20.426,17.186-7.036,0-21.7-11.472,22.053-18.416Z" transform="translate(5.41 5.409)"/><path class="cp" d="M498.026,240.974l6.048-12.478-34.78-6.027V229.5Z" transform="translate(0 14.162)"/><path class="cq" d="M520.081,229.686,498.026,248.1l-28.732-11.47,22.053-18.416Z" transform="translate(0 0)"/><path class="cr" d="M475.93,246.314v-7.036l22.055-18.414V227.9Z" transform="translate(22.096 8.822)"/></g><g transform="translate(142.563 86.55)"><path class="cs" d="M3703.678,155.273h-26.34a12.712,12.712,0,0,0-12.675,12.675V193.71a12.712,12.712,0,0,0,12.675,12.674h11.39l7.915,8.406a1.193,1.193,0,0,0,2.062-.79l.178-7.615h4.794a12.712,12.712,0,0,0,12.675-12.674V167.948A12.712,12.712,0,0,0,3703.678,155.273Z" transform="translate(-3664.664 -155.273)"/><path class="j" d="M2,3V4.227a13.472,13.472,0,0,0,2.66,7.736C5.922,13.856,6.908,15.2,6.908,16.5H9.362c0-.02,0-.038,0-.058a10.51,10.51,0,0,0,2.459,3.739h4.908a10.51,10.51,0,0,0,2.459-3.739c0,.02,0,.038,0,.058h2.454c0-1.3.986-2.641,2.248-4.534a13.472,13.472,0,0,0,2.66-7.736V3ZM4.689,5.454H7.244a34.893,34.893,0,0,0,.9,7.331c-.456-.746-.963-1.463-1.443-2.183A12.005,12.005,0,0,1,4.689,5.454Zm5.045,0h9.073V6.681h0c-.384,6.624-2.27,9.867-3.154,11.043H12.9c-.908-1.207-2.779-4.453-3.161-11.043h0Zm11.563,0h2.555A12.005,12.005,0,0,1,21.839,10.6c-.48.72-.987,1.437-1.443,2.183A34.893,34.893,0,0,0,21.3,5.454ZM8.135,22.633v2.454h12.27V22.633Z" transform="translate(11.536 13.276)"/></g></g></svg>